M48
; DRILL file KiCad 10.0.6 date 2026-10-01T11:39:37
; FORMAT={-:-/ absolute / metric / decimal}
; #@! TF.CreationDate,2026-10-01T11:39:37+07:00
; #@! TF.GenerationSoftware,Kicad,Pcbnew,10.0.6
; #@! TF.FileFunction,Plated,1,2,PTH
FMAT,2
METRIC
; #@! TA.AperFunction,Plated,PTH,ViaDrill
T1C0.350
; #@! TA.AperFunction,Plated,PTH,ViaDrill
T2C0.450
; #@! TA.AperFunction,Plated,PTH,ComponentDrill
T3C0.800
; #@! TA.AperFunction,Plated,PTH,ComponentDrill
T4C0.900
; #@! TA.AperFunction,Plated,PTH,ComponentDrill
T5C1.000
%
G90
G05
T1
X55.7Y-107.276
X63.1Y-51.992
X72.199Y-80.705
X90.002Y-58.154
X91.071Y-57.816
X129.282Y-51.992
T2
X118.341Y-78.674
T3
X45.0Y-110.0
X45.0Y-120.16
X48.25Y-128.0
X49.5Y-110.0
X49.5Y-120.16
X51.75Y-128.0
X54.0Y-48.0
X54.0Y-110.0
X54.0Y-120.16
X64.16Y-48.0
X122.6Y-109.0
X122.6Y-111.5
X123.0Y-129.5
X123.25Y-124.3
X124.0Y-116.0
X125.75Y-124.3
X126.54Y-116.0
X129.08Y-116.0
X130.62Y-129.5
X132.5Y-87.5
X132.5Y-90.0
X132.6Y-114.0
X132.6Y-124.16
X137.2Y-114.0
X137.2Y-124.16
T4
X46.0Y-104.0
X48.159Y-104.0
X50.318Y-104.0
X52.477Y-104.0
T5
X50.4Y-56.3
X50.4Y-81.7
X52.94Y-56.3
X52.94Y-81.7
X55.48Y-56.3
X55.48Y-81.7
X58.02Y-56.3
X58.02Y-81.7
X60.56Y-56.3
X60.56Y-81.7
X63.1Y-56.3
X63.1Y-81.7
X65.64Y-56.3
X65.64Y-81.7
X68.18Y-56.3
X68.18Y-81.7
X70.72Y-56.3
X70.72Y-81.7
X73.26Y-56.3
X73.26Y-81.7
X75.8Y-56.3
X75.8Y-81.7
X78.34Y-56.3
X78.34Y-81.7
X80.88Y-56.3
X80.88Y-81.7
X83.42Y-56.3
X83.42Y-81.7
X85.96Y-56.3
X85.96Y-81.7
X118.1Y-111.72
X118.1Y-114.26
X118.1Y-116.8
X118.1Y-119.34
X118.1Y-121.88
X118.1Y-124.42
X118.1Y-126.96
X118.1Y-129.5
X126.7Y-106.0
X134.3Y-106.0
X137.0Y-52.66
X137.0Y-55.2
X137.0Y-57.74
X137.0Y-60.28
X137.0Y-62.82
X137.0Y-65.36
X137.0Y-67.9
X137.0Y-70.44
X137.0Y-72.98
X137.0Y-75.52
X137.0Y-78.06
X137.0Y-80.6
X137.0Y-83.14
X137.0Y-85.68
M30
