%TF.GenerationSoftware,KiCad,Pcbnew,10.0.6*%
%TF.CreationDate,2026-10-01T11:39:37+07:00*%
%TF.ProjectId,absensi-pcb,61627365-6e73-4692-9d70-63622e6b6963,rev?*%
%TF.SameCoordinates,Original*%
%TF.FileFunction,Soldermask,Bot*%
%TF.FilePolarity,Negative*%
%FSLAX46Y46*%
G04 Gerber Fmt 4.6, Leading zero omitted, Abs format (unit mm)*
G04 Created by KiCad (PCBNEW 10.0.6) date 2026-10-01 11:39:37*
%MOMM*%
%LPD*%
G01*
G04 APERTURE LIST*
G04 Aperture macros list*
%AMRoundRect*
0 Rectangle with rounded corners*
0 $1 Rounding radius*
0 $2 $3 $4 $5 $6 $7 $8 $9 X,Y pos of 4 corners*
0 Add a 4 corners polygon primitive as box body*
4,1,4,$2,$3,$4,$5,$6,$7,$8,$9,$2,$3,0*
0 Add four circle primitives for the rounded corners*
1,1,$1+$1,$2,$3*
1,1,$1+$1,$4,$5*
1,1,$1+$1,$6,$7*
1,1,$1+$1,$8,$9*
0 Add four rect primitives between the rounded corners*
20,1,$1+$1,$2,$3,$4,$5,0*
20,1,$1+$1,$4,$5,$6,$7,0*
20,1,$1+$1,$6,$7,$8,$9,0*
20,1,$1+$1,$8,$9,$2,$3,0*%
G04 Aperture macros list end*
%ADD10R,2.000000X2.000000*%
%ADD11C,2.000000*%
%ADD12C,3.200000*%
%ADD13C,1.600000*%
%ADD14RoundRect,0.250000X-0.550000X-0.550000X0.550000X-0.550000X0.550000X0.550000X-0.550000X0.550000X0*%
%ADD15R,1.700000X1.700000*%
%ADD16C,1.700000*%
%ADD17R,1.500000X1.500000*%
%ADD18C,1.500000*%
%ADD19R,1.800000X1.800000*%
%ADD20C,1.800000*%
G04 APERTURE END LIST*
D10*
%TO.C,BZ1*%
X126700000Y-106000000D03*
D11*
X134300000Y-106000000D03*
%TD*%
D12*
%TO.C,H2*%
X136000000Y-44420000D03*
%TD*%
D13*
%TO.C,R4*%
X132600000Y-114000000D03*
X132600000Y-124160000D03*
%TD*%
%TO.C,C4*%
X122600000Y-109000000D03*
X122600000Y-111500000D03*
%TD*%
D14*
%TO.C,C3*%
X123250000Y-124300000D03*
D13*
X125750000Y-124300000D03*
%TD*%
D12*
%TO.C,H8*%
X66850000Y-105870000D03*
%TD*%
D15*
%TO.C,J4*%
X118100000Y-129500000D03*
D16*
X118100000Y-126960000D03*
X118100000Y-124420000D03*
X118100000Y-121880000D03*
X118100000Y-119340000D03*
X118100000Y-116800000D03*
X118100000Y-114260000D03*
X118100000Y-111720000D03*
%TD*%
D14*
%TO.C,D1*%
X123000000Y-129500000D03*
D13*
X130620000Y-129500000D03*
%TD*%
D12*
%TO.C,H4*%
X136000000Y-93920000D03*
%TD*%
D13*
%TO.C,R1*%
X45000000Y-110000000D03*
X45000000Y-120160000D03*
%TD*%
D15*
%TO.C,J3*%
X137000000Y-85680000D03*
D16*
X137000000Y-83140000D03*
X137000000Y-80600000D03*
X137000000Y-78060000D03*
X137000000Y-75520000D03*
X137000000Y-72980000D03*
X137000000Y-70440000D03*
X137000000Y-67900000D03*
X137000000Y-65360000D03*
X137000000Y-62820000D03*
X137000000Y-60280000D03*
X137000000Y-57740000D03*
X137000000Y-55200000D03*
X137000000Y-52660000D03*
%TD*%
D14*
%TO.C,C1*%
X48250000Y-128000000D03*
D13*
X51750000Y-128000000D03*
%TD*%
D12*
%TO.C,H9*%
X44000000Y-136000000D03*
%TD*%
%TO.C,H6*%
X104350000Y-101520000D03*
%TD*%
D17*
%TO.C,Q1*%
X124000000Y-116000000D03*
D18*
X126540000Y-116000000D03*
X129080000Y-116000000D03*
%TD*%
D13*
%TO.C,R3*%
X54000000Y-110000000D03*
X54000000Y-120160000D03*
%TD*%
D12*
%TO.C,H3*%
X44000000Y-93920000D03*
%TD*%
D13*
%TO.C,C2*%
X132500000Y-87500000D03*
X132500000Y-90000000D03*
%TD*%
D12*
%TO.C,H5*%
X104350000Y-136520000D03*
%TD*%
%TO.C,H7*%
X66850000Y-131720000D03*
%TD*%
D13*
%TO.C,R6*%
X54000000Y-48000000D03*
X64160000Y-48000000D03*
%TD*%
%TO.C,R5*%
X137200000Y-114000000D03*
X137200000Y-124160000D03*
%TD*%
%TO.C,R2*%
X49500000Y-110000000D03*
X49500000Y-120160000D03*
%TD*%
D12*
%TO.C,H1*%
X44000000Y-44420000D03*
%TD*%
D19*
%TO.C,D2*%
X46000000Y-104000000D03*
D20*
X48159000Y-104000000D03*
X50318000Y-104000000D03*
X52477000Y-104000000D03*
%TD*%
D12*
%TO.C,H10*%
X136000000Y-136000000D03*
%TD*%
D15*
%TO.C,J1*%
X85960000Y-81700000D03*
D16*
X83420000Y-81700000D03*
X80880000Y-81700000D03*
X78340000Y-81700000D03*
X75800000Y-81700000D03*
X73260000Y-81700000D03*
X70720000Y-81700000D03*
X68180000Y-81700000D03*
X65640000Y-81700000D03*
X63100000Y-81700000D03*
X60560000Y-81700000D03*
X58020000Y-81700000D03*
X55480000Y-81700000D03*
X52940000Y-81700000D03*
X50400000Y-81700000D03*
%TD*%
D15*
%TO.C,J2*%
X85960000Y-56300000D03*
D16*
X83420000Y-56300000D03*
X80880000Y-56300000D03*
X78340000Y-56300000D03*
X75800000Y-56300000D03*
X73260000Y-56300000D03*
X70720000Y-56300000D03*
X68180000Y-56300000D03*
X65640000Y-56300000D03*
X63100000Y-56300000D03*
X60560000Y-56300000D03*
X58020000Y-56300000D03*
X55480000Y-56300000D03*
X52940000Y-56300000D03*
X50400000Y-56300000D03*
%TD*%
M02*
