%TF.GenerationSoftware,KiCad,Pcbnew,10.0.6*%
%TF.CreationDate,2026-10-01T11:39:37+07:00*%
%TF.ProjectId,absensi-pcb,61627365-6e73-4692-9d70-63622e6b6963,rev?*%
%TF.SameCoordinates,Original*%
%TF.FileFunction,Legend,Bot*%
%TF.FilePolarity,Positive*%
%FSLAX46Y46*%
G04 Gerber Fmt 4.6, Leading zero omitted, Abs format (unit mm)*
G04 Created by KiCad (PCBNEW 10.0.6) date 2026-10-01 11:39:37*
%MOMM*%
%LPD*%
G01*
G04 APERTURE LIST*
G04 Aperture macros list*
%AMRoundRect*
0 Rectangle with rounded corners*
0 $1 Rounding radius*
0 $2 $3 $4 $5 $6 $7 $8 $9 X,Y pos of 4 corners*
0 Add a 4 corners polygon primitive as box body*
4,1,4,$2,$3,$4,$5,$6,$7,$8,$9,$2,$3,0*
0 Add four circle primitives for the rounded corners*
1,1,$1+$1,$2,$3*
1,1,$1+$1,$4,$5*
1,1,$1+$1,$6,$7*
1,1,$1+$1,$8,$9*
0 Add four rect primitives between the rounded corners*
20,1,$1+$1,$2,$3,$4,$5,0*
20,1,$1+$1,$4,$5,$6,$7,0*
20,1,$1+$1,$6,$7,$8,$9,0*
20,1,$1+$1,$8,$9,$2,$3,0*%
G04 Aperture macros list end*
%ADD10C,0.150000*%
%ADD11C,0.120000*%
%ADD12C,0.135000*%
%ADD13C,0.180000*%
%ADD14R,2.000000X2.000000*%
%ADD15C,2.000000*%
%ADD16C,3.200000*%
%ADD17C,1.600000*%
%ADD18RoundRect,0.250000X-0.550000X-0.550000X0.550000X-0.550000X0.550000X0.550000X-0.550000X0.550000X0*%
%ADD19R,1.700000X1.700000*%
%ADD20C,1.700000*%
%ADD21R,1.500000X1.500000*%
%ADD22C,1.500000*%
%ADD23R,1.800000X1.800000*%
%ADD24C,1.800000*%
G04 APERTURE END LIST*
D10*
X40500000Y-54700000D02*
X92000000Y-54700000D01*
X40500000Y-83300000D02*
X40500000Y-54700000D01*
X92000000Y-54700000D02*
X92000000Y-83300000D01*
X92000000Y-83300000D02*
X40500000Y-83300000D01*
D11*
X49963855Y-51709523D02*
X49963855Y-52204761D01*
X49963855Y-52204761D02*
X50268617Y-51938095D01*
X50268617Y-51938095D02*
X50268617Y-52052380D01*
X50268617Y-52052380D02*
X50306712Y-52128571D01*
X50306712Y-52128571D02*
X50344807Y-52166666D01*
X50344807Y-52166666D02*
X50420998Y-52204761D01*
X50420998Y-52204761D02*
X50611474Y-52204761D01*
X50611474Y-52204761D02*
X50687664Y-52166666D01*
X50687664Y-52166666D02*
X50725760Y-52128571D01*
X50725760Y-52128571D02*
X50763855Y-52052380D01*
X50763855Y-52052380D02*
X50763855Y-51823809D01*
X50763855Y-51823809D02*
X50725760Y-51747618D01*
X50725760Y-51747618D02*
X50687664Y-51709523D01*
X49963855Y-52433333D02*
X50763855Y-52700000D01*
X50763855Y-52700000D02*
X49963855Y-52966666D01*
X49963855Y-53157142D02*
X49963855Y-53652380D01*
X49963855Y-53652380D02*
X50268617Y-53385714D01*
X50268617Y-53385714D02*
X50268617Y-53499999D01*
X50268617Y-53499999D02*
X50306712Y-53576190D01*
X50306712Y-53576190D02*
X50344807Y-53614285D01*
X50344807Y-53614285D02*
X50420998Y-53652380D01*
X50420998Y-53652380D02*
X50611474Y-53652380D01*
X50611474Y-53652380D02*
X50687664Y-53614285D01*
X50687664Y-53614285D02*
X50725760Y-53576190D01*
X50725760Y-53576190D02*
X50763855Y-53499999D01*
X50763855Y-53499999D02*
X50763855Y-53271428D01*
X50763855Y-53271428D02*
X50725760Y-53195237D01*
X50725760Y-53195237D02*
X50687664Y-53157142D01*
X49963855Y-84423810D02*
X50763855Y-84690477D01*
X50763855Y-84690477D02*
X49963855Y-84957143D01*
X50763855Y-85223810D02*
X49963855Y-85223810D01*
X50763855Y-85604762D02*
X49963855Y-85604762D01*
X49963855Y-85604762D02*
X50763855Y-86061905D01*
X50763855Y-86061905D02*
X49963855Y-86061905D01*
X52541950Y-52090476D02*
X52503855Y-52014286D01*
X52503855Y-52014286D02*
X52503855Y-51900000D01*
X52503855Y-51900000D02*
X52541950Y-51785714D01*
X52541950Y-51785714D02*
X52618140Y-51709524D01*
X52618140Y-51709524D02*
X52694331Y-51671429D01*
X52694331Y-51671429D02*
X52846712Y-51633333D01*
X52846712Y-51633333D02*
X52960998Y-51633333D01*
X52960998Y-51633333D02*
X53113379Y-51671429D01*
X53113379Y-51671429D02*
X53189569Y-51709524D01*
X53189569Y-51709524D02*
X53265760Y-51785714D01*
X53265760Y-51785714D02*
X53303855Y-51900000D01*
X53303855Y-51900000D02*
X53303855Y-51976191D01*
X53303855Y-51976191D02*
X53265760Y-52090476D01*
X53265760Y-52090476D02*
X53227664Y-52128572D01*
X53227664Y-52128572D02*
X52960998Y-52128572D01*
X52960998Y-52128572D02*
X52960998Y-51976191D01*
X53303855Y-52471429D02*
X52503855Y-52471429D01*
X52503855Y-52471429D02*
X53303855Y-52928572D01*
X53303855Y-52928572D02*
X52503855Y-52928572D01*
X53303855Y-53309524D02*
X52503855Y-53309524D01*
X52503855Y-53309524D02*
X52503855Y-53500000D01*
X52503855Y-53500000D02*
X52541950Y-53614286D01*
X52541950Y-53614286D02*
X52618140Y-53690476D01*
X52618140Y-53690476D02*
X52694331Y-53728571D01*
X52694331Y-53728571D02*
X52846712Y-53766667D01*
X52846712Y-53766667D02*
X52960998Y-53766667D01*
X52960998Y-53766667D02*
X53113379Y-53728571D01*
X53113379Y-53728571D02*
X53189569Y-53690476D01*
X53189569Y-53690476D02*
X53265760Y-53614286D01*
X53265760Y-53614286D02*
X53303855Y-53500000D01*
X53303855Y-53500000D02*
X53303855Y-53309524D01*
X52541950Y-84690476D02*
X52503855Y-84614286D01*
X52503855Y-84614286D02*
X52503855Y-84500000D01*
X52503855Y-84500000D02*
X52541950Y-84385714D01*
X52541950Y-84385714D02*
X52618140Y-84309524D01*
X52618140Y-84309524D02*
X52694331Y-84271429D01*
X52694331Y-84271429D02*
X52846712Y-84233333D01*
X52846712Y-84233333D02*
X52960998Y-84233333D01*
X52960998Y-84233333D02*
X53113379Y-84271429D01*
X53113379Y-84271429D02*
X53189569Y-84309524D01*
X53189569Y-84309524D02*
X53265760Y-84385714D01*
X53265760Y-84385714D02*
X53303855Y-84500000D01*
X53303855Y-84500000D02*
X53303855Y-84576191D01*
X53303855Y-84576191D02*
X53265760Y-84690476D01*
X53265760Y-84690476D02*
X53227664Y-84728572D01*
X53227664Y-84728572D02*
X52960998Y-84728572D01*
X52960998Y-84728572D02*
X52960998Y-84576191D01*
X53303855Y-85071429D02*
X52503855Y-85071429D01*
X52503855Y-85071429D02*
X53303855Y-85528572D01*
X53303855Y-85528572D02*
X52503855Y-85528572D01*
X53303855Y-85909524D02*
X52503855Y-85909524D01*
X52503855Y-85909524D02*
X52503855Y-86100000D01*
X52503855Y-86100000D02*
X52541950Y-86214286D01*
X52541950Y-86214286D02*
X52618140Y-86290476D01*
X52618140Y-86290476D02*
X52694331Y-86328571D01*
X52694331Y-86328571D02*
X52846712Y-86366667D01*
X52846712Y-86366667D02*
X52960998Y-86366667D01*
X52960998Y-86366667D02*
X53113379Y-86328571D01*
X53113379Y-86328571D02*
X53189569Y-86290476D01*
X53189569Y-86290476D02*
X53265760Y-86214286D01*
X53265760Y-86214286D02*
X53303855Y-86100000D01*
X53303855Y-86100000D02*
X53303855Y-85909524D01*
X55843855Y-52547618D02*
X55843855Y-52090475D01*
X55843855Y-52319047D02*
X55043855Y-52319047D01*
X55043855Y-52319047D02*
X55158140Y-52242856D01*
X55158140Y-52242856D02*
X55234331Y-52166666D01*
X55234331Y-52166666D02*
X55272426Y-52090475D01*
X55043855Y-53271428D02*
X55043855Y-52890476D01*
X55043855Y-52890476D02*
X55424807Y-52852380D01*
X55424807Y-52852380D02*
X55386712Y-52890476D01*
X55386712Y-52890476D02*
X55348617Y-52966666D01*
X55348617Y-52966666D02*
X55348617Y-53157142D01*
X55348617Y-53157142D02*
X55386712Y-53233333D01*
X55386712Y-53233333D02*
X55424807Y-53271428D01*
X55424807Y-53271428D02*
X55500998Y-53309523D01*
X55500998Y-53309523D02*
X55691474Y-53309523D01*
X55691474Y-53309523D02*
X55767664Y-53271428D01*
X55767664Y-53271428D02*
X55805760Y-53233333D01*
X55805760Y-53233333D02*
X55843855Y-53157142D01*
X55843855Y-53157142D02*
X55843855Y-52966666D01*
X55843855Y-52966666D02*
X55805760Y-52890476D01*
X55805760Y-52890476D02*
X55767664Y-52852380D01*
X55843855Y-85147618D02*
X55843855Y-84690475D01*
X55843855Y-84919047D02*
X55043855Y-84919047D01*
X55043855Y-84919047D02*
X55158140Y-84842856D01*
X55158140Y-84842856D02*
X55234331Y-84766666D01*
X55234331Y-84766666D02*
X55272426Y-84690475D01*
X55043855Y-85414285D02*
X55043855Y-85909523D01*
X55043855Y-85909523D02*
X55348617Y-85642857D01*
X55348617Y-85642857D02*
X55348617Y-85757142D01*
X55348617Y-85757142D02*
X55386712Y-85833333D01*
X55386712Y-85833333D02*
X55424807Y-85871428D01*
X55424807Y-85871428D02*
X55500998Y-85909523D01*
X55500998Y-85909523D02*
X55691474Y-85909523D01*
X55691474Y-85909523D02*
X55767664Y-85871428D01*
X55767664Y-85871428D02*
X55805760Y-85833333D01*
X55805760Y-85833333D02*
X55843855Y-85757142D01*
X55843855Y-85757142D02*
X55843855Y-85528571D01*
X55843855Y-85528571D02*
X55805760Y-85452380D01*
X55805760Y-85452380D02*
X55767664Y-85414285D01*
X57660044Y-52471428D02*
X57621949Y-52509524D01*
X57621949Y-52509524D02*
X57583854Y-52585714D01*
X57583854Y-52585714D02*
X57583854Y-52776190D01*
X57583854Y-52776190D02*
X57621949Y-52852381D01*
X57621949Y-52852381D02*
X57660044Y-52890476D01*
X57660044Y-52890476D02*
X57736235Y-52928571D01*
X57736235Y-52928571D02*
X57812425Y-52928571D01*
X57812425Y-52928571D02*
X57926711Y-52890476D01*
X57926711Y-52890476D02*
X58383854Y-52433333D01*
X58383854Y-52433333D02*
X58383854Y-52928571D01*
X58383854Y-85147618D02*
X58383854Y-84690475D01*
X58383854Y-84919047D02*
X57583854Y-84919047D01*
X57583854Y-84919047D02*
X57698139Y-84842856D01*
X57698139Y-84842856D02*
X57774330Y-84766666D01*
X57774330Y-84766666D02*
X57812425Y-84690475D01*
X57660044Y-85452380D02*
X57621949Y-85490476D01*
X57621949Y-85490476D02*
X57583854Y-85566666D01*
X57583854Y-85566666D02*
X57583854Y-85757142D01*
X57583854Y-85757142D02*
X57621949Y-85833333D01*
X57621949Y-85833333D02*
X57660044Y-85871428D01*
X57660044Y-85871428D02*
X57736235Y-85909523D01*
X57736235Y-85909523D02*
X57812425Y-85909523D01*
X57812425Y-85909523D02*
X57926711Y-85871428D01*
X57926711Y-85871428D02*
X58383854Y-85414285D01*
X58383854Y-85414285D02*
X58383854Y-85909523D01*
X60390521Y-52852381D02*
X60923855Y-52852381D01*
X60085760Y-52661905D02*
X60657188Y-52471428D01*
X60657188Y-52471428D02*
X60657188Y-52966667D01*
X60923855Y-85147618D02*
X60923855Y-84690475D01*
X60923855Y-84919047D02*
X60123855Y-84919047D01*
X60123855Y-84919047D02*
X60238140Y-84842856D01*
X60238140Y-84842856D02*
X60314331Y-84766666D01*
X60314331Y-84766666D02*
X60352426Y-84690475D01*
X60390521Y-85833333D02*
X60923855Y-85833333D01*
X60085760Y-85642857D02*
X60657188Y-85452380D01*
X60657188Y-85452380D02*
X60657188Y-85947619D01*
X63463855Y-52547618D02*
X63463855Y-52090475D01*
X63463855Y-52319047D02*
X62663855Y-52319047D01*
X62663855Y-52319047D02*
X62778140Y-52242856D01*
X62778140Y-52242856D02*
X62854331Y-52166666D01*
X62854331Y-52166666D02*
X62892426Y-52090475D01*
X62663855Y-53233333D02*
X62663855Y-53080952D01*
X62663855Y-53080952D02*
X62701950Y-53004761D01*
X62701950Y-53004761D02*
X62740045Y-52966666D01*
X62740045Y-52966666D02*
X62854331Y-52890476D01*
X62854331Y-52890476D02*
X63006712Y-52852380D01*
X63006712Y-52852380D02*
X63311474Y-52852380D01*
X63311474Y-52852380D02*
X63387664Y-52890476D01*
X63387664Y-52890476D02*
X63425760Y-52928571D01*
X63425760Y-52928571D02*
X63463855Y-53004761D01*
X63463855Y-53004761D02*
X63463855Y-53157142D01*
X63463855Y-53157142D02*
X63425760Y-53233333D01*
X63425760Y-53233333D02*
X63387664Y-53271428D01*
X63387664Y-53271428D02*
X63311474Y-53309523D01*
X63311474Y-53309523D02*
X63120998Y-53309523D01*
X63120998Y-53309523D02*
X63044807Y-53271428D01*
X63044807Y-53271428D02*
X63006712Y-53233333D01*
X63006712Y-53233333D02*
X62968617Y-53157142D01*
X62968617Y-53157142D02*
X62968617Y-53004761D01*
X62968617Y-53004761D02*
X63006712Y-52928571D01*
X63006712Y-52928571D02*
X63044807Y-52890476D01*
X63044807Y-52890476D02*
X63120998Y-52852380D01*
X62740045Y-84690475D02*
X62701950Y-84728571D01*
X62701950Y-84728571D02*
X62663855Y-84804761D01*
X62663855Y-84804761D02*
X62663855Y-84995237D01*
X62663855Y-84995237D02*
X62701950Y-85071428D01*
X62701950Y-85071428D02*
X62740045Y-85109523D01*
X62740045Y-85109523D02*
X62816236Y-85147618D01*
X62816236Y-85147618D02*
X62892426Y-85147618D01*
X62892426Y-85147618D02*
X63006712Y-85109523D01*
X63006712Y-85109523D02*
X63463855Y-84652380D01*
X63463855Y-84652380D02*
X63463855Y-85147618D01*
X62663855Y-85414285D02*
X62663855Y-85947619D01*
X62663855Y-85947619D02*
X63463855Y-85604761D01*
X66003855Y-52547618D02*
X66003855Y-52090475D01*
X66003855Y-52319047D02*
X65203855Y-52319047D01*
X65203855Y-52319047D02*
X65318140Y-52242856D01*
X65318140Y-52242856D02*
X65394331Y-52166666D01*
X65394331Y-52166666D02*
X65432426Y-52090475D01*
X65203855Y-52814285D02*
X65203855Y-53347619D01*
X65203855Y-53347619D02*
X66003855Y-53004761D01*
X65280045Y-84690475D02*
X65241950Y-84728571D01*
X65241950Y-84728571D02*
X65203855Y-84804761D01*
X65203855Y-84804761D02*
X65203855Y-84995237D01*
X65203855Y-84995237D02*
X65241950Y-85071428D01*
X65241950Y-85071428D02*
X65280045Y-85109523D01*
X65280045Y-85109523D02*
X65356236Y-85147618D01*
X65356236Y-85147618D02*
X65432426Y-85147618D01*
X65432426Y-85147618D02*
X65546712Y-85109523D01*
X65546712Y-85109523D02*
X66003855Y-84652380D01*
X66003855Y-84652380D02*
X66003855Y-85147618D01*
X65203855Y-85833333D02*
X65203855Y-85680952D01*
X65203855Y-85680952D02*
X65241950Y-85604761D01*
X65241950Y-85604761D02*
X65280045Y-85566666D01*
X65280045Y-85566666D02*
X65394331Y-85490476D01*
X65394331Y-85490476D02*
X65546712Y-85452380D01*
X65546712Y-85452380D02*
X65851474Y-85452380D01*
X65851474Y-85452380D02*
X65927664Y-85490476D01*
X65927664Y-85490476D02*
X65965760Y-85528571D01*
X65965760Y-85528571D02*
X66003855Y-85604761D01*
X66003855Y-85604761D02*
X66003855Y-85757142D01*
X66003855Y-85757142D02*
X65965760Y-85833333D01*
X65965760Y-85833333D02*
X65927664Y-85871428D01*
X65927664Y-85871428D02*
X65851474Y-85909523D01*
X65851474Y-85909523D02*
X65660998Y-85909523D01*
X65660998Y-85909523D02*
X65584807Y-85871428D01*
X65584807Y-85871428D02*
X65546712Y-85833333D01*
X65546712Y-85833333D02*
X65508617Y-85757142D01*
X65508617Y-85757142D02*
X65508617Y-85604761D01*
X65508617Y-85604761D02*
X65546712Y-85528571D01*
X65546712Y-85528571D02*
X65584807Y-85490476D01*
X65584807Y-85490476D02*
X65660998Y-85452380D01*
X67743855Y-52890476D02*
X67743855Y-52509524D01*
X67743855Y-52509524D02*
X68124807Y-52471428D01*
X68124807Y-52471428D02*
X68086712Y-52509524D01*
X68086712Y-52509524D02*
X68048617Y-52585714D01*
X68048617Y-52585714D02*
X68048617Y-52776190D01*
X68048617Y-52776190D02*
X68086712Y-52852381D01*
X68086712Y-52852381D02*
X68124807Y-52890476D01*
X68124807Y-52890476D02*
X68200998Y-52928571D01*
X68200998Y-52928571D02*
X68391474Y-52928571D01*
X68391474Y-52928571D02*
X68467664Y-52890476D01*
X68467664Y-52890476D02*
X68505760Y-52852381D01*
X68505760Y-52852381D02*
X68543855Y-52776190D01*
X68543855Y-52776190D02*
X68543855Y-52585714D01*
X68543855Y-52585714D02*
X68505760Y-52509524D01*
X68505760Y-52509524D02*
X68467664Y-52471428D01*
X67820045Y-84690475D02*
X67781950Y-84728571D01*
X67781950Y-84728571D02*
X67743855Y-84804761D01*
X67743855Y-84804761D02*
X67743855Y-84995237D01*
X67743855Y-84995237D02*
X67781950Y-85071428D01*
X67781950Y-85071428D02*
X67820045Y-85109523D01*
X67820045Y-85109523D02*
X67896236Y-85147618D01*
X67896236Y-85147618D02*
X67972426Y-85147618D01*
X67972426Y-85147618D02*
X68086712Y-85109523D01*
X68086712Y-85109523D02*
X68543855Y-84652380D01*
X68543855Y-84652380D02*
X68543855Y-85147618D01*
X67743855Y-85871428D02*
X67743855Y-85490476D01*
X67743855Y-85490476D02*
X68124807Y-85452380D01*
X68124807Y-85452380D02*
X68086712Y-85490476D01*
X68086712Y-85490476D02*
X68048617Y-85566666D01*
X68048617Y-85566666D02*
X68048617Y-85757142D01*
X68048617Y-85757142D02*
X68086712Y-85833333D01*
X68086712Y-85833333D02*
X68124807Y-85871428D01*
X68124807Y-85871428D02*
X68200998Y-85909523D01*
X68200998Y-85909523D02*
X68391474Y-85909523D01*
X68391474Y-85909523D02*
X68467664Y-85871428D01*
X68467664Y-85871428D02*
X68505760Y-85833333D01*
X68505760Y-85833333D02*
X68543855Y-85757142D01*
X68543855Y-85757142D02*
X68543855Y-85566666D01*
X68543855Y-85566666D02*
X68505760Y-85490476D01*
X68505760Y-85490476D02*
X68467664Y-85452380D01*
X71083855Y-52547618D02*
X71083855Y-52090475D01*
X71083855Y-52319047D02*
X70283855Y-52319047D01*
X70283855Y-52319047D02*
X70398140Y-52242856D01*
X70398140Y-52242856D02*
X70474331Y-52166666D01*
X70474331Y-52166666D02*
X70512426Y-52090475D01*
X70626712Y-53004761D02*
X70588617Y-52928571D01*
X70588617Y-52928571D02*
X70550521Y-52890476D01*
X70550521Y-52890476D02*
X70474331Y-52852380D01*
X70474331Y-52852380D02*
X70436236Y-52852380D01*
X70436236Y-52852380D02*
X70360045Y-52890476D01*
X70360045Y-52890476D02*
X70321950Y-52928571D01*
X70321950Y-52928571D02*
X70283855Y-53004761D01*
X70283855Y-53004761D02*
X70283855Y-53157142D01*
X70283855Y-53157142D02*
X70321950Y-53233333D01*
X70321950Y-53233333D02*
X70360045Y-53271428D01*
X70360045Y-53271428D02*
X70436236Y-53309523D01*
X70436236Y-53309523D02*
X70474331Y-53309523D01*
X70474331Y-53309523D02*
X70550521Y-53271428D01*
X70550521Y-53271428D02*
X70588617Y-53233333D01*
X70588617Y-53233333D02*
X70626712Y-53157142D01*
X70626712Y-53157142D02*
X70626712Y-53004761D01*
X70626712Y-53004761D02*
X70664807Y-52928571D01*
X70664807Y-52928571D02*
X70702902Y-52890476D01*
X70702902Y-52890476D02*
X70779093Y-52852380D01*
X70779093Y-52852380D02*
X70931474Y-52852380D01*
X70931474Y-52852380D02*
X71007664Y-52890476D01*
X71007664Y-52890476D02*
X71045760Y-52928571D01*
X71045760Y-52928571D02*
X71083855Y-53004761D01*
X71083855Y-53004761D02*
X71083855Y-53157142D01*
X71083855Y-53157142D02*
X71045760Y-53233333D01*
X71045760Y-53233333D02*
X71007664Y-53271428D01*
X71007664Y-53271428D02*
X70931474Y-53309523D01*
X70931474Y-53309523D02*
X70779093Y-53309523D01*
X70779093Y-53309523D02*
X70702902Y-53271428D01*
X70702902Y-53271428D02*
X70664807Y-53233333D01*
X70664807Y-53233333D02*
X70626712Y-53157142D01*
X70283855Y-84652380D02*
X70283855Y-85147618D01*
X70283855Y-85147618D02*
X70588617Y-84880952D01*
X70588617Y-84880952D02*
X70588617Y-84995237D01*
X70588617Y-84995237D02*
X70626712Y-85071428D01*
X70626712Y-85071428D02*
X70664807Y-85109523D01*
X70664807Y-85109523D02*
X70740998Y-85147618D01*
X70740998Y-85147618D02*
X70931474Y-85147618D01*
X70931474Y-85147618D02*
X71007664Y-85109523D01*
X71007664Y-85109523D02*
X71045760Y-85071428D01*
X71045760Y-85071428D02*
X71083855Y-84995237D01*
X71083855Y-84995237D02*
X71083855Y-84766666D01*
X71083855Y-84766666D02*
X71045760Y-84690475D01*
X71045760Y-84690475D02*
X71007664Y-84652380D01*
X70283855Y-85414285D02*
X70283855Y-85909523D01*
X70283855Y-85909523D02*
X70588617Y-85642857D01*
X70588617Y-85642857D02*
X70588617Y-85757142D01*
X70588617Y-85757142D02*
X70626712Y-85833333D01*
X70626712Y-85833333D02*
X70664807Y-85871428D01*
X70664807Y-85871428D02*
X70740998Y-85909523D01*
X70740998Y-85909523D02*
X70931474Y-85909523D01*
X70931474Y-85909523D02*
X71007664Y-85871428D01*
X71007664Y-85871428D02*
X71045760Y-85833333D01*
X71045760Y-85833333D02*
X71083855Y-85757142D01*
X71083855Y-85757142D02*
X71083855Y-85528571D01*
X71083855Y-85528571D02*
X71045760Y-85452380D01*
X71045760Y-85452380D02*
X71007664Y-85414285D01*
X73623855Y-52547618D02*
X73623855Y-52090475D01*
X73623855Y-52319047D02*
X72823855Y-52319047D01*
X72823855Y-52319047D02*
X72938140Y-52242856D01*
X72938140Y-52242856D02*
X73014331Y-52166666D01*
X73014331Y-52166666D02*
X73052426Y-52090475D01*
X73623855Y-52928571D02*
X73623855Y-53080952D01*
X73623855Y-53080952D02*
X73585760Y-53157142D01*
X73585760Y-53157142D02*
X73547664Y-53195238D01*
X73547664Y-53195238D02*
X73433379Y-53271428D01*
X73433379Y-53271428D02*
X73280998Y-53309523D01*
X73280998Y-53309523D02*
X72976236Y-53309523D01*
X72976236Y-53309523D02*
X72900045Y-53271428D01*
X72900045Y-53271428D02*
X72861950Y-53233333D01*
X72861950Y-53233333D02*
X72823855Y-53157142D01*
X72823855Y-53157142D02*
X72823855Y-53004761D01*
X72823855Y-53004761D02*
X72861950Y-52928571D01*
X72861950Y-52928571D02*
X72900045Y-52890476D01*
X72900045Y-52890476D02*
X72976236Y-52852380D01*
X72976236Y-52852380D02*
X73166712Y-52852380D01*
X73166712Y-52852380D02*
X73242902Y-52890476D01*
X73242902Y-52890476D02*
X73280998Y-52928571D01*
X73280998Y-52928571D02*
X73319093Y-53004761D01*
X73319093Y-53004761D02*
X73319093Y-53157142D01*
X73319093Y-53157142D02*
X73280998Y-53233333D01*
X73280998Y-53233333D02*
X73242902Y-53271428D01*
X73242902Y-53271428D02*
X73166712Y-53309523D01*
X72823855Y-84652380D02*
X72823855Y-85147618D01*
X72823855Y-85147618D02*
X73128617Y-84880952D01*
X73128617Y-84880952D02*
X73128617Y-84995237D01*
X73128617Y-84995237D02*
X73166712Y-85071428D01*
X73166712Y-85071428D02*
X73204807Y-85109523D01*
X73204807Y-85109523D02*
X73280998Y-85147618D01*
X73280998Y-85147618D02*
X73471474Y-85147618D01*
X73471474Y-85147618D02*
X73547664Y-85109523D01*
X73547664Y-85109523D02*
X73585760Y-85071428D01*
X73585760Y-85071428D02*
X73623855Y-84995237D01*
X73623855Y-84995237D02*
X73623855Y-84766666D01*
X73623855Y-84766666D02*
X73585760Y-84690475D01*
X73585760Y-84690475D02*
X73547664Y-84652380D01*
X72900045Y-85452380D02*
X72861950Y-85490476D01*
X72861950Y-85490476D02*
X72823855Y-85566666D01*
X72823855Y-85566666D02*
X72823855Y-85757142D01*
X72823855Y-85757142D02*
X72861950Y-85833333D01*
X72861950Y-85833333D02*
X72900045Y-85871428D01*
X72900045Y-85871428D02*
X72976236Y-85909523D01*
X72976236Y-85909523D02*
X73052426Y-85909523D01*
X73052426Y-85909523D02*
X73166712Y-85871428D01*
X73166712Y-85871428D02*
X73623855Y-85414285D01*
X73623855Y-85414285D02*
X73623855Y-85909523D01*
X75440045Y-52090475D02*
X75401950Y-52128571D01*
X75401950Y-52128571D02*
X75363855Y-52204761D01*
X75363855Y-52204761D02*
X75363855Y-52395237D01*
X75363855Y-52395237D02*
X75401950Y-52471428D01*
X75401950Y-52471428D02*
X75440045Y-52509523D01*
X75440045Y-52509523D02*
X75516236Y-52547618D01*
X75516236Y-52547618D02*
X75592426Y-52547618D01*
X75592426Y-52547618D02*
X75706712Y-52509523D01*
X75706712Y-52509523D02*
X76163855Y-52052380D01*
X76163855Y-52052380D02*
X76163855Y-52547618D01*
X76163855Y-53309523D02*
X76163855Y-52852380D01*
X76163855Y-53080952D02*
X75363855Y-53080952D01*
X75363855Y-53080952D02*
X75478140Y-53004761D01*
X75478140Y-53004761D02*
X75554331Y-52928571D01*
X75554331Y-52928571D02*
X75592426Y-52852380D01*
X75363855Y-84652380D02*
X75363855Y-85147618D01*
X75363855Y-85147618D02*
X75668617Y-84880952D01*
X75668617Y-84880952D02*
X75668617Y-84995237D01*
X75668617Y-84995237D02*
X75706712Y-85071428D01*
X75706712Y-85071428D02*
X75744807Y-85109523D01*
X75744807Y-85109523D02*
X75820998Y-85147618D01*
X75820998Y-85147618D02*
X76011474Y-85147618D01*
X76011474Y-85147618D02*
X76087664Y-85109523D01*
X76087664Y-85109523D02*
X76125760Y-85071428D01*
X76125760Y-85071428D02*
X76163855Y-84995237D01*
X76163855Y-84995237D02*
X76163855Y-84766666D01*
X76163855Y-84766666D02*
X76125760Y-84690475D01*
X76125760Y-84690475D02*
X76087664Y-84652380D01*
X75363855Y-85871428D02*
X75363855Y-85490476D01*
X75363855Y-85490476D02*
X75744807Y-85452380D01*
X75744807Y-85452380D02*
X75706712Y-85490476D01*
X75706712Y-85490476D02*
X75668617Y-85566666D01*
X75668617Y-85566666D02*
X75668617Y-85757142D01*
X75668617Y-85757142D02*
X75706712Y-85833333D01*
X75706712Y-85833333D02*
X75744807Y-85871428D01*
X75744807Y-85871428D02*
X75820998Y-85909523D01*
X75820998Y-85909523D02*
X76011474Y-85909523D01*
X76011474Y-85909523D02*
X76087664Y-85871428D01*
X76087664Y-85871428D02*
X76125760Y-85833333D01*
X76125760Y-85833333D02*
X76163855Y-85757142D01*
X76163855Y-85757142D02*
X76163855Y-85566666D01*
X76163855Y-85566666D02*
X76125760Y-85490476D01*
X76125760Y-85490476D02*
X76087664Y-85452380D01*
X78703855Y-52566667D02*
X78322902Y-52300000D01*
X78703855Y-52109524D02*
X77903855Y-52109524D01*
X77903855Y-52109524D02*
X77903855Y-52414286D01*
X77903855Y-52414286D02*
X77941950Y-52490476D01*
X77941950Y-52490476D02*
X77980045Y-52528571D01*
X77980045Y-52528571D02*
X78056236Y-52566667D01*
X78056236Y-52566667D02*
X78170521Y-52566667D01*
X78170521Y-52566667D02*
X78246712Y-52528571D01*
X78246712Y-52528571D02*
X78284807Y-52490476D01*
X78284807Y-52490476D02*
X78322902Y-52414286D01*
X78322902Y-52414286D02*
X78322902Y-52109524D01*
X77903855Y-52833333D02*
X78703855Y-53366667D01*
X77903855Y-53366667D02*
X78703855Y-52833333D01*
X77903855Y-84652380D02*
X77903855Y-85147618D01*
X77903855Y-85147618D02*
X78208617Y-84880952D01*
X78208617Y-84880952D02*
X78208617Y-84995237D01*
X78208617Y-84995237D02*
X78246712Y-85071428D01*
X78246712Y-85071428D02*
X78284807Y-85109523D01*
X78284807Y-85109523D02*
X78360998Y-85147618D01*
X78360998Y-85147618D02*
X78551474Y-85147618D01*
X78551474Y-85147618D02*
X78627664Y-85109523D01*
X78627664Y-85109523D02*
X78665760Y-85071428D01*
X78665760Y-85071428D02*
X78703855Y-84995237D01*
X78703855Y-84995237D02*
X78703855Y-84766666D01*
X78703855Y-84766666D02*
X78665760Y-84690475D01*
X78665760Y-84690475D02*
X78627664Y-84652380D01*
X78170521Y-85833333D02*
X78703855Y-85833333D01*
X77865760Y-85642857D02*
X78437188Y-85452380D01*
X78437188Y-85452380D02*
X78437188Y-85947619D01*
X80443855Y-52090476D02*
X80443855Y-52547619D01*
X81243855Y-52319047D02*
X80443855Y-52319047D01*
X80443855Y-52738095D02*
X81243855Y-53271429D01*
X80443855Y-53271429D02*
X81243855Y-52738095D01*
X80443855Y-84614286D02*
X81243855Y-84880953D01*
X81243855Y-84880953D02*
X80443855Y-85147619D01*
X81243855Y-85414286D02*
X80443855Y-85414286D01*
X80443855Y-85414286D02*
X81243855Y-85871429D01*
X81243855Y-85871429D02*
X80443855Y-85871429D01*
X83060045Y-52090475D02*
X83021950Y-52128571D01*
X83021950Y-52128571D02*
X82983855Y-52204761D01*
X82983855Y-52204761D02*
X82983855Y-52395237D01*
X82983855Y-52395237D02*
X83021950Y-52471428D01*
X83021950Y-52471428D02*
X83060045Y-52509523D01*
X83060045Y-52509523D02*
X83136236Y-52547618D01*
X83136236Y-52547618D02*
X83212426Y-52547618D01*
X83212426Y-52547618D02*
X83326712Y-52509523D01*
X83326712Y-52509523D02*
X83783855Y-52052380D01*
X83783855Y-52052380D02*
X83783855Y-52547618D01*
X83060045Y-52852380D02*
X83021950Y-52890476D01*
X83021950Y-52890476D02*
X82983855Y-52966666D01*
X82983855Y-52966666D02*
X82983855Y-53157142D01*
X82983855Y-53157142D02*
X83021950Y-53233333D01*
X83021950Y-53233333D02*
X83060045Y-53271428D01*
X83060045Y-53271428D02*
X83136236Y-53309523D01*
X83136236Y-53309523D02*
X83212426Y-53309523D01*
X83212426Y-53309523D02*
X83326712Y-53271428D01*
X83326712Y-53271428D02*
X83783855Y-52814285D01*
X83783855Y-52814285D02*
X83783855Y-53309523D01*
X82983855Y-84633333D02*
X83783855Y-84900000D01*
X83783855Y-84900000D02*
X82983855Y-85166666D01*
X83783855Y-85433333D02*
X82983855Y-85433333D01*
X82983855Y-85433333D02*
X82983855Y-85738095D01*
X82983855Y-85738095D02*
X83021950Y-85814285D01*
X83021950Y-85814285D02*
X83060045Y-85852380D01*
X83060045Y-85852380D02*
X83136236Y-85890476D01*
X83136236Y-85890476D02*
X83250521Y-85890476D01*
X83250521Y-85890476D02*
X83326712Y-85852380D01*
X83326712Y-85852380D02*
X83364807Y-85814285D01*
X83364807Y-85814285D02*
X83402902Y-85738095D01*
X83402902Y-85738095D02*
X83402902Y-85433333D01*
X85600045Y-52090475D02*
X85561950Y-52128571D01*
X85561950Y-52128571D02*
X85523855Y-52204761D01*
X85523855Y-52204761D02*
X85523855Y-52395237D01*
X85523855Y-52395237D02*
X85561950Y-52471428D01*
X85561950Y-52471428D02*
X85600045Y-52509523D01*
X85600045Y-52509523D02*
X85676236Y-52547618D01*
X85676236Y-52547618D02*
X85752426Y-52547618D01*
X85752426Y-52547618D02*
X85866712Y-52509523D01*
X85866712Y-52509523D02*
X86323855Y-52052380D01*
X86323855Y-52052380D02*
X86323855Y-52547618D01*
X85523855Y-52814285D02*
X85523855Y-53309523D01*
X85523855Y-53309523D02*
X85828617Y-53042857D01*
X85828617Y-53042857D02*
X85828617Y-53157142D01*
X85828617Y-53157142D02*
X85866712Y-53233333D01*
X85866712Y-53233333D02*
X85904807Y-53271428D01*
X85904807Y-53271428D02*
X85980998Y-53309523D01*
X85980998Y-53309523D02*
X86171474Y-53309523D01*
X86171474Y-53309523D02*
X86247664Y-53271428D01*
X86247664Y-53271428D02*
X86285760Y-53233333D01*
X86285760Y-53233333D02*
X86323855Y-53157142D01*
X86323855Y-53157142D02*
X86323855Y-52928571D01*
X86323855Y-52928571D02*
X86285760Y-52852380D01*
X86285760Y-52852380D02*
X86247664Y-52814285D01*
X85904807Y-84709524D02*
X85904807Y-84976190D01*
X86323855Y-85090476D02*
X86323855Y-84709524D01*
X86323855Y-84709524D02*
X85523855Y-84709524D01*
X85523855Y-84709524D02*
X85523855Y-85090476D01*
X86323855Y-85433334D02*
X85523855Y-85433334D01*
X85523855Y-85433334D02*
X86323855Y-85890477D01*
X86323855Y-85890477D02*
X85523855Y-85890477D01*
D12*
X104485714Y-42152194D02*
X104057143Y-42152194D01*
X104571428Y-42409337D02*
X104271428Y-41509337D01*
X104271428Y-41509337D02*
X103971428Y-42409337D01*
X103671428Y-42409337D02*
X103671428Y-41509337D01*
X103671428Y-41852194D02*
X103585714Y-41809337D01*
X103585714Y-41809337D02*
X103414285Y-41809337D01*
X103414285Y-41809337D02*
X103328571Y-41852194D01*
X103328571Y-41852194D02*
X103285714Y-41895051D01*
X103285714Y-41895051D02*
X103242856Y-41980765D01*
X103242856Y-41980765D02*
X103242856Y-42237908D01*
X103242856Y-42237908D02*
X103285714Y-42323622D01*
X103285714Y-42323622D02*
X103328571Y-42366480D01*
X103328571Y-42366480D02*
X103414285Y-42409337D01*
X103414285Y-42409337D02*
X103585714Y-42409337D01*
X103585714Y-42409337D02*
X103671428Y-42366480D01*
X102899999Y-42366480D02*
X102814285Y-42409337D01*
X102814285Y-42409337D02*
X102642856Y-42409337D01*
X102642856Y-42409337D02*
X102557142Y-42366480D01*
X102557142Y-42366480D02*
X102514285Y-42280765D01*
X102514285Y-42280765D02*
X102514285Y-42237908D01*
X102514285Y-42237908D02*
X102557142Y-42152194D01*
X102557142Y-42152194D02*
X102642856Y-42109337D01*
X102642856Y-42109337D02*
X102771428Y-42109337D01*
X102771428Y-42109337D02*
X102857142Y-42066480D01*
X102857142Y-42066480D02*
X102899999Y-41980765D01*
X102899999Y-41980765D02*
X102899999Y-41937908D01*
X102899999Y-41937908D02*
X102857142Y-41852194D01*
X102857142Y-41852194D02*
X102771428Y-41809337D01*
X102771428Y-41809337D02*
X102642856Y-41809337D01*
X102642856Y-41809337D02*
X102557142Y-41852194D01*
X101785714Y-42366480D02*
X101871428Y-42409337D01*
X101871428Y-42409337D02*
X102042857Y-42409337D01*
X102042857Y-42409337D02*
X102128571Y-42366480D01*
X102128571Y-42366480D02*
X102171428Y-42280765D01*
X102171428Y-42280765D02*
X102171428Y-41937908D01*
X102171428Y-41937908D02*
X102128571Y-41852194D01*
X102128571Y-41852194D02*
X102042857Y-41809337D01*
X102042857Y-41809337D02*
X101871428Y-41809337D01*
X101871428Y-41809337D02*
X101785714Y-41852194D01*
X101785714Y-41852194D02*
X101742857Y-41937908D01*
X101742857Y-41937908D02*
X101742857Y-42023622D01*
X101742857Y-42023622D02*
X102171428Y-42109337D01*
X101357142Y-41809337D02*
X101357142Y-42409337D01*
X101357142Y-41895051D02*
X101314285Y-41852194D01*
X101314285Y-41852194D02*
X101228570Y-41809337D01*
X101228570Y-41809337D02*
X101099999Y-41809337D01*
X101099999Y-41809337D02*
X101014285Y-41852194D01*
X101014285Y-41852194D02*
X100971428Y-41937908D01*
X100971428Y-41937908D02*
X100971428Y-42409337D01*
X100585713Y-42366480D02*
X100499999Y-42409337D01*
X100499999Y-42409337D02*
X100328570Y-42409337D01*
X100328570Y-42409337D02*
X100242856Y-42366480D01*
X100242856Y-42366480D02*
X100199999Y-42280765D01*
X100199999Y-42280765D02*
X100199999Y-42237908D01*
X100199999Y-42237908D02*
X100242856Y-42152194D01*
X100242856Y-42152194D02*
X100328570Y-42109337D01*
X100328570Y-42109337D02*
X100457142Y-42109337D01*
X100457142Y-42109337D02*
X100542856Y-42066480D01*
X100542856Y-42066480D02*
X100585713Y-41980765D01*
X100585713Y-41980765D02*
X100585713Y-41937908D01*
X100585713Y-41937908D02*
X100542856Y-41852194D01*
X100542856Y-41852194D02*
X100457142Y-41809337D01*
X100457142Y-41809337D02*
X100328570Y-41809337D01*
X100328570Y-41809337D02*
X100242856Y-41852194D01*
X99814285Y-42409337D02*
X99814285Y-41809337D01*
X99814285Y-41509337D02*
X99857142Y-41552194D01*
X99857142Y-41552194D02*
X99814285Y-41595051D01*
X99814285Y-41595051D02*
X99771428Y-41552194D01*
X99771428Y-41552194D02*
X99814285Y-41509337D01*
X99814285Y-41509337D02*
X99814285Y-41595051D01*
X98185714Y-42409337D02*
X98485714Y-41980765D01*
X98700000Y-42409337D02*
X98700000Y-41509337D01*
X98700000Y-41509337D02*
X98357143Y-41509337D01*
X98357143Y-41509337D02*
X98271428Y-41552194D01*
X98271428Y-41552194D02*
X98228571Y-41595051D01*
X98228571Y-41595051D02*
X98185714Y-41680765D01*
X98185714Y-41680765D02*
X98185714Y-41809337D01*
X98185714Y-41809337D02*
X98228571Y-41895051D01*
X98228571Y-41895051D02*
X98271428Y-41937908D01*
X98271428Y-41937908D02*
X98357143Y-41980765D01*
X98357143Y-41980765D02*
X98700000Y-41980765D01*
X97500000Y-41937908D02*
X97800000Y-41937908D01*
X97800000Y-42409337D02*
X97800000Y-41509337D01*
X97800000Y-41509337D02*
X97371428Y-41509337D01*
X97028571Y-42409337D02*
X97028571Y-41509337D01*
X96600000Y-42409337D02*
X96600000Y-41509337D01*
X96600000Y-41509337D02*
X96385714Y-41509337D01*
X96385714Y-41509337D02*
X96257143Y-41552194D01*
X96257143Y-41552194D02*
X96171428Y-41637908D01*
X96171428Y-41637908D02*
X96128571Y-41723622D01*
X96128571Y-41723622D02*
X96085714Y-41895051D01*
X96085714Y-41895051D02*
X96085714Y-42023622D01*
X96085714Y-42023622D02*
X96128571Y-42195051D01*
X96128571Y-42195051D02*
X96171428Y-42280765D01*
X96171428Y-42280765D02*
X96257143Y-42366480D01*
X96257143Y-42366480D02*
X96385714Y-42409337D01*
X96385714Y-42409337D02*
X96600000Y-42409337D01*
X95142857Y-41509337D02*
X94628572Y-41509337D01*
X94885714Y-42409337D02*
X94885714Y-41509337D01*
X93985715Y-42366480D02*
X94071429Y-42409337D01*
X94071429Y-42409337D02*
X94242858Y-42409337D01*
X94242858Y-42409337D02*
X94328572Y-42366480D01*
X94328572Y-42366480D02*
X94371429Y-42280765D01*
X94371429Y-42280765D02*
X94371429Y-41937908D01*
X94371429Y-41937908D02*
X94328572Y-41852194D01*
X94328572Y-41852194D02*
X94242858Y-41809337D01*
X94242858Y-41809337D02*
X94071429Y-41809337D01*
X94071429Y-41809337D02*
X93985715Y-41852194D01*
X93985715Y-41852194D02*
X93942858Y-41937908D01*
X93942858Y-41937908D02*
X93942858Y-42023622D01*
X93942858Y-42023622D02*
X94371429Y-42109337D01*
X93557143Y-42409337D02*
X93557143Y-41809337D01*
X93557143Y-41980765D02*
X93514286Y-41895051D01*
X93514286Y-41895051D02*
X93471429Y-41852194D01*
X93471429Y-41852194D02*
X93385714Y-41809337D01*
X93385714Y-41809337D02*
X93300000Y-41809337D01*
X93000000Y-42409337D02*
X93000000Y-41809337D01*
X93000000Y-41509337D02*
X93042857Y-41552194D01*
X93042857Y-41552194D02*
X93000000Y-41595051D01*
X93000000Y-41595051D02*
X92957143Y-41552194D01*
X92957143Y-41552194D02*
X93000000Y-41509337D01*
X93000000Y-41509337D02*
X93000000Y-41595051D01*
X92571429Y-41809337D02*
X92571429Y-42409337D01*
X92571429Y-41895051D02*
X92528572Y-41852194D01*
X92528572Y-41852194D02*
X92442857Y-41809337D01*
X92442857Y-41809337D02*
X92314286Y-41809337D01*
X92314286Y-41809337D02*
X92228572Y-41852194D01*
X92228572Y-41852194D02*
X92185715Y-41937908D01*
X92185715Y-41937908D02*
X92185715Y-42409337D01*
X91885714Y-41809337D02*
X91542857Y-41809337D01*
X91757143Y-41509337D02*
X91757143Y-42280765D01*
X91757143Y-42280765D02*
X91714286Y-42366480D01*
X91714286Y-42366480D02*
X91628571Y-42409337D01*
X91628571Y-42409337D02*
X91542857Y-42409337D01*
X90900000Y-42366480D02*
X90985714Y-42409337D01*
X90985714Y-42409337D02*
X91157143Y-42409337D01*
X91157143Y-42409337D02*
X91242857Y-42366480D01*
X91242857Y-42366480D02*
X91285714Y-42280765D01*
X91285714Y-42280765D02*
X91285714Y-41937908D01*
X91285714Y-41937908D02*
X91242857Y-41852194D01*
X91242857Y-41852194D02*
X91157143Y-41809337D01*
X91157143Y-41809337D02*
X90985714Y-41809337D01*
X90985714Y-41809337D02*
X90900000Y-41852194D01*
X90900000Y-41852194D02*
X90857143Y-41937908D01*
X90857143Y-41937908D02*
X90857143Y-42023622D01*
X90857143Y-42023622D02*
X91285714Y-42109337D01*
X90085714Y-41809337D02*
X90085714Y-42537908D01*
X90085714Y-42537908D02*
X90128571Y-42623622D01*
X90128571Y-42623622D02*
X90171428Y-42666480D01*
X90171428Y-42666480D02*
X90257142Y-42709337D01*
X90257142Y-42709337D02*
X90385714Y-42709337D01*
X90385714Y-42709337D02*
X90471428Y-42666480D01*
X90085714Y-42366480D02*
X90171428Y-42409337D01*
X90171428Y-42409337D02*
X90342856Y-42409337D01*
X90342856Y-42409337D02*
X90428571Y-42366480D01*
X90428571Y-42366480D02*
X90471428Y-42323622D01*
X90471428Y-42323622D02*
X90514285Y-42237908D01*
X90514285Y-42237908D02*
X90514285Y-41980765D01*
X90514285Y-41980765D02*
X90471428Y-41895051D01*
X90471428Y-41895051D02*
X90428571Y-41852194D01*
X90428571Y-41852194D02*
X90342856Y-41809337D01*
X90342856Y-41809337D02*
X90171428Y-41809337D01*
X90171428Y-41809337D02*
X90085714Y-41852194D01*
X89657142Y-42409337D02*
X89657142Y-41809337D01*
X89657142Y-41980765D02*
X89614285Y-41895051D01*
X89614285Y-41895051D02*
X89571428Y-41852194D01*
X89571428Y-41852194D02*
X89485713Y-41809337D01*
X89485713Y-41809337D02*
X89399999Y-41809337D01*
X88714285Y-42409337D02*
X88714285Y-41937908D01*
X88714285Y-41937908D02*
X88757142Y-41852194D01*
X88757142Y-41852194D02*
X88842856Y-41809337D01*
X88842856Y-41809337D02*
X89014285Y-41809337D01*
X89014285Y-41809337D02*
X89099999Y-41852194D01*
X88714285Y-42366480D02*
X88799999Y-42409337D01*
X88799999Y-42409337D02*
X89014285Y-42409337D01*
X89014285Y-42409337D02*
X89099999Y-42366480D01*
X89099999Y-42366480D02*
X89142856Y-42280765D01*
X89142856Y-42280765D02*
X89142856Y-42195051D01*
X89142856Y-42195051D02*
X89099999Y-42109337D01*
X89099999Y-42109337D02*
X89014285Y-42066480D01*
X89014285Y-42066480D02*
X88799999Y-42066480D01*
X88799999Y-42066480D02*
X88714285Y-42023622D01*
X88328570Y-42366480D02*
X88242856Y-42409337D01*
X88242856Y-42409337D02*
X88071427Y-42409337D01*
X88071427Y-42409337D02*
X87985713Y-42366480D01*
X87985713Y-42366480D02*
X87942856Y-42280765D01*
X87942856Y-42280765D02*
X87942856Y-42237908D01*
X87942856Y-42237908D02*
X87985713Y-42152194D01*
X87985713Y-42152194D02*
X88071427Y-42109337D01*
X88071427Y-42109337D02*
X88199999Y-42109337D01*
X88199999Y-42109337D02*
X88285713Y-42066480D01*
X88285713Y-42066480D02*
X88328570Y-41980765D01*
X88328570Y-41980765D02*
X88328570Y-41937908D01*
X88328570Y-41937908D02*
X88285713Y-41852194D01*
X88285713Y-41852194D02*
X88199999Y-41809337D01*
X88199999Y-41809337D02*
X88071427Y-41809337D01*
X88071427Y-41809337D02*
X87985713Y-41852194D01*
X87557142Y-42409337D02*
X87557142Y-41809337D01*
X87557142Y-41509337D02*
X87599999Y-41552194D01*
X87599999Y-41552194D02*
X87557142Y-41595051D01*
X87557142Y-41595051D02*
X87514285Y-41552194D01*
X87514285Y-41552194D02*
X87557142Y-41509337D01*
X87557142Y-41509337D02*
X87557142Y-41595051D01*
X86528571Y-41809337D02*
X86314285Y-42409337D01*
X86314285Y-42409337D02*
X86100000Y-41809337D01*
X85285714Y-42409337D02*
X85800000Y-42409337D01*
X85542857Y-42409337D02*
X85542857Y-41509337D01*
X85542857Y-41509337D02*
X85628571Y-41637908D01*
X85628571Y-41637908D02*
X85714286Y-41723622D01*
X85714286Y-41723622D02*
X85800000Y-41766480D01*
X84900000Y-42323622D02*
X84857143Y-42366480D01*
X84857143Y-42366480D02*
X84900000Y-42409337D01*
X84900000Y-42409337D02*
X84942857Y-42366480D01*
X84942857Y-42366480D02*
X84900000Y-42323622D01*
X84900000Y-42323622D02*
X84900000Y-42409337D01*
X84300000Y-41509337D02*
X84214286Y-41509337D01*
X84214286Y-41509337D02*
X84128572Y-41552194D01*
X84128572Y-41552194D02*
X84085715Y-41595051D01*
X84085715Y-41595051D02*
X84042857Y-41680765D01*
X84042857Y-41680765D02*
X84000000Y-41852194D01*
X84000000Y-41852194D02*
X84000000Y-42066480D01*
X84000000Y-42066480D02*
X84042857Y-42237908D01*
X84042857Y-42237908D02*
X84085715Y-42323622D01*
X84085715Y-42323622D02*
X84128572Y-42366480D01*
X84128572Y-42366480D02*
X84214286Y-42409337D01*
X84214286Y-42409337D02*
X84300000Y-42409337D01*
X84300000Y-42409337D02*
X84385715Y-42366480D01*
X84385715Y-42366480D02*
X84428572Y-42323622D01*
X84428572Y-42323622D02*
X84471429Y-42237908D01*
X84471429Y-42237908D02*
X84514286Y-42066480D01*
X84514286Y-42066480D02*
X84514286Y-41852194D01*
X84514286Y-41852194D02*
X84471429Y-41680765D01*
X84471429Y-41680765D02*
X84428572Y-41595051D01*
X84428572Y-41595051D02*
X84385715Y-41552194D01*
X84385715Y-41552194D02*
X84300000Y-41509337D01*
X82714286Y-42709337D02*
X82714286Y-41423622D01*
X81428572Y-41595051D02*
X81385715Y-41552194D01*
X81385715Y-41552194D02*
X81300001Y-41509337D01*
X81300001Y-41509337D02*
X81085715Y-41509337D01*
X81085715Y-41509337D02*
X81000001Y-41552194D01*
X81000001Y-41552194D02*
X80957143Y-41595051D01*
X80957143Y-41595051D02*
X80914286Y-41680765D01*
X80914286Y-41680765D02*
X80914286Y-41766480D01*
X80914286Y-41766480D02*
X80957143Y-41895051D01*
X80957143Y-41895051D02*
X81471429Y-42409337D01*
X81471429Y-42409337D02*
X80914286Y-42409337D01*
X80357143Y-41509337D02*
X80271429Y-41509337D01*
X80271429Y-41509337D02*
X80185715Y-41552194D01*
X80185715Y-41552194D02*
X80142858Y-41595051D01*
X80142858Y-41595051D02*
X80100000Y-41680765D01*
X80100000Y-41680765D02*
X80057143Y-41852194D01*
X80057143Y-41852194D02*
X80057143Y-42066480D01*
X80057143Y-42066480D02*
X80100000Y-42237908D01*
X80100000Y-42237908D02*
X80142858Y-42323622D01*
X80142858Y-42323622D02*
X80185715Y-42366480D01*
X80185715Y-42366480D02*
X80271429Y-42409337D01*
X80271429Y-42409337D02*
X80357143Y-42409337D01*
X80357143Y-42409337D02*
X80442858Y-42366480D01*
X80442858Y-42366480D02*
X80485715Y-42323622D01*
X80485715Y-42323622D02*
X80528572Y-42237908D01*
X80528572Y-42237908D02*
X80571429Y-42066480D01*
X80571429Y-42066480D02*
X80571429Y-41852194D01*
X80571429Y-41852194D02*
X80528572Y-41680765D01*
X80528572Y-41680765D02*
X80485715Y-41595051D01*
X80485715Y-41595051D02*
X80442858Y-41552194D01*
X80442858Y-41552194D02*
X80357143Y-41509337D01*
X79714286Y-41595051D02*
X79671429Y-41552194D01*
X79671429Y-41552194D02*
X79585715Y-41509337D01*
X79585715Y-41509337D02*
X79371429Y-41509337D01*
X79371429Y-41509337D02*
X79285715Y-41552194D01*
X79285715Y-41552194D02*
X79242857Y-41595051D01*
X79242857Y-41595051D02*
X79200000Y-41680765D01*
X79200000Y-41680765D02*
X79200000Y-41766480D01*
X79200000Y-41766480D02*
X79242857Y-41895051D01*
X79242857Y-41895051D02*
X79757143Y-42409337D01*
X79757143Y-42409337D02*
X79200000Y-42409337D01*
X78428572Y-41509337D02*
X78600000Y-41509337D01*
X78600000Y-41509337D02*
X78685714Y-41552194D01*
X78685714Y-41552194D02*
X78728572Y-41595051D01*
X78728572Y-41595051D02*
X78814286Y-41723622D01*
X78814286Y-41723622D02*
X78857143Y-41895051D01*
X78857143Y-41895051D02*
X78857143Y-42237908D01*
X78857143Y-42237908D02*
X78814286Y-42323622D01*
X78814286Y-42323622D02*
X78771429Y-42366480D01*
X78771429Y-42366480D02*
X78685714Y-42409337D01*
X78685714Y-42409337D02*
X78514286Y-42409337D01*
X78514286Y-42409337D02*
X78428572Y-42366480D01*
X78428572Y-42366480D02*
X78385714Y-42323622D01*
X78385714Y-42323622D02*
X78342857Y-42237908D01*
X78342857Y-42237908D02*
X78342857Y-42023622D01*
X78342857Y-42023622D02*
X78385714Y-41937908D01*
X78385714Y-41937908D02*
X78428572Y-41895051D01*
X78428572Y-41895051D02*
X78514286Y-41852194D01*
X78514286Y-41852194D02*
X78685714Y-41852194D01*
X78685714Y-41852194D02*
X78771429Y-41895051D01*
X78771429Y-41895051D02*
X78814286Y-41937908D01*
X78814286Y-41937908D02*
X78857143Y-42023622D01*
X77957143Y-42066480D02*
X77271429Y-42066480D01*
X76371428Y-42409337D02*
X76885714Y-42409337D01*
X76628571Y-42409337D02*
X76628571Y-41509337D01*
X76628571Y-41509337D02*
X76714285Y-41637908D01*
X76714285Y-41637908D02*
X76800000Y-41723622D01*
X76800000Y-41723622D02*
X76885714Y-41766480D01*
X75814285Y-41509337D02*
X75728571Y-41509337D01*
X75728571Y-41509337D02*
X75642857Y-41552194D01*
X75642857Y-41552194D02*
X75600000Y-41595051D01*
X75600000Y-41595051D02*
X75557142Y-41680765D01*
X75557142Y-41680765D02*
X75514285Y-41852194D01*
X75514285Y-41852194D02*
X75514285Y-42066480D01*
X75514285Y-42066480D02*
X75557142Y-42237908D01*
X75557142Y-42237908D02*
X75600000Y-42323622D01*
X75600000Y-42323622D02*
X75642857Y-42366480D01*
X75642857Y-42366480D02*
X75728571Y-42409337D01*
X75728571Y-42409337D02*
X75814285Y-42409337D01*
X75814285Y-42409337D02*
X75900000Y-42366480D01*
X75900000Y-42366480D02*
X75942857Y-42323622D01*
X75942857Y-42323622D02*
X75985714Y-42237908D01*
X75985714Y-42237908D02*
X76028571Y-42066480D01*
X76028571Y-42066480D02*
X76028571Y-41852194D01*
X76028571Y-41852194D02*
X75985714Y-41680765D01*
X75985714Y-41680765D02*
X75942857Y-41595051D01*
X75942857Y-41595051D02*
X75900000Y-41552194D01*
X75900000Y-41552194D02*
X75814285Y-41509337D01*
D10*
X47657142Y-59931009D02*
X47514285Y-59978628D01*
X47514285Y-59978628D02*
X47466666Y-60026247D01*
X47466666Y-60026247D02*
X47419047Y-60121485D01*
X47419047Y-60121485D02*
X47419047Y-60264342D01*
X47419047Y-60264342D02*
X47466666Y-60359580D01*
X47466666Y-60359580D02*
X47514285Y-60407200D01*
X47514285Y-60407200D02*
X47609523Y-60454819D01*
X47609523Y-60454819D02*
X47990475Y-60454819D01*
X47990475Y-60454819D02*
X47990475Y-59454819D01*
X47990475Y-59454819D02*
X47657142Y-59454819D01*
X47657142Y-59454819D02*
X47561904Y-59502438D01*
X47561904Y-59502438D02*
X47514285Y-59550057D01*
X47514285Y-59550057D02*
X47466666Y-59645295D01*
X47466666Y-59645295D02*
X47466666Y-59740533D01*
X47466666Y-59740533D02*
X47514285Y-59835771D01*
X47514285Y-59835771D02*
X47561904Y-59883390D01*
X47561904Y-59883390D02*
X47657142Y-59931009D01*
X47657142Y-59931009D02*
X47990475Y-59931009D01*
X46799999Y-59454819D02*
X46609523Y-59454819D01*
X46609523Y-59454819D02*
X46514285Y-59502438D01*
X46514285Y-59502438D02*
X46419047Y-59597676D01*
X46419047Y-59597676D02*
X46371428Y-59788152D01*
X46371428Y-59788152D02*
X46371428Y-60121485D01*
X46371428Y-60121485D02*
X46419047Y-60311961D01*
X46419047Y-60311961D02*
X46514285Y-60407200D01*
X46514285Y-60407200D02*
X46609523Y-60454819D01*
X46609523Y-60454819D02*
X46799999Y-60454819D01*
X46799999Y-60454819D02*
X46895237Y-60407200D01*
X46895237Y-60407200D02*
X46990475Y-60311961D01*
X46990475Y-60311961D02*
X47038094Y-60121485D01*
X47038094Y-60121485D02*
X47038094Y-59788152D01*
X47038094Y-59788152D02*
X46990475Y-59597676D01*
X46990475Y-59597676D02*
X46895237Y-59502438D01*
X46895237Y-59502438D02*
X46799999Y-59454819D01*
X45752380Y-59454819D02*
X45561904Y-59454819D01*
X45561904Y-59454819D02*
X45466666Y-59502438D01*
X45466666Y-59502438D02*
X45371428Y-59597676D01*
X45371428Y-59597676D02*
X45323809Y-59788152D01*
X45323809Y-59788152D02*
X45323809Y-60121485D01*
X45323809Y-60121485D02*
X45371428Y-60311961D01*
X45371428Y-60311961D02*
X45466666Y-60407200D01*
X45466666Y-60407200D02*
X45561904Y-60454819D01*
X45561904Y-60454819D02*
X45752380Y-60454819D01*
X45752380Y-60454819D02*
X45847618Y-60407200D01*
X45847618Y-60407200D02*
X45942856Y-60311961D01*
X45942856Y-60311961D02*
X45990475Y-60121485D01*
X45990475Y-60121485D02*
X45990475Y-59788152D01*
X45990475Y-59788152D02*
X45942856Y-59597676D01*
X45942856Y-59597676D02*
X45847618Y-59502438D01*
X45847618Y-59502438D02*
X45752380Y-59454819D01*
X45038094Y-59454819D02*
X44466666Y-59454819D01*
X44752380Y-60454819D02*
X44752380Y-59454819D01*
X47038094Y-77931009D02*
X46704761Y-77931009D01*
X46561904Y-78454819D02*
X47038094Y-78454819D01*
X47038094Y-78454819D02*
X47038094Y-77454819D01*
X47038094Y-77454819D02*
X46561904Y-77454819D01*
X46133332Y-78454819D02*
X46133332Y-77454819D01*
X46133332Y-77454819D02*
X45561904Y-78454819D01*
X45561904Y-78454819D02*
X45561904Y-77454819D01*
X82333334Y-65931009D02*
X82000001Y-65931009D01*
X81857144Y-66454819D02*
X82333334Y-66454819D01*
X82333334Y-66454819D02*
X82333334Y-65454819D01*
X82333334Y-65454819D02*
X81857144Y-65454819D01*
X81476191Y-66407200D02*
X81333334Y-66454819D01*
X81333334Y-66454819D02*
X81095239Y-66454819D01*
X81095239Y-66454819D02*
X81000001Y-66407200D01*
X81000001Y-66407200D02*
X80952382Y-66359580D01*
X80952382Y-66359580D02*
X80904763Y-66264342D01*
X80904763Y-66264342D02*
X80904763Y-66169104D01*
X80904763Y-66169104D02*
X80952382Y-66073866D01*
X80952382Y-66073866D02*
X81000001Y-66026247D01*
X81000001Y-66026247D02*
X81095239Y-65978628D01*
X81095239Y-65978628D02*
X81285715Y-65931009D01*
X81285715Y-65931009D02*
X81380953Y-65883390D01*
X81380953Y-65883390D02*
X81428572Y-65835771D01*
X81428572Y-65835771D02*
X81476191Y-65740533D01*
X81476191Y-65740533D02*
X81476191Y-65645295D01*
X81476191Y-65645295D02*
X81428572Y-65550057D01*
X81428572Y-65550057D02*
X81380953Y-65502438D01*
X81380953Y-65502438D02*
X81285715Y-65454819D01*
X81285715Y-65454819D02*
X81047620Y-65454819D01*
X81047620Y-65454819D02*
X80904763Y-65502438D01*
X80476191Y-66454819D02*
X80476191Y-65454819D01*
X80476191Y-65454819D02*
X80095239Y-65454819D01*
X80095239Y-65454819D02*
X80000001Y-65502438D01*
X80000001Y-65502438D02*
X79952382Y-65550057D01*
X79952382Y-65550057D02*
X79904763Y-65645295D01*
X79904763Y-65645295D02*
X79904763Y-65788152D01*
X79904763Y-65788152D02*
X79952382Y-65883390D01*
X79952382Y-65883390D02*
X80000001Y-65931009D01*
X80000001Y-65931009D02*
X80095239Y-65978628D01*
X80095239Y-65978628D02*
X80476191Y-65978628D01*
X79571429Y-65454819D02*
X78952382Y-65454819D01*
X78952382Y-65454819D02*
X79285715Y-65835771D01*
X79285715Y-65835771D02*
X79142858Y-65835771D01*
X79142858Y-65835771D02*
X79047620Y-65883390D01*
X79047620Y-65883390D02*
X79000001Y-65931009D01*
X79000001Y-65931009D02*
X78952382Y-66026247D01*
X78952382Y-66026247D02*
X78952382Y-66264342D01*
X78952382Y-66264342D02*
X79000001Y-66359580D01*
X79000001Y-66359580D02*
X79047620Y-66407200D01*
X79047620Y-66407200D02*
X79142858Y-66454819D01*
X79142858Y-66454819D02*
X79428572Y-66454819D01*
X79428572Y-66454819D02*
X79523810Y-66407200D01*
X79523810Y-66407200D02*
X79571429Y-66359580D01*
X78571429Y-65550057D02*
X78523810Y-65502438D01*
X78523810Y-65502438D02*
X78428572Y-65454819D01*
X78428572Y-65454819D02*
X78190477Y-65454819D01*
X78190477Y-65454819D02*
X78095239Y-65502438D01*
X78095239Y-65502438D02*
X78047620Y-65550057D01*
X78047620Y-65550057D02*
X78000001Y-65645295D01*
X78000001Y-65645295D02*
X78000001Y-65740533D01*
X78000001Y-65740533D02*
X78047620Y-65883390D01*
X78047620Y-65883390D02*
X78619048Y-66454819D01*
X78619048Y-66454819D02*
X78000001Y-66454819D01*
X76809524Y-66454819D02*
X76809524Y-65454819D01*
X76809524Y-65454819D02*
X76571429Y-65454819D01*
X76571429Y-65454819D02*
X76428572Y-65502438D01*
X76428572Y-65502438D02*
X76333334Y-65597676D01*
X76333334Y-65597676D02*
X76285715Y-65692914D01*
X76285715Y-65692914D02*
X76238096Y-65883390D01*
X76238096Y-65883390D02*
X76238096Y-66026247D01*
X76238096Y-66026247D02*
X76285715Y-66216723D01*
X76285715Y-66216723D02*
X76333334Y-66311961D01*
X76333334Y-66311961D02*
X76428572Y-66407200D01*
X76428572Y-66407200D02*
X76571429Y-66454819D01*
X76571429Y-66454819D02*
X76809524Y-66454819D01*
X75428572Y-66407200D02*
X75523810Y-66454819D01*
X75523810Y-66454819D02*
X75714286Y-66454819D01*
X75714286Y-66454819D02*
X75809524Y-66407200D01*
X75809524Y-66407200D02*
X75857143Y-66311961D01*
X75857143Y-66311961D02*
X75857143Y-65931009D01*
X75857143Y-65931009D02*
X75809524Y-65835771D01*
X75809524Y-65835771D02*
X75714286Y-65788152D01*
X75714286Y-65788152D02*
X75523810Y-65788152D01*
X75523810Y-65788152D02*
X75428572Y-65835771D01*
X75428572Y-65835771D02*
X75380953Y-65931009D01*
X75380953Y-65931009D02*
X75380953Y-66026247D01*
X75380953Y-66026247D02*
X75857143Y-66121485D01*
X75047619Y-65788152D02*
X74809524Y-66454819D01*
X74809524Y-66454819D02*
X74571429Y-65788152D01*
X74190476Y-66454819D02*
X74190476Y-65454819D01*
X73619048Y-66454819D02*
X74047619Y-65883390D01*
X73619048Y-65454819D02*
X74190476Y-66026247D01*
X73190476Y-66454819D02*
X73190476Y-65788152D01*
X73190476Y-65454819D02*
X73238095Y-65502438D01*
X73238095Y-65502438D02*
X73190476Y-65550057D01*
X73190476Y-65550057D02*
X73142857Y-65502438D01*
X73142857Y-65502438D02*
X73190476Y-65454819D01*
X73190476Y-65454819D02*
X73190476Y-65550057D01*
X72857143Y-65788152D02*
X72476191Y-65788152D01*
X72714286Y-65454819D02*
X72714286Y-66311961D01*
X72714286Y-66311961D02*
X72666667Y-66407200D01*
X72666667Y-66407200D02*
X72571429Y-66454819D01*
X72571429Y-66454819D02*
X72476191Y-66454819D01*
X71380952Y-66073866D02*
X70619048Y-66073866D01*
X69380952Y-66454819D02*
X69380952Y-65454819D01*
X69285714Y-66073866D02*
X69000000Y-66454819D01*
X69000000Y-65788152D02*
X69380952Y-66169104D01*
X68428571Y-66454819D02*
X68523809Y-66407200D01*
X68523809Y-66407200D02*
X68571428Y-66359580D01*
X68571428Y-66359580D02*
X68619047Y-66264342D01*
X68619047Y-66264342D02*
X68619047Y-65978628D01*
X68619047Y-65978628D02*
X68571428Y-65883390D01*
X68571428Y-65883390D02*
X68523809Y-65835771D01*
X68523809Y-65835771D02*
X68428571Y-65788152D01*
X68428571Y-65788152D02*
X68285714Y-65788152D01*
X68285714Y-65788152D02*
X68190476Y-65835771D01*
X68190476Y-65835771D02*
X68142857Y-65883390D01*
X68142857Y-65883390D02*
X68095238Y-65978628D01*
X68095238Y-65978628D02*
X68095238Y-66264342D01*
X68095238Y-66264342D02*
X68142857Y-66359580D01*
X68142857Y-66359580D02*
X68190476Y-66407200D01*
X68190476Y-66407200D02*
X68285714Y-66454819D01*
X68285714Y-66454819D02*
X68428571Y-66454819D01*
X67666666Y-66454819D02*
X67666666Y-65788152D01*
X67666666Y-65883390D02*
X67619047Y-65835771D01*
X67619047Y-65835771D02*
X67523809Y-65788152D01*
X67523809Y-65788152D02*
X67380952Y-65788152D01*
X67380952Y-65788152D02*
X67285714Y-65835771D01*
X67285714Y-65835771D02*
X67238095Y-65931009D01*
X67238095Y-65931009D02*
X67238095Y-66454819D01*
X67238095Y-65931009D02*
X67190476Y-65835771D01*
X67190476Y-65835771D02*
X67095238Y-65788152D01*
X67095238Y-65788152D02*
X66952381Y-65788152D01*
X66952381Y-65788152D02*
X66857142Y-65835771D01*
X66857142Y-65835771D02*
X66809523Y-65931009D01*
X66809523Y-65931009D02*
X66809523Y-66454819D01*
X66333333Y-65788152D02*
X66333333Y-66788152D01*
X66333333Y-65835771D02*
X66238095Y-65788152D01*
X66238095Y-65788152D02*
X66047619Y-65788152D01*
X66047619Y-65788152D02*
X65952381Y-65835771D01*
X65952381Y-65835771D02*
X65904762Y-65883390D01*
X65904762Y-65883390D02*
X65857143Y-65978628D01*
X65857143Y-65978628D02*
X65857143Y-66264342D01*
X65857143Y-66264342D02*
X65904762Y-66359580D01*
X65904762Y-66359580D02*
X65952381Y-66407200D01*
X65952381Y-66407200D02*
X66047619Y-66454819D01*
X66047619Y-66454819D02*
X66238095Y-66454819D01*
X66238095Y-66454819D02*
X66333333Y-66407200D01*
X65285714Y-66454819D02*
X65380952Y-66407200D01*
X65380952Y-66407200D02*
X65428571Y-66359580D01*
X65428571Y-66359580D02*
X65476190Y-66264342D01*
X65476190Y-66264342D02*
X65476190Y-65978628D01*
X65476190Y-65978628D02*
X65428571Y-65883390D01*
X65428571Y-65883390D02*
X65380952Y-65835771D01*
X65380952Y-65835771D02*
X65285714Y-65788152D01*
X65285714Y-65788152D02*
X65142857Y-65788152D01*
X65142857Y-65788152D02*
X65047619Y-65835771D01*
X65047619Y-65835771D02*
X65000000Y-65883390D01*
X65000000Y-65883390D02*
X64952381Y-65978628D01*
X64952381Y-65978628D02*
X64952381Y-66264342D01*
X64952381Y-66264342D02*
X65000000Y-66359580D01*
X65000000Y-66359580D02*
X65047619Y-66407200D01*
X65047619Y-66407200D02*
X65142857Y-66454819D01*
X65142857Y-66454819D02*
X65285714Y-66454819D01*
X64523809Y-65788152D02*
X64523809Y-66454819D01*
X64523809Y-65883390D02*
X64476190Y-65835771D01*
X64476190Y-65835771D02*
X64380952Y-65788152D01*
X64380952Y-65788152D02*
X64238095Y-65788152D01*
X64238095Y-65788152D02*
X64142857Y-65835771D01*
X64142857Y-65835771D02*
X64095238Y-65931009D01*
X64095238Y-65931009D02*
X64095238Y-66454819D01*
X63238095Y-66407200D02*
X63333333Y-66454819D01*
X63333333Y-66454819D02*
X63523809Y-66454819D01*
X63523809Y-66454819D02*
X63619047Y-66407200D01*
X63619047Y-66407200D02*
X63666666Y-66311961D01*
X63666666Y-66311961D02*
X63666666Y-65931009D01*
X63666666Y-65931009D02*
X63619047Y-65835771D01*
X63619047Y-65835771D02*
X63523809Y-65788152D01*
X63523809Y-65788152D02*
X63333333Y-65788152D01*
X63333333Y-65788152D02*
X63238095Y-65835771D01*
X63238095Y-65835771D02*
X63190476Y-65931009D01*
X63190476Y-65931009D02*
X63190476Y-66026247D01*
X63190476Y-66026247D02*
X63666666Y-66121485D01*
X62761904Y-65788152D02*
X62761904Y-66454819D01*
X62761904Y-65883390D02*
X62714285Y-65835771D01*
X62714285Y-65835771D02*
X62619047Y-65788152D01*
X62619047Y-65788152D02*
X62476190Y-65788152D01*
X62476190Y-65788152D02*
X62380952Y-65835771D01*
X62380952Y-65835771D02*
X62333333Y-65931009D01*
X62333333Y-65931009D02*
X62333333Y-66454819D01*
X61095237Y-66454819D02*
X61095237Y-65788152D01*
X61095237Y-65883390D02*
X61047618Y-65835771D01*
X61047618Y-65835771D02*
X60952380Y-65788152D01*
X60952380Y-65788152D02*
X60809523Y-65788152D01*
X60809523Y-65788152D02*
X60714285Y-65835771D01*
X60714285Y-65835771D02*
X60666666Y-65931009D01*
X60666666Y-65931009D02*
X60666666Y-66454819D01*
X60666666Y-65931009D02*
X60619047Y-65835771D01*
X60619047Y-65835771D02*
X60523809Y-65788152D01*
X60523809Y-65788152D02*
X60380952Y-65788152D01*
X60380952Y-65788152D02*
X60285713Y-65835771D01*
X60285713Y-65835771D02*
X60238094Y-65931009D01*
X60238094Y-65931009D02*
X60238094Y-66454819D01*
X59380952Y-66407200D02*
X59476190Y-66454819D01*
X59476190Y-66454819D02*
X59666666Y-66454819D01*
X59666666Y-66454819D02*
X59761904Y-66407200D01*
X59761904Y-66407200D02*
X59809523Y-66311961D01*
X59809523Y-66311961D02*
X59809523Y-65931009D01*
X59809523Y-65931009D02*
X59761904Y-65835771D01*
X59761904Y-65835771D02*
X59666666Y-65788152D01*
X59666666Y-65788152D02*
X59476190Y-65788152D01*
X59476190Y-65788152D02*
X59380952Y-65835771D01*
X59380952Y-65835771D02*
X59333333Y-65931009D01*
X59333333Y-65931009D02*
X59333333Y-66026247D01*
X59333333Y-66026247D02*
X59809523Y-66121485D01*
X58904761Y-65788152D02*
X58904761Y-66454819D01*
X58904761Y-65883390D02*
X58857142Y-65835771D01*
X58857142Y-65835771D02*
X58761904Y-65788152D01*
X58761904Y-65788152D02*
X58619047Y-65788152D01*
X58619047Y-65788152D02*
X58523809Y-65835771D01*
X58523809Y-65835771D02*
X58476190Y-65931009D01*
X58476190Y-65931009D02*
X58476190Y-66454819D01*
X57571428Y-65788152D02*
X57571428Y-66597676D01*
X57571428Y-66597676D02*
X57619047Y-66692914D01*
X57619047Y-66692914D02*
X57666666Y-66740533D01*
X57666666Y-66740533D02*
X57761904Y-66788152D01*
X57761904Y-66788152D02*
X57904761Y-66788152D01*
X57904761Y-66788152D02*
X57999999Y-66740533D01*
X57571428Y-66407200D02*
X57666666Y-66454819D01*
X57666666Y-66454819D02*
X57857142Y-66454819D01*
X57857142Y-66454819D02*
X57952380Y-66407200D01*
X57952380Y-66407200D02*
X57999999Y-66359580D01*
X57999999Y-66359580D02*
X58047618Y-66264342D01*
X58047618Y-66264342D02*
X58047618Y-65978628D01*
X58047618Y-65978628D02*
X57999999Y-65883390D01*
X57999999Y-65883390D02*
X57952380Y-65835771D01*
X57952380Y-65835771D02*
X57857142Y-65788152D01*
X57857142Y-65788152D02*
X57666666Y-65788152D01*
X57666666Y-65788152D02*
X57571428Y-65835771D01*
X57095237Y-66454819D02*
X57095237Y-65454819D01*
X56666666Y-66454819D02*
X56666666Y-65931009D01*
X56666666Y-65931009D02*
X56714285Y-65835771D01*
X56714285Y-65835771D02*
X56809523Y-65788152D01*
X56809523Y-65788152D02*
X56952380Y-65788152D01*
X56952380Y-65788152D02*
X57047618Y-65835771D01*
X57047618Y-65835771D02*
X57095237Y-65883390D01*
X55761904Y-66454819D02*
X55761904Y-65931009D01*
X55761904Y-65931009D02*
X55809523Y-65835771D01*
X55809523Y-65835771D02*
X55904761Y-65788152D01*
X55904761Y-65788152D02*
X56095237Y-65788152D01*
X56095237Y-65788152D02*
X56190475Y-65835771D01*
X55761904Y-66407200D02*
X55857142Y-66454819D01*
X55857142Y-66454819D02*
X56095237Y-66454819D01*
X56095237Y-66454819D02*
X56190475Y-66407200D01*
X56190475Y-66407200D02*
X56238094Y-66311961D01*
X56238094Y-66311961D02*
X56238094Y-66216723D01*
X56238094Y-66216723D02*
X56190475Y-66121485D01*
X56190475Y-66121485D02*
X56095237Y-66073866D01*
X56095237Y-66073866D02*
X55857142Y-66073866D01*
X55857142Y-66073866D02*
X55761904Y-66026247D01*
X54857142Y-66454819D02*
X54857142Y-65454819D01*
X54857142Y-66407200D02*
X54952380Y-66454819D01*
X54952380Y-66454819D02*
X55142856Y-66454819D01*
X55142856Y-66454819D02*
X55238094Y-66407200D01*
X55238094Y-66407200D02*
X55285713Y-66359580D01*
X55285713Y-66359580D02*
X55333332Y-66264342D01*
X55333332Y-66264342D02*
X55333332Y-65978628D01*
X55333332Y-65978628D02*
X55285713Y-65883390D01*
X55285713Y-65883390D02*
X55238094Y-65835771D01*
X55238094Y-65835771D02*
X55142856Y-65788152D01*
X55142856Y-65788152D02*
X54952380Y-65788152D01*
X54952380Y-65788152D02*
X54857142Y-65835771D01*
X53952380Y-66454819D02*
X53952380Y-65931009D01*
X53952380Y-65931009D02*
X53999999Y-65835771D01*
X53999999Y-65835771D02*
X54095237Y-65788152D01*
X54095237Y-65788152D02*
X54285713Y-65788152D01*
X54285713Y-65788152D02*
X54380951Y-65835771D01*
X53952380Y-66407200D02*
X54047618Y-66454819D01*
X54047618Y-66454819D02*
X54285713Y-66454819D01*
X54285713Y-66454819D02*
X54380951Y-66407200D01*
X54380951Y-66407200D02*
X54428570Y-66311961D01*
X54428570Y-66311961D02*
X54428570Y-66216723D01*
X54428570Y-66216723D02*
X54380951Y-66121485D01*
X54380951Y-66121485D02*
X54285713Y-66073866D01*
X54285713Y-66073866D02*
X54047618Y-66073866D01*
X54047618Y-66073866D02*
X53952380Y-66026247D01*
X53476189Y-65788152D02*
X53476189Y-66788152D01*
X53476189Y-65835771D02*
X53380951Y-65788152D01*
X53380951Y-65788152D02*
X53190475Y-65788152D01*
X53190475Y-65788152D02*
X53095237Y-65835771D01*
X53095237Y-65835771D02*
X53047618Y-65883390D01*
X53047618Y-65883390D02*
X52999999Y-65978628D01*
X52999999Y-65978628D02*
X52999999Y-66264342D01*
X52999999Y-66264342D02*
X53047618Y-66359580D01*
X53047618Y-66359580D02*
X53095237Y-66407200D01*
X53095237Y-66407200D02*
X53190475Y-66454819D01*
X53190475Y-66454819D02*
X53380951Y-66454819D01*
X53380951Y-66454819D02*
X53476189Y-66407200D01*
X51809522Y-66454819D02*
X51809522Y-65454819D01*
X51714284Y-66073866D02*
X51428570Y-66454819D01*
X51428570Y-65788152D02*
X51809522Y-66169104D01*
X50619046Y-66407200D02*
X50714284Y-66454819D01*
X50714284Y-66454819D02*
X50904760Y-66454819D01*
X50904760Y-66454819D02*
X50999998Y-66407200D01*
X50999998Y-66407200D02*
X51047617Y-66311961D01*
X51047617Y-66311961D02*
X51047617Y-65931009D01*
X51047617Y-65931009D02*
X50999998Y-65835771D01*
X50999998Y-65835771D02*
X50904760Y-65788152D01*
X50904760Y-65788152D02*
X50714284Y-65788152D01*
X50714284Y-65788152D02*
X50619046Y-65835771D01*
X50619046Y-65835771D02*
X50571427Y-65931009D01*
X50571427Y-65931009D02*
X50571427Y-66026247D01*
X50571427Y-66026247D02*
X51047617Y-66121485D01*
X49999998Y-66454819D02*
X50095236Y-66407200D01*
X50095236Y-66407200D02*
X50142855Y-66311961D01*
X50142855Y-66311961D02*
X50142855Y-65454819D01*
X49190474Y-65788152D02*
X49190474Y-66454819D01*
X49619045Y-65788152D02*
X49619045Y-66311961D01*
X49619045Y-66311961D02*
X49571426Y-66407200D01*
X49571426Y-66407200D02*
X49476188Y-66454819D01*
X49476188Y-66454819D02*
X49333331Y-66454819D01*
X49333331Y-66454819D02*
X49238093Y-66407200D01*
X49238093Y-66407200D02*
X49190474Y-66359580D01*
X48285712Y-66454819D02*
X48285712Y-65931009D01*
X48285712Y-65931009D02*
X48333331Y-65835771D01*
X48333331Y-65835771D02*
X48428569Y-65788152D01*
X48428569Y-65788152D02*
X48619045Y-65788152D01*
X48619045Y-65788152D02*
X48714283Y-65835771D01*
X48285712Y-66407200D02*
X48380950Y-66454819D01*
X48380950Y-66454819D02*
X48619045Y-66454819D01*
X48619045Y-66454819D02*
X48714283Y-66407200D01*
X48714283Y-66407200D02*
X48761902Y-66311961D01*
X48761902Y-66311961D02*
X48761902Y-66216723D01*
X48761902Y-66216723D02*
X48714283Y-66121485D01*
X48714283Y-66121485D02*
X48619045Y-66073866D01*
X48619045Y-66073866D02*
X48380950Y-66073866D01*
X48380950Y-66073866D02*
X48285712Y-66026247D01*
X47809521Y-66454819D02*
X47809521Y-65788152D01*
X47809521Y-65978628D02*
X47761902Y-65883390D01*
X47761902Y-65883390D02*
X47714283Y-65835771D01*
X47714283Y-65835771D02*
X47619045Y-65788152D01*
X47619045Y-65788152D02*
X47523807Y-65788152D01*
X89169104Y-66452381D02*
X89169104Y-66928571D01*
X89454819Y-66357143D02*
X88454819Y-66690476D01*
X88454819Y-66690476D02*
X89454819Y-67023809D01*
X89454819Y-67357143D02*
X88454819Y-67357143D01*
X88454819Y-67357143D02*
X89454819Y-67928571D01*
X89454819Y-67928571D02*
X88454819Y-67928571D01*
X88454819Y-68261905D02*
X88454819Y-68833333D01*
X89454819Y-68547619D02*
X88454819Y-68547619D01*
X88931009Y-69166667D02*
X88931009Y-69500000D01*
X89454819Y-69642857D02*
X89454819Y-69166667D01*
X89454819Y-69166667D02*
X88454819Y-69166667D01*
X88454819Y-69166667D02*
X88454819Y-69642857D01*
X89454819Y-70071429D02*
X88454819Y-70071429D01*
X88454819Y-70071429D02*
X89454819Y-70642857D01*
X89454819Y-70642857D02*
X88454819Y-70642857D01*
X89169104Y-71071429D02*
X89169104Y-71547619D01*
X89454819Y-70976191D02*
X88454819Y-71309524D01*
X88454819Y-71309524D02*
X89454819Y-71642857D01*
X90254819Y-67666667D02*
X91254819Y-67904762D01*
X91254819Y-67904762D02*
X90540533Y-68095238D01*
X90540533Y-68095238D02*
X91254819Y-68285714D01*
X91254819Y-68285714D02*
X90254819Y-68523810D01*
X91254819Y-68904762D02*
X90588152Y-68904762D01*
X90254819Y-68904762D02*
X90302438Y-68857143D01*
X90302438Y-68857143D02*
X90350057Y-68904762D01*
X90350057Y-68904762D02*
X90302438Y-68952381D01*
X90302438Y-68952381D02*
X90254819Y-68904762D01*
X90254819Y-68904762D02*
X90350057Y-68904762D01*
X90731009Y-69714285D02*
X90731009Y-69380952D01*
X91254819Y-69380952D02*
X90254819Y-69380952D01*
X90254819Y-69380952D02*
X90254819Y-69857142D01*
X91254819Y-70238095D02*
X90588152Y-70238095D01*
X90254819Y-70238095D02*
X90302438Y-70190476D01*
X90302438Y-70190476D02*
X90350057Y-70238095D01*
X90350057Y-70238095D02*
X90302438Y-70285714D01*
X90302438Y-70285714D02*
X90254819Y-70238095D01*
X90254819Y-70238095D02*
X90350057Y-70238095D01*
D13*
X48542857Y-71745782D02*
X49457142Y-72088640D01*
X49457142Y-72088640D02*
X48542857Y-72431497D01*
X47971428Y-72088640D02*
X47057143Y-72088640D01*
X45571428Y-71345782D02*
X45571428Y-72317211D01*
X45571428Y-72317211D02*
X45514285Y-72431497D01*
X45514285Y-72431497D02*
X45457143Y-72488640D01*
X45457143Y-72488640D02*
X45342857Y-72545782D01*
X45342857Y-72545782D02*
X45114285Y-72545782D01*
X45114285Y-72545782D02*
X45000000Y-72488640D01*
X45000000Y-72488640D02*
X44942857Y-72431497D01*
X44942857Y-72431497D02*
X44885714Y-72317211D01*
X44885714Y-72317211D02*
X44885714Y-71345782D01*
X44371428Y-72488640D02*
X44200000Y-72545782D01*
X44200000Y-72545782D02*
X43914285Y-72545782D01*
X43914285Y-72545782D02*
X43800000Y-72488640D01*
X43800000Y-72488640D02*
X43742857Y-72431497D01*
X43742857Y-72431497D02*
X43685714Y-72317211D01*
X43685714Y-72317211D02*
X43685714Y-72202925D01*
X43685714Y-72202925D02*
X43742857Y-72088640D01*
X43742857Y-72088640D02*
X43800000Y-72031497D01*
X43800000Y-72031497D02*
X43914285Y-71974354D01*
X43914285Y-71974354D02*
X44142857Y-71917211D01*
X44142857Y-71917211D02*
X44257142Y-71860068D01*
X44257142Y-71860068D02*
X44314285Y-71802925D01*
X44314285Y-71802925D02*
X44371428Y-71688640D01*
X44371428Y-71688640D02*
X44371428Y-71574354D01*
X44371428Y-71574354D02*
X44314285Y-71460068D01*
X44314285Y-71460068D02*
X44257142Y-71402925D01*
X44257142Y-71402925D02*
X44142857Y-71345782D01*
X44142857Y-71345782D02*
X43857142Y-71345782D01*
X43857142Y-71345782D02*
X43685714Y-71402925D01*
X42771428Y-71917211D02*
X42600000Y-71974354D01*
X42600000Y-71974354D02*
X42542857Y-72031497D01*
X42542857Y-72031497D02*
X42485714Y-72145782D01*
X42485714Y-72145782D02*
X42485714Y-72317211D01*
X42485714Y-72317211D02*
X42542857Y-72431497D01*
X42542857Y-72431497D02*
X42600000Y-72488640D01*
X42600000Y-72488640D02*
X42714285Y-72545782D01*
X42714285Y-72545782D02*
X43171428Y-72545782D01*
X43171428Y-72545782D02*
X43171428Y-71345782D01*
X43171428Y-71345782D02*
X42771428Y-71345782D01*
X42771428Y-71345782D02*
X42657143Y-71402925D01*
X42657143Y-71402925D02*
X42600000Y-71460068D01*
X42600000Y-71460068D02*
X42542857Y-71574354D01*
X42542857Y-71574354D02*
X42542857Y-71688640D01*
X42542857Y-71688640D02*
X42600000Y-71802925D01*
X42600000Y-71802925D02*
X42657143Y-71860068D01*
X42657143Y-71860068D02*
X42771428Y-71917211D01*
X42771428Y-71917211D02*
X43171428Y-71917211D01*
D10*
X88184819Y-81366666D02*
X88899104Y-81366666D01*
X88899104Y-81366666D02*
X89041961Y-81319047D01*
X89041961Y-81319047D02*
X89137200Y-81223809D01*
X89137200Y-81223809D02*
X89184819Y-81080952D01*
X89184819Y-81080952D02*
X89184819Y-80985714D01*
X89184819Y-82366666D02*
X89184819Y-81795238D01*
X89184819Y-82080952D02*
X88184819Y-82080952D01*
X88184819Y-82080952D02*
X88327676Y-81985714D01*
X88327676Y-81985714D02*
X88422914Y-81890476D01*
X88422914Y-81890476D02*
X88470533Y-81795238D01*
X88184819Y-55966666D02*
X88899104Y-55966666D01*
X88899104Y-55966666D02*
X89041961Y-55919047D01*
X89041961Y-55919047D02*
X89137200Y-55823809D01*
X89137200Y-55823809D02*
X89184819Y-55680952D01*
X89184819Y-55680952D02*
X89184819Y-55585714D01*
X88280057Y-56395238D02*
X88232438Y-56442857D01*
X88232438Y-56442857D02*
X88184819Y-56538095D01*
X88184819Y-56538095D02*
X88184819Y-56776190D01*
X88184819Y-56776190D02*
X88232438Y-56871428D01*
X88232438Y-56871428D02*
X88280057Y-56919047D01*
X88280057Y-56919047D02*
X88375295Y-56966666D01*
X88375295Y-56966666D02*
X88470533Y-56966666D01*
X88470533Y-56966666D02*
X88613390Y-56919047D01*
X88613390Y-56919047D02*
X89184819Y-56347619D01*
X89184819Y-56347619D02*
X89184819Y-56966666D01*
%TO.C,J1*%
D11*
X49070000Y-83030000D02*
X49070000Y-80370000D01*
X84690000Y-80370000D02*
X49070000Y-80370000D01*
X84690000Y-83030000D02*
X49070000Y-83030000D01*
X84690000Y-83030000D02*
X84690000Y-80370000D01*
X87290000Y-80370000D02*
X85960000Y-80370000D01*
X87290000Y-81700000D02*
X87290000Y-80370000D01*
%TO.C,J2*%
X49070000Y-57630000D02*
X49070000Y-54970000D01*
X84690000Y-54970000D02*
X49070000Y-54970000D01*
X84690000Y-57630000D02*
X49070000Y-57630000D01*
X84690000Y-57630000D02*
X84690000Y-54970000D01*
X87290000Y-54970000D02*
X85960000Y-54970000D01*
X87290000Y-56300000D02*
X87290000Y-54970000D01*
%TD*%
%LPC*%
D14*
%TO.C,BZ1*%
X126700000Y-106000000D03*
D15*
X134300000Y-106000000D03*
%TD*%
D16*
%TO.C,H2*%
X136000000Y-44420000D03*
%TD*%
D17*
%TO.C,R4*%
X132600000Y-114000000D03*
X132600000Y-124160000D03*
%TD*%
%TO.C,C4*%
X122600000Y-109000000D03*
X122600000Y-111500000D03*
%TD*%
D18*
%TO.C,C3*%
X123250000Y-124300000D03*
D17*
X125750000Y-124300000D03*
%TD*%
D16*
%TO.C,H8*%
X66850000Y-105870000D03*
%TD*%
D19*
%TO.C,J4*%
X118100000Y-129500000D03*
D20*
X118100000Y-126960000D03*
X118100000Y-124420000D03*
X118100000Y-121880000D03*
X118100000Y-119340000D03*
X118100000Y-116800000D03*
X118100000Y-114260000D03*
X118100000Y-111720000D03*
%TD*%
D18*
%TO.C,D1*%
X123000000Y-129500000D03*
D17*
X130620000Y-129500000D03*
%TD*%
D16*
%TO.C,H4*%
X136000000Y-93920000D03*
%TD*%
D17*
%TO.C,R1*%
X45000000Y-110000000D03*
X45000000Y-120160000D03*
%TD*%
D19*
%TO.C,J3*%
X137000000Y-85680000D03*
D20*
X137000000Y-83140000D03*
X137000000Y-80600000D03*
X137000000Y-78060000D03*
X137000000Y-75520000D03*
X137000000Y-72980000D03*
X137000000Y-70440000D03*
X137000000Y-67900000D03*
X137000000Y-65360000D03*
X137000000Y-62820000D03*
X137000000Y-60280000D03*
X137000000Y-57740000D03*
X137000000Y-55200000D03*
X137000000Y-52660000D03*
%TD*%
D18*
%TO.C,C1*%
X48250000Y-128000000D03*
D17*
X51750000Y-128000000D03*
%TD*%
D16*
%TO.C,H9*%
X44000000Y-136000000D03*
%TD*%
%TO.C,H6*%
X104350000Y-101520000D03*
%TD*%
D21*
%TO.C,Q1*%
X124000000Y-116000000D03*
D22*
X126540000Y-116000000D03*
X129080000Y-116000000D03*
%TD*%
D17*
%TO.C,R3*%
X54000000Y-110000000D03*
X54000000Y-120160000D03*
%TD*%
D16*
%TO.C,H3*%
X44000000Y-93920000D03*
%TD*%
D17*
%TO.C,C2*%
X132500000Y-87500000D03*
X132500000Y-90000000D03*
%TD*%
D16*
%TO.C,H5*%
X104350000Y-136520000D03*
%TD*%
%TO.C,H7*%
X66850000Y-131720000D03*
%TD*%
D17*
%TO.C,R6*%
X54000000Y-48000000D03*
X64160000Y-48000000D03*
%TD*%
%TO.C,R5*%
X137200000Y-114000000D03*
X137200000Y-124160000D03*
%TD*%
%TO.C,R2*%
X49500000Y-110000000D03*
X49500000Y-120160000D03*
%TD*%
D16*
%TO.C,H1*%
X44000000Y-44420000D03*
%TD*%
D23*
%TO.C,D2*%
X46000000Y-104000000D03*
D24*
X48159000Y-104000000D03*
X50318000Y-104000000D03*
X52477000Y-104000000D03*
%TD*%
D16*
%TO.C,H10*%
X136000000Y-136000000D03*
%TD*%
D19*
%TO.C,J1*%
X85960000Y-81700000D03*
D20*
X83420000Y-81700000D03*
X80880000Y-81700000D03*
X78340000Y-81700000D03*
X75800000Y-81700000D03*
X73260000Y-81700000D03*
X70720000Y-81700000D03*
X68180000Y-81700000D03*
X65640000Y-81700000D03*
X63100000Y-81700000D03*
X60560000Y-81700000D03*
X58020000Y-81700000D03*
X55480000Y-81700000D03*
X52940000Y-81700000D03*
X50400000Y-81700000D03*
%TD*%
D19*
%TO.C,J2*%
X85960000Y-56300000D03*
D20*
X83420000Y-56300000D03*
X80880000Y-56300000D03*
X78340000Y-56300000D03*
X75800000Y-56300000D03*
X73260000Y-56300000D03*
X70720000Y-56300000D03*
X68180000Y-56300000D03*
X65640000Y-56300000D03*
X63100000Y-56300000D03*
X60560000Y-56300000D03*
X58020000Y-56300000D03*
X55480000Y-56300000D03*
X52940000Y-56300000D03*
X50400000Y-56300000D03*
%TD*%
%LPD*%
M02*
