%TF.GenerationSoftware,KiCad,Pcbnew,10.0.6*%
%TF.CreationDate,2026-10-01T11:39:37+07:00*%
%TF.ProjectId,absensi-pcb,61627365-6e73-4692-9d70-63622e6b6963,rev?*%
%TF.SameCoordinates,Original*%
%TF.FileFunction,Copper,L1,Top*%
%TF.FilePolarity,Positive*%
%FSLAX46Y46*%
G04 Gerber Fmt 4.6, Leading zero omitted, Abs format (unit mm)*
G04 Created by KiCad (PCBNEW 10.0.6) date 2026-10-01 11:39:37*
%MOMM*%
%LPD*%
G01*
G04 APERTURE LIST*
G04 Aperture macros list*
%AMRoundRect*
0 Rectangle with rounded corners*
0 $1 Rounding radius*
0 $2 $3 $4 $5 $6 $7 $8 $9 X,Y pos of 4 corners*
0 Add a 4 corners polygon primitive as box body*
4,1,4,$2,$3,$4,$5,$6,$7,$8,$9,$2,$3,0*
0 Add four circle primitives for the rounded corners*
1,1,$1+$1,$2,$3*
1,1,$1+$1,$4,$5*
1,1,$1+$1,$6,$7*
1,1,$1+$1,$8,$9*
0 Add four rect primitives between the rounded corners*
20,1,$1+$1,$2,$3,$4,$5,0*
20,1,$1+$1,$4,$5,$6,$7,0*
20,1,$1+$1,$6,$7,$8,$9,0*
20,1,$1+$1,$8,$9,$2,$3,0*%
G04 Aperture macros list end*
%TA.AperFunction,ComponentPad*%
%ADD10R,2.000000X2.000000*%
%TD*%
%TA.AperFunction,ComponentPad*%
%ADD11C,2.000000*%
%TD*%
%TA.AperFunction,ComponentPad*%
%ADD12C,1.600000*%
%TD*%
%TA.AperFunction,ComponentPad*%
%ADD13RoundRect,0.250000X-0.550000X-0.550000X0.550000X-0.550000X0.550000X0.550000X-0.550000X0.550000X0*%
%TD*%
%TA.AperFunction,ComponentPad*%
%ADD14R,1.700000X1.700000*%
%TD*%
%TA.AperFunction,ComponentPad*%
%ADD15C,1.700000*%
%TD*%
%TA.AperFunction,ComponentPad*%
%ADD16R,1.500000X1.500000*%
%TD*%
%TA.AperFunction,ComponentPad*%
%ADD17C,1.500000*%
%TD*%
%TA.AperFunction,ComponentPad*%
%ADD18R,1.800000X1.800000*%
%TD*%
%TA.AperFunction,ComponentPad*%
%ADD19C,1.800000*%
%TD*%
%TA.AperFunction,ViaPad*%
%ADD20C,0.900000*%
%TD*%
%TA.AperFunction,ViaPad*%
%ADD21C,0.700000*%
%TD*%
%TA.AperFunction,Conductor*%
%ADD22C,0.600000*%
%TD*%
%TA.AperFunction,Conductor*%
%ADD23C,0.250000*%
%TD*%
G04 APERTURE END LIST*
D10*
%TO.P,BZ1,1*%
%TO.N,+3V3*%
X126700000Y-106000000D03*
D11*
%TO.P,BZ1,2*%
%TO.N,BUZ_K*%
X134300000Y-106000000D03*
%TD*%
D12*
%TO.P,R4,1*%
%TO.N,BUZ*%
X132600000Y-114000000D03*
%TO.P,R4,2*%
%TO.N,BUZ_B*%
X132600000Y-124160000D03*
%TD*%
%TO.P,C4,1*%
%TO.N,+3V3*%
X122600000Y-109000000D03*
%TO.P,C4,2*%
%TO.N,GND*%
X122600000Y-111500000D03*
%TD*%
D13*
%TO.P,C3,1*%
%TO.N,+3V3*%
X123250000Y-124300000D03*
D12*
%TO.P,C3,2*%
%TO.N,GND*%
X125750000Y-124300000D03*
%TD*%
D14*
%TO.P,J4,1*%
%TO.N,RFID_SS*%
X118100000Y-129500000D03*
D15*
%TO.P,J4,2*%
%TO.N,RFID_SCK*%
X118100000Y-126960000D03*
%TO.P,J4,3*%
%TO.N,RFID_MOSI*%
X118100000Y-124420000D03*
%TO.P,J4,4*%
%TO.N,RFID_MISO*%
X118100000Y-121880000D03*
%TO.P,J4,5*%
%TO.N,N/C*%
X118100000Y-119340000D03*
%TO.P,J4,6*%
%TO.N,GND*%
X118100000Y-116800000D03*
%TO.P,J4,7*%
%TO.N,RFID_RST*%
X118100000Y-114260000D03*
%TO.P,J4,8*%
%TO.N,+3V3*%
X118100000Y-111720000D03*
%TD*%
D13*
%TO.P,D1,1*%
%TO.N,+3V3*%
X123000000Y-129500000D03*
D12*
%TO.P,D1,2*%
%TO.N,BUZ_K*%
X130620000Y-129500000D03*
%TD*%
%TO.P,R1,1*%
%TO.N,LED_R_IO*%
X45000000Y-110000000D03*
%TO.P,R1,2*%
%TO.N,LED_R*%
X45000000Y-120160000D03*
%TD*%
D14*
%TO.P,J3,1*%
%TO.N,+3V3*%
X137000000Y-85680000D03*
D15*
%TO.P,J3,2*%
%TO.N,GND*%
X137000000Y-83140000D03*
%TO.P,J3,3*%
%TO.N,LCD_CS*%
X137000000Y-80600000D03*
%TO.P,J3,4*%
%TO.N,LCD_RST*%
X137000000Y-78060000D03*
%TO.P,J3,5*%
%TO.N,LCD_DC*%
X137000000Y-75520000D03*
%TO.P,J3,6*%
%TO.N,LCD_MOSI*%
X137000000Y-72980000D03*
%TO.P,J3,7*%
%TO.N,LCD_SCK*%
X137000000Y-70440000D03*
%TO.P,J3,8*%
%TO.N,LCD_LED*%
X137000000Y-67900000D03*
%TO.P,J3,9*%
%TO.N,N/C*%
X137000000Y-65360000D03*
%TO.P,J3,10*%
%TO.N,T_CLK*%
X137000000Y-62820000D03*
%TO.P,J3,11*%
%TO.N,T_CS*%
X137000000Y-60280000D03*
%TO.P,J3,12*%
%TO.N,T_DIN*%
X137000000Y-57740000D03*
%TO.P,J3,13*%
%TO.N,T_OUT*%
X137000000Y-55200000D03*
%TO.P,J3,14*%
%TO.N,N/C*%
X137000000Y-52660000D03*
%TD*%
D13*
%TO.P,C1,1*%
%TO.N,+3V3*%
X48250000Y-128000000D03*
D12*
%TO.P,C1,2*%
%TO.N,GND*%
X51750000Y-128000000D03*
%TD*%
D16*
%TO.P,Q1,1*%
%TO.N,GND*%
X124000000Y-116000000D03*
D17*
%TO.P,Q1,2*%
%TO.N,BUZ_B*%
X126540000Y-116000000D03*
%TO.P,Q1,3*%
%TO.N,BUZ_K*%
X129080000Y-116000000D03*
%TD*%
D12*
%TO.P,R3,1*%
%TO.N,LED_B_IO*%
X54000000Y-110000000D03*
%TO.P,R3,2*%
%TO.N,LED_B*%
X54000000Y-120160000D03*
%TD*%
%TO.P,C2,1*%
%TO.N,+3V3*%
X132500000Y-87500000D03*
%TO.P,C2,2*%
%TO.N,GND*%
X132500000Y-90000000D03*
%TD*%
%TO.P,R6,1*%
%TO.N,LCD_LED*%
X54000000Y-48000000D03*
%TO.P,R6,2*%
%TO.N,GND*%
X64160000Y-48000000D03*
%TD*%
%TO.P,R5,1*%
%TO.N,BUZ_B*%
X137200000Y-114000000D03*
%TO.P,R5,2*%
%TO.N,GND*%
X137200000Y-124160000D03*
%TD*%
%TO.P,R2,1*%
%TO.N,LED_G_IO*%
X49500000Y-110000000D03*
%TO.P,R2,2*%
%TO.N,LED_G*%
X49500000Y-120160000D03*
%TD*%
D18*
%TO.P,D2,1*%
%TO.N,LED_R*%
X46000000Y-104000000D03*
D19*
%TO.P,D2,2*%
%TO.N,GND*%
X48159000Y-104000000D03*
%TO.P,D2,3*%
%TO.N,LED_G*%
X50318000Y-104000000D03*
%TO.P,D2,4*%
%TO.N,LED_B*%
X52477000Y-104000000D03*
%TD*%
D14*
%TO.P,J1,1*%
%TO.N,N/C*%
X85960000Y-81700000D03*
D15*
%TO.P,J1,2*%
X83420000Y-81700000D03*
%TO.P,J1,3*%
X80880000Y-81700000D03*
%TO.P,J1,4*%
X78340000Y-81700000D03*
%TO.P,J1,5*%
%TO.N,RFID_MISO*%
X75800000Y-81700000D03*
%TO.P,J1,6*%
%TO.N,RFID_RST*%
X73260000Y-81700000D03*
%TO.P,J1,7*%
%TO.N,RFID_SS*%
X70720000Y-81700000D03*
%TO.P,J1,8*%
%TO.N,LED_R_IO*%
X68180000Y-81700000D03*
%TO.P,J1,9*%
%TO.N,LED_G_IO*%
X65640000Y-81700000D03*
%TO.P,J1,10*%
%TO.N,LED_B_IO*%
X63100000Y-81700000D03*
%TO.P,J1,11*%
%TO.N,RFID_SCK*%
X60560000Y-81700000D03*
%TO.P,J1,12*%
%TO.N,N/C*%
X58020000Y-81700000D03*
%TO.P,J1,13*%
%TO.N,RFID_MOSI*%
X55480000Y-81700000D03*
%TO.P,J1,14*%
%TO.N,GND*%
X52940000Y-81700000D03*
%TO.P,J1,15*%
%TO.N,N/C*%
X50400000Y-81700000D03*
%TD*%
D14*
%TO.P,J2,1*%
%TO.N,LCD_MOSI*%
X85960000Y-56300000D03*
D15*
%TO.P,J2,2*%
%TO.N,T_CLK*%
X83420000Y-56300000D03*
%TO.P,J2,3*%
%TO.N,N/C*%
X80880000Y-56300000D03*
%TO.P,J2,4*%
X78340000Y-56300000D03*
%TO.P,J2,5*%
%TO.N,T_DIN*%
X75800000Y-56300000D03*
%TO.P,J2,6*%
%TO.N,T_OUT*%
X73260000Y-56300000D03*
%TO.P,J2,7*%
%TO.N,LCD_SCK*%
X70720000Y-56300000D03*
%TO.P,J2,8*%
%TO.N,LCD_CS*%
X68180000Y-56300000D03*
%TO.P,J2,9*%
%TO.N,BUZ*%
X65640000Y-56300000D03*
%TO.P,J2,10*%
%TO.N,LCD_DC*%
X63100000Y-56300000D03*
%TO.P,J2,11*%
%TO.N,LCD_RST*%
X60560000Y-56300000D03*
%TO.P,J2,12*%
%TO.N,LCD_LED*%
X58020000Y-56300000D03*
%TO.P,J2,13*%
%TO.N,T_CS*%
X55480000Y-56300000D03*
%TO.P,J2,14*%
%TO.N,GND*%
X52940000Y-56300000D03*
%TO.P,J2,15*%
%TO.N,+3V3*%
X50400000Y-56300000D03*
%TD*%
D20*
%TO.N,+3V3*%
X118341100Y-78674500D03*
D21*
%TO.N,BUZ*%
X72198700Y-80705100D03*
%TO.N,LCD_DC*%
X129282300Y-51992400D03*
X63100000Y-51992400D03*
%TO.N,LCD_MOSI*%
X90001700Y-58153900D03*
%TO.N,LCD_SCK*%
X91070600Y-57816500D03*
%TO.N,LED_G_IO*%
X55700500Y-107275600D03*
%TD*%
%TO.N,+3V3*%
D22*
X123250000Y-124300000D02*
X121240800Y-122290800D01*
X126700000Y-106000000D02*
X125198300Y-106000000D01*
X125198300Y-106401700D02*
X125198300Y-106000000D01*
X50400000Y-56300000D02*
X72774500Y-78674500D01*
X121240800Y-122290800D02*
X121240800Y-110359200D01*
X134320000Y-85680000D02*
X132500000Y-87500000D01*
X72774500Y-78674500D02*
X118341100Y-78674500D01*
X121240800Y-110359200D02*
X122600000Y-109000000D01*
X122600000Y-109000000D02*
X125198300Y-106401700D01*
X137000000Y-85680000D02*
X134320000Y-85680000D01*
%TO.N,BUZ_K*%
D23*
X129080000Y-111220000D02*
X134300000Y-106000000D01*
X129080000Y-116000000D02*
X129080000Y-111220000D01*
%TO.N,BUZ*%
X132600000Y-114000000D02*
X135636400Y-110963600D01*
X135636400Y-105406100D02*
X110713000Y-80482700D01*
X110713000Y-80482700D02*
X72421100Y-80482700D01*
X72421100Y-80482700D02*
X72198700Y-80705100D01*
X135636400Y-110963600D02*
X135636400Y-105406100D01*
%TO.N,GND*%
D22*
X52940000Y-81583200D02*
X52940000Y-81700000D01*
X125750000Y-124300000D02*
X126939300Y-125489300D01*
X122344200Y-79844200D02*
X62397100Y-79844200D01*
X61240000Y-48000000D02*
X64160000Y-48000000D01*
X134973300Y-83140000D02*
X137000000Y-83140000D01*
X52940000Y-56300000D02*
X61240000Y-48000000D01*
X130306700Y-87806600D02*
X134973300Y-83140000D01*
X130306700Y-87806600D02*
X122344200Y-79844200D01*
X126939300Y-125489300D02*
X135870700Y-125489300D01*
X61956900Y-79404000D02*
X56654900Y-79404000D01*
X54679000Y-79844200D02*
X52940000Y-81583200D01*
X130306700Y-87806600D02*
X132500000Y-90000000D01*
X135870700Y-125489300D02*
X137200000Y-124160000D01*
X56654900Y-79404000D02*
X56214700Y-79844200D01*
X62397100Y-79844200D02*
X61956900Y-79404000D01*
X56214700Y-79844200D02*
X54679000Y-79844200D01*
%TO.N,RFID_SCK*%
D23*
X115408400Y-124268400D02*
X118100000Y-126960000D01*
X115408400Y-109476900D02*
X115408400Y-124268400D01*
X76842400Y-97982400D02*
X103913900Y-97982400D01*
X60560000Y-81700000D02*
X76842400Y-97982400D01*
X103913900Y-97982400D02*
X115408400Y-109476900D01*
%TO.N,RFID_MOSI*%
X116151300Y-122471300D02*
X118100000Y-124420000D01*
X61038500Y-80482400D02*
X61923300Y-81367200D01*
X76607600Y-96872900D02*
X103498600Y-96872900D01*
X55480000Y-81700000D02*
X55996400Y-81700000D01*
X55996400Y-81700000D02*
X57214000Y-80482400D01*
X116151300Y-109525600D02*
X116151300Y-122471300D01*
X61923300Y-82188600D02*
X76607600Y-96872900D01*
X103498600Y-96872900D02*
X116151300Y-109525600D01*
X61923300Y-81367200D02*
X61923300Y-82188600D01*
X57214000Y-80482400D02*
X61038500Y-80482400D01*
%TO.N,RFID_MISO*%
X118495900Y-118163300D02*
X117612600Y-118163300D01*
X119293900Y-117365300D02*
X118495900Y-118163300D01*
X116900500Y-120680500D02*
X118100000Y-121880000D01*
X117612600Y-118163300D02*
X116900500Y-118875400D01*
X116900500Y-118875400D02*
X116900500Y-120680500D01*
X76976700Y-82876700D02*
X90930600Y-82876700D01*
X90930600Y-82876700D02*
X119293900Y-111240000D01*
X119293900Y-111240000D02*
X119293900Y-117365300D01*
X75800000Y-81700000D02*
X76976700Y-82876700D01*
%TO.N,RFID_RST*%
X95929100Y-88664600D02*
X80224600Y-88664600D01*
X80224600Y-88664600D02*
X73260000Y-81700000D01*
X116603000Y-112763000D02*
X116603000Y-109338500D01*
X116603000Y-109338500D02*
X95929100Y-88664600D01*
X118100000Y-114260000D02*
X116603000Y-112763000D01*
%TO.N,LED_R_IO*%
X56496600Y-80482400D02*
X54991100Y-80482400D01*
X68180000Y-81700000D02*
X66962400Y-80482400D01*
X54210000Y-81263500D02*
X54210000Y-89975700D01*
X66962400Y-80482400D02*
X62149000Y-80482400D01*
X62149000Y-80482400D02*
X61697300Y-80030700D01*
X44773300Y-109773300D02*
X45000000Y-110000000D01*
X56948300Y-80030700D02*
X56496600Y-80482400D01*
X61697300Y-80030700D02*
X56948300Y-80030700D01*
X54991100Y-80482400D02*
X54210000Y-81263500D01*
X44773300Y-99412400D02*
X44773300Y-109773300D01*
X54210000Y-89975700D02*
X44773300Y-99412400D01*
%TO.N,LED_R*%
X46000000Y-104000000D02*
X46000000Y-105226700D01*
X46000000Y-105226700D02*
X46156200Y-105382900D01*
X46156200Y-119003800D02*
X45000000Y-120160000D01*
X46156200Y-105382900D02*
X46156200Y-119003800D01*
%TO.N,LCD_CS*%
X70824900Y-58944900D02*
X68180000Y-56300000D01*
X138232000Y-79368000D02*
X138232000Y-75087800D01*
X137487500Y-74343300D02*
X134780000Y-74343300D01*
X138232000Y-75087800D02*
X137487500Y-74343300D01*
X137000000Y-80600000D02*
X138232000Y-79368000D01*
X119381600Y-58944900D02*
X70824900Y-58944900D01*
X134780000Y-74343300D02*
X119381600Y-58944900D01*
%TO.N,LCD_RST*%
X60560000Y-56300000D02*
X63656600Y-59396600D01*
X63656600Y-59396600D02*
X118336600Y-59396600D01*
X118336600Y-59396600D02*
X137000000Y-78060000D01*
%TO.N,LCD_DC*%
X129282300Y-51992400D02*
X63100000Y-51992400D01*
%TO.N,LCD_MOSI*%
X90341000Y-58493200D02*
X122513200Y-58493200D01*
X90001700Y-58153900D02*
X90341000Y-58493200D01*
X122513200Y-58493200D02*
X137000000Y-72980000D01*
%TO.N,LCD_SCK*%
X124376500Y-57816500D02*
X137000000Y-70440000D01*
X91070600Y-57816500D02*
X124376500Y-57816500D01*
%TO.N,LCD_LED*%
X68666400Y-55111000D02*
X59209000Y-55111000D01*
X69450000Y-56780700D02*
X69450000Y-55894600D01*
X69450000Y-55894600D02*
X68666400Y-55111000D01*
X90282300Y-57477500D02*
X90282000Y-57477200D01*
X126239800Y-57139800D02*
X90790400Y-57139800D01*
X137000000Y-67900000D02*
X126239800Y-57139800D01*
X88818600Y-58380100D02*
X71049400Y-58380100D01*
X90282000Y-57477200D02*
X89721500Y-57477200D01*
X71049400Y-58380100D02*
X69450000Y-56780700D01*
X90790400Y-57139800D02*
X90452700Y-57477500D01*
X90452700Y-57477500D02*
X90282300Y-57477500D01*
X89721500Y-57477200D02*
X88818600Y-58380100D01*
X59209000Y-55111000D02*
X58020000Y-56300000D01*
%TO.N,T_CLK*%
X137478800Y-56470000D02*
X130040800Y-56470000D01*
X138198700Y-57189900D02*
X137478800Y-56470000D01*
X130040800Y-56470000D02*
X128694100Y-55123300D01*
X84596700Y-55123300D02*
X83420000Y-56300000D01*
X128694100Y-55123300D02*
X84596700Y-55123300D01*
X138198700Y-61621300D02*
X138198700Y-57189900D01*
X137000000Y-62820000D02*
X138198700Y-61621300D01*
%TO.N,T_CS*%
X70768400Y-54612600D02*
X57167400Y-54612600D01*
X88977100Y-56688100D02*
X87736800Y-57928400D01*
X72083300Y-55927500D02*
X70768400Y-54612600D01*
X57167400Y-54612600D02*
X55480000Y-56300000D01*
X128663100Y-56688100D02*
X88977100Y-56688100D01*
X132255000Y-60280000D02*
X128663100Y-56688100D01*
X72083300Y-56889200D02*
X72083300Y-55927500D01*
X73122500Y-57928400D02*
X72083300Y-56889200D01*
X137000000Y-60280000D02*
X132255000Y-60280000D01*
X87736800Y-57928400D02*
X73122500Y-57928400D01*
%TO.N,T_DIN*%
X76976700Y-57476700D02*
X75800000Y-56300000D01*
X88903900Y-56122400D02*
X87549600Y-57476700D01*
X137000000Y-57740000D02*
X130672000Y-57740000D01*
X129054400Y-56122400D02*
X88903900Y-56122400D01*
X87549600Y-57476700D02*
X76976700Y-57476700D01*
X130672000Y-57740000D02*
X129054400Y-56122400D01*
%TO.N,T_OUT*%
X136468800Y-54668800D02*
X137000000Y-55200000D01*
X74891200Y-54668800D02*
X136468800Y-54668800D01*
X73260000Y-56300000D02*
X74891200Y-54668800D01*
%TO.N,LED_G_IO*%
X49500000Y-110000000D02*
X52224400Y-107275600D01*
X52224400Y-107275600D02*
X55700500Y-107275600D01*
%TD*%
M02*
