%TF.GenerationSoftware,KiCad,Pcbnew,10.0.6*%
%TF.CreationDate,2026-10-01T11:39:37+07:00*%
%TF.ProjectId,absensi-pcb,61627365-6e73-4692-9d70-63622e6b6963,rev?*%
%TF.SameCoordinates,Original*%
%TF.FileFunction,Copper,L2,Bot*%
%TF.FilePolarity,Positive*%
%FSLAX46Y46*%
G04 Gerber Fmt 4.6, Leading zero omitted, Abs format (unit mm)*
G04 Created by KiCad (PCBNEW 10.0.6) date 2026-10-01 11:39:37*
%MOMM*%
%LPD*%
G01*
G04 APERTURE LIST*
G04 Aperture macros list*
%AMRoundRect*
0 Rectangle with rounded corners*
0 $1 Rounding radius*
0 $2 $3 $4 $5 $6 $7 $8 $9 X,Y pos of 4 corners*
0 Add a 4 corners polygon primitive as box body*
4,1,4,$2,$3,$4,$5,$6,$7,$8,$9,$2,$3,0*
0 Add four circle primitives for the rounded corners*
1,1,$1+$1,$2,$3*
1,1,$1+$1,$4,$5*
1,1,$1+$1,$6,$7*
1,1,$1+$1,$8,$9*
0 Add four rect primitives between the rounded corners*
20,1,$1+$1,$2,$3,$4,$5,0*
20,1,$1+$1,$4,$5,$6,$7,0*
20,1,$1+$1,$6,$7,$8,$9,0*
20,1,$1+$1,$8,$9,$2,$3,0*%
G04 Aperture macros list end*
%TA.AperFunction,ComponentPad*%
%ADD10R,2.000000X2.000000*%
%TD*%
%TA.AperFunction,ComponentPad*%
%ADD11C,2.000000*%
%TD*%
%TA.AperFunction,ComponentPad*%
%ADD12C,1.600000*%
%TD*%
%TA.AperFunction,ComponentPad*%
%ADD13RoundRect,0.250000X-0.550000X-0.550000X0.550000X-0.550000X0.550000X0.550000X-0.550000X0.550000X0*%
%TD*%
%TA.AperFunction,ComponentPad*%
%ADD14R,1.700000X1.700000*%
%TD*%
%TA.AperFunction,ComponentPad*%
%ADD15C,1.700000*%
%TD*%
%TA.AperFunction,ComponentPad*%
%ADD16R,1.500000X1.500000*%
%TD*%
%TA.AperFunction,ComponentPad*%
%ADD17C,1.500000*%
%TD*%
%TA.AperFunction,ComponentPad*%
%ADD18R,1.800000X1.800000*%
%TD*%
%TA.AperFunction,ComponentPad*%
%ADD19C,1.800000*%
%TD*%
%TA.AperFunction,ViaPad*%
%ADD20C,0.900000*%
%TD*%
%TA.AperFunction,ViaPad*%
%ADD21C,0.700000*%
%TD*%
%TA.AperFunction,Conductor*%
%ADD22C,0.600000*%
%TD*%
%TA.AperFunction,Conductor*%
%ADD23C,0.250000*%
%TD*%
G04 APERTURE END LIST*
D10*
%TO.P,BZ1,1*%
%TO.N,+3V3*%
X126700000Y-106000000D03*
D11*
%TO.P,BZ1,2*%
%TO.N,BUZ_K*%
X134300000Y-106000000D03*
%TD*%
D12*
%TO.P,R4,1*%
%TO.N,BUZ*%
X132600000Y-114000000D03*
%TO.P,R4,2*%
%TO.N,BUZ_B*%
X132600000Y-124160000D03*
%TD*%
%TO.P,C4,1*%
%TO.N,+3V3*%
X122600000Y-109000000D03*
%TO.P,C4,2*%
%TO.N,GND*%
X122600000Y-111500000D03*
%TD*%
D13*
%TO.P,C3,1*%
%TO.N,+3V3*%
X123250000Y-124300000D03*
D12*
%TO.P,C3,2*%
%TO.N,GND*%
X125750000Y-124300000D03*
%TD*%
D14*
%TO.P,J4,1*%
%TO.N,RFID_SS*%
X118100000Y-129500000D03*
D15*
%TO.P,J4,2*%
%TO.N,RFID_SCK*%
X118100000Y-126960000D03*
%TO.P,J4,3*%
%TO.N,RFID_MOSI*%
X118100000Y-124420000D03*
%TO.P,J4,4*%
%TO.N,RFID_MISO*%
X118100000Y-121880000D03*
%TO.P,J4,5*%
%TO.N,N/C*%
X118100000Y-119340000D03*
%TO.P,J4,6*%
%TO.N,GND*%
X118100000Y-116800000D03*
%TO.P,J4,7*%
%TO.N,RFID_RST*%
X118100000Y-114260000D03*
%TO.P,J4,8*%
%TO.N,+3V3*%
X118100000Y-111720000D03*
%TD*%
D13*
%TO.P,D1,1*%
%TO.N,+3V3*%
X123000000Y-129500000D03*
D12*
%TO.P,D1,2*%
%TO.N,BUZ_K*%
X130620000Y-129500000D03*
%TD*%
%TO.P,R1,1*%
%TO.N,LED_R_IO*%
X45000000Y-110000000D03*
%TO.P,R1,2*%
%TO.N,LED_R*%
X45000000Y-120160000D03*
%TD*%
D14*
%TO.P,J3,1*%
%TO.N,+3V3*%
X137000000Y-85680000D03*
D15*
%TO.P,J3,2*%
%TO.N,GND*%
X137000000Y-83140000D03*
%TO.P,J3,3*%
%TO.N,LCD_CS*%
X137000000Y-80600000D03*
%TO.P,J3,4*%
%TO.N,LCD_RST*%
X137000000Y-78060000D03*
%TO.P,J3,5*%
%TO.N,LCD_DC*%
X137000000Y-75520000D03*
%TO.P,J3,6*%
%TO.N,LCD_MOSI*%
X137000000Y-72980000D03*
%TO.P,J3,7*%
%TO.N,LCD_SCK*%
X137000000Y-70440000D03*
%TO.P,J3,8*%
%TO.N,LCD_LED*%
X137000000Y-67900000D03*
%TO.P,J3,9*%
%TO.N,N/C*%
X137000000Y-65360000D03*
%TO.P,J3,10*%
%TO.N,T_CLK*%
X137000000Y-62820000D03*
%TO.P,J3,11*%
%TO.N,T_CS*%
X137000000Y-60280000D03*
%TO.P,J3,12*%
%TO.N,T_DIN*%
X137000000Y-57740000D03*
%TO.P,J3,13*%
%TO.N,T_OUT*%
X137000000Y-55200000D03*
%TO.P,J3,14*%
%TO.N,N/C*%
X137000000Y-52660000D03*
%TD*%
D13*
%TO.P,C1,1*%
%TO.N,+3V3*%
X48250000Y-128000000D03*
D12*
%TO.P,C1,2*%
%TO.N,GND*%
X51750000Y-128000000D03*
%TD*%
D16*
%TO.P,Q1,1*%
%TO.N,GND*%
X124000000Y-116000000D03*
D17*
%TO.P,Q1,2*%
%TO.N,BUZ_B*%
X126540000Y-116000000D03*
%TO.P,Q1,3*%
%TO.N,BUZ_K*%
X129080000Y-116000000D03*
%TD*%
D12*
%TO.P,R3,1*%
%TO.N,LED_B_IO*%
X54000000Y-110000000D03*
%TO.P,R3,2*%
%TO.N,LED_B*%
X54000000Y-120160000D03*
%TD*%
%TO.P,C2,1*%
%TO.N,+3V3*%
X132500000Y-87500000D03*
%TO.P,C2,2*%
%TO.N,GND*%
X132500000Y-90000000D03*
%TD*%
%TO.P,R6,1*%
%TO.N,LCD_LED*%
X54000000Y-48000000D03*
%TO.P,R6,2*%
%TO.N,GND*%
X64160000Y-48000000D03*
%TD*%
%TO.P,R5,1*%
%TO.N,BUZ_B*%
X137200000Y-114000000D03*
%TO.P,R5,2*%
%TO.N,GND*%
X137200000Y-124160000D03*
%TD*%
%TO.P,R2,1*%
%TO.N,LED_G_IO*%
X49500000Y-110000000D03*
%TO.P,R2,2*%
%TO.N,LED_G*%
X49500000Y-120160000D03*
%TD*%
D18*
%TO.P,D2,1*%
%TO.N,LED_R*%
X46000000Y-104000000D03*
D19*
%TO.P,D2,2*%
%TO.N,GND*%
X48159000Y-104000000D03*
%TO.P,D2,3*%
%TO.N,LED_G*%
X50318000Y-104000000D03*
%TO.P,D2,4*%
%TO.N,LED_B*%
X52477000Y-104000000D03*
%TD*%
D14*
%TO.P,J1,1*%
%TO.N,N/C*%
X85960000Y-81700000D03*
D15*
%TO.P,J1,2*%
X83420000Y-81700000D03*
%TO.P,J1,3*%
X80880000Y-81700000D03*
%TO.P,J1,4*%
X78340000Y-81700000D03*
%TO.P,J1,5*%
%TO.N,RFID_MISO*%
X75800000Y-81700000D03*
%TO.P,J1,6*%
%TO.N,RFID_RST*%
X73260000Y-81700000D03*
%TO.P,J1,7*%
%TO.N,RFID_SS*%
X70720000Y-81700000D03*
%TO.P,J1,8*%
%TO.N,LED_R_IO*%
X68180000Y-81700000D03*
%TO.P,J1,9*%
%TO.N,LED_G_IO*%
X65640000Y-81700000D03*
%TO.P,J1,10*%
%TO.N,LED_B_IO*%
X63100000Y-81700000D03*
%TO.P,J1,11*%
%TO.N,RFID_SCK*%
X60560000Y-81700000D03*
%TO.P,J1,12*%
%TO.N,N/C*%
X58020000Y-81700000D03*
%TO.P,J1,13*%
%TO.N,RFID_MOSI*%
X55480000Y-81700000D03*
%TO.P,J1,14*%
%TO.N,GND*%
X52940000Y-81700000D03*
%TO.P,J1,15*%
%TO.N,N/C*%
X50400000Y-81700000D03*
%TD*%
D14*
%TO.P,J2,1*%
%TO.N,LCD_MOSI*%
X85960000Y-56300000D03*
D15*
%TO.P,J2,2*%
%TO.N,T_CLK*%
X83420000Y-56300000D03*
%TO.P,J2,3*%
%TO.N,N/C*%
X80880000Y-56300000D03*
%TO.P,J2,4*%
X78340000Y-56300000D03*
%TO.P,J2,5*%
%TO.N,T_DIN*%
X75800000Y-56300000D03*
%TO.P,J2,6*%
%TO.N,T_OUT*%
X73260000Y-56300000D03*
%TO.P,J2,7*%
%TO.N,LCD_SCK*%
X70720000Y-56300000D03*
%TO.P,J2,8*%
%TO.N,LCD_CS*%
X68180000Y-56300000D03*
%TO.P,J2,9*%
%TO.N,BUZ*%
X65640000Y-56300000D03*
%TO.P,J2,10*%
%TO.N,LCD_DC*%
X63100000Y-56300000D03*
%TO.P,J2,11*%
%TO.N,LCD_RST*%
X60560000Y-56300000D03*
%TO.P,J2,12*%
%TO.N,LCD_LED*%
X58020000Y-56300000D03*
%TO.P,J2,13*%
%TO.N,T_CS*%
X55480000Y-56300000D03*
%TO.P,J2,14*%
%TO.N,GND*%
X52940000Y-56300000D03*
%TO.P,J2,15*%
%TO.N,+3V3*%
X50400000Y-56300000D03*
%TD*%
D20*
%TO.N,+3V3*%
X118341100Y-78674500D03*
D21*
%TO.N,BUZ*%
X72198700Y-80705100D03*
%TO.N,LCD_DC*%
X129282300Y-51992400D03*
X63100000Y-51992400D03*
%TO.N,LCD_MOSI*%
X90001700Y-58153900D03*
%TO.N,LCD_SCK*%
X91070600Y-57816500D03*
%TO.N,LED_G_IO*%
X55700500Y-107275600D03*
%TD*%
%TO.N,+3V3*%
D22*
X126700000Y-106000000D02*
X126700000Y-104498300D01*
X46599800Y-98810200D02*
X44586300Y-100823700D01*
X123250000Y-129250000D02*
X123250000Y-124300000D01*
X44586300Y-100823700D02*
X44586300Y-106975200D01*
X46599800Y-60100200D02*
X46599800Y-98810200D01*
X133039400Y-88698400D02*
X133039300Y-88698300D01*
X118341100Y-111478900D02*
X118341100Y-109000000D01*
X50400000Y-56300000D02*
X46599800Y-60100200D01*
X137000000Y-85680000D02*
X135648300Y-85680000D01*
X135648300Y-85680000D02*
X135648300Y-86256100D01*
X118341100Y-109000000D02*
X118341100Y-78674500D01*
X135648300Y-86256100D02*
X133206000Y-88698400D01*
X118100000Y-111720000D02*
X118341100Y-111478900D01*
X123000000Y-129500000D02*
X123250000Y-129250000D01*
X47248600Y-109637500D02*
X47248600Y-126998600D01*
X44586300Y-106975200D02*
X47248600Y-109637500D01*
X47248600Y-126998600D02*
X48250000Y-128000000D01*
X118341100Y-109000000D02*
X122600000Y-109000000D01*
X133206000Y-88698400D02*
X133039400Y-88698400D01*
X131960800Y-88698300D02*
X126700000Y-93959100D01*
X126700000Y-93959100D02*
X126700000Y-104498300D01*
X133039300Y-88698300D02*
X131960800Y-88698300D01*
%TO.N,BUZ_K*%
D23*
X129080000Y-116000000D02*
X129080000Y-127960000D01*
X129080000Y-127960000D02*
X130620000Y-129500000D01*
%TO.N,BUZ*%
X65640000Y-74146400D02*
X65640000Y-56300000D01*
X72198700Y-80705100D02*
X65640000Y-74146400D01*
%TO.N,BUZ_B*%
X129492900Y-114876800D02*
X132600000Y-117983900D01*
X137200000Y-114000000D02*
X133216100Y-117983900D01*
X126540000Y-116000000D02*
X127663200Y-114876800D01*
X133216100Y-117983900D02*
X132600000Y-117983900D01*
X132600000Y-117983900D02*
X132600000Y-124160000D01*
X127663200Y-114876800D02*
X129492900Y-114876800D01*
%TO.N,GND*%
D22*
X125003500Y-109096500D02*
X122600000Y-111500000D01*
X52940000Y-81700000D02*
X52940000Y-99219000D01*
X137000000Y-83140000D02*
X135019100Y-83140000D01*
X52940000Y-99219000D02*
X48159000Y-104000000D01*
X124000000Y-116000000D02*
X124000000Y-114748300D01*
X124000000Y-116000000D02*
X124000000Y-117251700D01*
X135019100Y-83140000D02*
X125003500Y-93155600D01*
X124000000Y-114748300D02*
X122600000Y-113348300D01*
X48159000Y-124409000D02*
X51750000Y-128000000D01*
X118100000Y-116800000D02*
X119148300Y-116800000D01*
X48159000Y-104000000D02*
X48159000Y-124409000D01*
X125003500Y-93155600D02*
X125003500Y-109096500D01*
X125750000Y-124300000D02*
X125750000Y-119001700D01*
X119148300Y-116800000D02*
X122600000Y-113348300D01*
X122600000Y-113348300D02*
X122600000Y-111500000D01*
X125750000Y-119001700D02*
X124000000Y-117251700D01*
X52940000Y-81700000D02*
X52940000Y-56300000D01*
%TO.N,RFID_SS*%
D23*
X85371800Y-96351800D02*
X102329800Y-96351800D01*
X116923300Y-127514400D02*
X117732200Y-128323300D01*
X102329800Y-96351800D02*
X116923300Y-110945300D01*
X117732200Y-128323300D02*
X118100000Y-128323300D01*
X116923300Y-110945300D02*
X116923300Y-127514400D01*
X118100000Y-129500000D02*
X118100000Y-128323300D01*
X70720000Y-81700000D02*
X85371800Y-96351800D01*
%TO.N,LCD_DC*%
X129282300Y-67802300D02*
X129282300Y-51992400D01*
X137000000Y-75520000D02*
X129282300Y-67802300D01*
X63100000Y-56300000D02*
X63100000Y-51992400D01*
%TO.N,LCD_MOSI*%
X85960000Y-56300000D02*
X88147800Y-56300000D01*
X88147800Y-56300000D02*
X90001700Y-58153900D01*
%TO.N,LCD_SCK*%
X73250700Y-58830700D02*
X90289100Y-58830700D01*
X91070600Y-58049200D02*
X91070600Y-57816500D01*
X70720000Y-56300000D02*
X73250700Y-58830700D01*
X90289100Y-58830700D02*
X91070600Y-58049200D01*
%TO.N,LCD_LED*%
X58020000Y-56300000D02*
X58020000Y-52020000D01*
X58020000Y-52020000D02*
X54000000Y-48000000D01*
%TO.N,LED_B_IO*%
X54000000Y-90800000D02*
X54000000Y-110000000D01*
X63100000Y-81700000D02*
X54000000Y-90800000D01*
%TO.N,LED_B*%
X52477000Y-118637000D02*
X54000000Y-120160000D01*
X52477000Y-104000000D02*
X52477000Y-118637000D01*
%TO.N,LED_G_IO*%
X55700500Y-91639500D02*
X65640000Y-81700000D01*
X55700500Y-107275600D02*
X55700500Y-91639500D01*
%TO.N,LED_G*%
X50318000Y-104000000D02*
X50690200Y-104372200D01*
X50690200Y-104372200D02*
X50690200Y-118969800D01*
X50690200Y-118969800D02*
X49500000Y-120160000D01*
%TD*%
%TA.AperFunction,Conductor*%
%TO.N,GND*%
G36*
X139425000Y-40520462D02*
G01*
X139479538Y-40575000D01*
X139499500Y-40649500D01*
X139499500Y-139350500D01*
X139479538Y-139425000D01*
X139425000Y-139479538D01*
X139350500Y-139499500D01*
X102649000Y-139499500D01*
X102574500Y-139479538D01*
X102519962Y-139425000D01*
X102500000Y-139350500D01*
X102500000Y-137572782D01*
X102519962Y-137498282D01*
X102574500Y-137443744D01*
X102649000Y-137423782D01*
X102723500Y-137443744D01*
X102778037Y-137498281D01*
X102808064Y-137550289D01*
X102955735Y-137742738D01*
X103127262Y-137914265D01*
X103319711Y-138061936D01*
X103529788Y-138183224D01*
X103753900Y-138276054D01*
X103988211Y-138338838D01*
X103988217Y-138338838D01*
X103988218Y-138338839D01*
X104053600Y-138347446D01*
X104228712Y-138370500D01*
X104471288Y-138370500D01*
X104711789Y-138338838D01*
X104946100Y-138276054D01*
X105170212Y-138183224D01*
X105380289Y-138061936D01*
X105572738Y-137914265D01*
X105744265Y-137742738D01*
X105891936Y-137550289D01*
X106013224Y-137340212D01*
X106106054Y-137116100D01*
X106168838Y-136881789D01*
X106200500Y-136641288D01*
X106200500Y-136398712D01*
X106168838Y-136158211D01*
X106106054Y-135923900D01*
X106087334Y-135878706D01*
X134149500Y-135878706D01*
X134149500Y-136121293D01*
X134181160Y-136361781D01*
X134243947Y-136596103D01*
X134264236Y-136645085D01*
X134336776Y-136820212D01*
X134458064Y-137030289D01*
X134605735Y-137222738D01*
X134777262Y-137394265D01*
X134969711Y-137541936D01*
X135179788Y-137663224D01*
X135403900Y-137756054D01*
X135638211Y-137818838D01*
X135638217Y-137818838D01*
X135638218Y-137818839D01*
X135703600Y-137827446D01*
X135878712Y-137850500D01*
X136121288Y-137850500D01*
X136361789Y-137818838D01*
X136596100Y-137756054D01*
X136820212Y-137663224D01*
X137030289Y-137541936D01*
X137222738Y-137394265D01*
X137394265Y-137222738D01*
X137541936Y-137030289D01*
X137663224Y-136820212D01*
X137756054Y-136596100D01*
X137818838Y-136361789D01*
X137850500Y-136121288D01*
X137850500Y-135878712D01*
X137818838Y-135638211D01*
X137756054Y-135403900D01*
X137663224Y-135179788D01*
X137541936Y-134969711D01*
X137394265Y-134777262D01*
X137222738Y-134605735D01*
X137030289Y-134458064D01*
X136960263Y-134417634D01*
X136820216Y-134336778D01*
X136820214Y-134336777D01*
X136820212Y-134336776D01*
X136688932Y-134282398D01*
X136596103Y-134243947D01*
X136596101Y-134243946D01*
X136596100Y-134243946D01*
X136361789Y-134181162D01*
X136361787Y-134181161D01*
X136361781Y-134181160D01*
X136121293Y-134149500D01*
X136121288Y-134149500D01*
X135878712Y-134149500D01*
X135878706Y-134149500D01*
X135638218Y-134181160D01*
X135403896Y-134243947D01*
X135179783Y-134336778D01*
X134969712Y-134458063D01*
X134969711Y-134458064D01*
X134777262Y-134605735D01*
X134777260Y-134605736D01*
X134777256Y-134605740D01*
X134605740Y-134777256D01*
X134458063Y-134969712D01*
X134336778Y-135179783D01*
X134243947Y-135403896D01*
X134181160Y-135638218D01*
X134149500Y-135878706D01*
X106087334Y-135878706D01*
X106013224Y-135699788D01*
X105891936Y-135489711D01*
X105744265Y-135297262D01*
X105572738Y-135125735D01*
X105380289Y-134978064D01*
X105310263Y-134937634D01*
X105170216Y-134856778D01*
X105170214Y-134856777D01*
X105170212Y-134856776D01*
X104978248Y-134777262D01*
X104946103Y-134763947D01*
X104946101Y-134763946D01*
X104946100Y-134763946D01*
X104711789Y-134701162D01*
X104711787Y-134701161D01*
X104711781Y-134701160D01*
X104471293Y-134669500D01*
X104471288Y-134669500D01*
X104228712Y-134669500D01*
X104228706Y-134669500D01*
X103988218Y-134701160D01*
X103753896Y-134763947D01*
X103529783Y-134856778D01*
X103319712Y-134978063D01*
X103319711Y-134978064D01*
X103127262Y-135125735D01*
X103127260Y-135125736D01*
X103127256Y-135125740D01*
X102955740Y-135297256D01*
X102808061Y-135489714D01*
X102778037Y-135541718D01*
X102723499Y-135596255D01*
X102648999Y-135616217D01*
X102574499Y-135596254D01*
X102519962Y-135541716D01*
X102500000Y-135467217D01*
X102500000Y-102572782D01*
X102519962Y-102498282D01*
X102574500Y-102443744D01*
X102649000Y-102423782D01*
X102723500Y-102443744D01*
X102778037Y-102498281D01*
X102808064Y-102550289D01*
X102955735Y-102742738D01*
X103127262Y-102914265D01*
X103319711Y-103061936D01*
X103529788Y-103183224D01*
X103753900Y-103276054D01*
X103988211Y-103338838D01*
X103988217Y-103338838D01*
X103988218Y-103338839D01*
X104053600Y-103347446D01*
X104228712Y-103370500D01*
X104471288Y-103370500D01*
X104711789Y-103338838D01*
X104946100Y-103276054D01*
X105170212Y-103183224D01*
X105380289Y-103061936D01*
X105572738Y-102914265D01*
X105744265Y-102742738D01*
X105891936Y-102550289D01*
X106013224Y-102340212D01*
X106106054Y-102116100D01*
X106168838Y-101881789D01*
X106200500Y-101641288D01*
X106200500Y-101398712D01*
X106192138Y-101335197D01*
X106202204Y-101258731D01*
X106249157Y-101197541D01*
X106320413Y-101168025D01*
X106396882Y-101178091D01*
X106445222Y-101210391D01*
X116354159Y-111119328D01*
X116392723Y-111186123D01*
X116397800Y-111224687D01*
X116397800Y-127436071D01*
X116397799Y-127436089D01*
X116397799Y-127583583D01*
X116418131Y-127659463D01*
X116418132Y-127659463D01*
X116418132Y-127659464D01*
X116423613Y-127679920D01*
X116433613Y-127717238D01*
X116502795Y-127837065D01*
X116609125Y-127943395D01*
X116609131Y-127943400D01*
X116897869Y-128232138D01*
X116936433Y-128298933D01*
X116936433Y-128376061D01*
X116925270Y-128405142D01*
X116864354Y-128524694D01*
X116864354Y-128524696D01*
X116849500Y-128618481D01*
X116849500Y-128618482D01*
X116849500Y-128618485D01*
X116849500Y-130381518D01*
X116860642Y-130451865D01*
X116864354Y-130475304D01*
X116921950Y-130588342D01*
X117011658Y-130678050D01*
X117124696Y-130735646D01*
X117218481Y-130750500D01*
X118981518Y-130750499D01*
X119075304Y-130735646D01*
X119188342Y-130678050D01*
X119278050Y-130588342D01*
X119335646Y-130475304D01*
X119350500Y-130381519D01*
X119350499Y-128884306D01*
X121799500Y-128884306D01*
X121799500Y-130115694D01*
X121800563Y-130129195D01*
X121802402Y-130152571D01*
X121829046Y-130244279D01*
X121848256Y-130310398D01*
X121931919Y-130451865D01*
X122048135Y-130568081D01*
X122189602Y-130651744D01*
X122347428Y-130697597D01*
X122347427Y-130697597D01*
X122347431Y-130697598D01*
X122384306Y-130700500D01*
X122384313Y-130700500D01*
X123615687Y-130700500D01*
X123615694Y-130700500D01*
X123652569Y-130697598D01*
X123810398Y-130651744D01*
X123951865Y-130568081D01*
X124068081Y-130451865D01*
X124151744Y-130310398D01*
X124197598Y-130152569D01*
X124200500Y-130115694D01*
X124200500Y-128884306D01*
X124197598Y-128847431D01*
X124151744Y-128689602D01*
X124068081Y-128548135D01*
X123994141Y-128474195D01*
X123955577Y-128407400D01*
X123950500Y-128368836D01*
X123950500Y-125595544D01*
X123970462Y-125521044D01*
X124025000Y-125466506D01*
X124057938Y-125452458D01*
X124060398Y-125451744D01*
X124201865Y-125368081D01*
X124318081Y-125251865D01*
X124401744Y-125110398D01*
X124415246Y-125063923D01*
X124421895Y-125051050D01*
X124438430Y-125032887D01*
X124451151Y-125011882D01*
X124463969Y-125004834D01*
X124473818Y-124994017D01*
X124497216Y-124986556D01*
X124518739Y-124974724D01*
X124533365Y-124975030D01*
X124547301Y-124970587D01*
X124571295Y-124975824D01*
X124595850Y-124976339D01*
X124608361Y-124983915D01*
X124622655Y-124987036D01*
X124640817Y-125003571D01*
X124661823Y-125016292D01*
X124669828Y-125025866D01*
X124670524Y-125025921D01*
X125350000Y-124346445D01*
X125350000Y-124352661D01*
X125377259Y-124454394D01*
X125429920Y-124545606D01*
X125504394Y-124620080D01*
X125595606Y-124672741D01*
X125697339Y-124700000D01*
X125703553Y-124700000D01*
X125024077Y-125379474D01*
X125024077Y-125379475D01*
X125068645Y-125411856D01*
X125250967Y-125504753D01*
X125250979Y-125504758D01*
X125445583Y-125567989D01*
X125647693Y-125600000D01*
X125852307Y-125600000D01*
X126054416Y-125567989D01*
X126249020Y-125504758D01*
X126249038Y-125504751D01*
X126431345Y-125411861D01*
X126431352Y-125411857D01*
X126475921Y-125379475D01*
X126475921Y-125379474D01*
X125796447Y-124700000D01*
X125802661Y-124700000D01*
X125904394Y-124672741D01*
X125995606Y-124620080D01*
X126070080Y-124545606D01*
X126122741Y-124454394D01*
X126150000Y-124352661D01*
X126150000Y-124346447D01*
X126829474Y-125025921D01*
X126829475Y-125025921D01*
X126861857Y-124981352D01*
X126861861Y-124981345D01*
X126954751Y-124799038D01*
X126954758Y-124799020D01*
X127017989Y-124604416D01*
X127050000Y-124402307D01*
X127050000Y-124197692D01*
X127017989Y-123995583D01*
X126954758Y-123800979D01*
X126954753Y-123800967D01*
X126861856Y-123618645D01*
X126829474Y-123574077D01*
X126150000Y-124253551D01*
X126150000Y-124247339D01*
X126122741Y-124145606D01*
X126070080Y-124054394D01*
X125995606Y-123979920D01*
X125904394Y-123927259D01*
X125802661Y-123900000D01*
X125796446Y-123900000D01*
X126475921Y-123220524D01*
X126431350Y-123188141D01*
X126249032Y-123095246D01*
X126249020Y-123095241D01*
X126054416Y-123032010D01*
X125852307Y-123000000D01*
X125647693Y-123000000D01*
X125445583Y-123032010D01*
X125250979Y-123095241D01*
X125250961Y-123095248D01*
X125068664Y-123188132D01*
X125068651Y-123188140D01*
X125024077Y-123220523D01*
X125703554Y-123900000D01*
X125697339Y-123900000D01*
X125595606Y-123927259D01*
X125504394Y-123979920D01*
X125429920Y-124054394D01*
X125377259Y-124145606D01*
X125350000Y-124247339D01*
X125350000Y-124253554D01*
X124670523Y-123574077D01*
X124667188Y-123574339D01*
X124614887Y-123616694D01*
X124538709Y-123628760D01*
X124466703Y-123601120D01*
X124421896Y-123548949D01*
X124415244Y-123536069D01*
X124401744Y-123489602D01*
X124318081Y-123348135D01*
X124201865Y-123231919D01*
X124096320Y-123169500D01*
X124060400Y-123148257D01*
X124060399Y-123148256D01*
X124060398Y-123148256D01*
X123969523Y-123121854D01*
X123902571Y-123102402D01*
X123902572Y-123102402D01*
X123891506Y-123101531D01*
X123865694Y-123099500D01*
X122634306Y-123099500D01*
X122609722Y-123101434D01*
X122597428Y-123102402D01*
X122439599Y-123148257D01*
X122298136Y-123231918D01*
X122298133Y-123231920D01*
X122181920Y-123348133D01*
X122181918Y-123348136D01*
X122098257Y-123489599D01*
X122052402Y-123647428D01*
X122052402Y-123647431D01*
X122049500Y-123684306D01*
X122049500Y-124915694D01*
X122051575Y-124942063D01*
X122052402Y-124952571D01*
X122069634Y-125011882D01*
X122098256Y-125110398D01*
X122181919Y-125251865D01*
X122298135Y-125368081D01*
X122439602Y-125451744D01*
X122442059Y-125452458D01*
X122444083Y-125453683D01*
X122448205Y-125455467D01*
X122447960Y-125456031D01*
X122508034Y-125492406D01*
X122545196Y-125559990D01*
X122549500Y-125595544D01*
X122549500Y-128150500D01*
X122529538Y-128225000D01*
X122475000Y-128279538D01*
X122400500Y-128299500D01*
X122384306Y-128299500D01*
X122359722Y-128301434D01*
X122347428Y-128302402D01*
X122189599Y-128348257D01*
X122048136Y-128431918D01*
X122048133Y-128431920D01*
X121931920Y-128548133D01*
X121931918Y-128548136D01*
X121848257Y-128689599D01*
X121802402Y-128847428D01*
X121802402Y-128847431D01*
X121799500Y-128884306D01*
X119350499Y-128884306D01*
X119350499Y-128618482D01*
X119350057Y-128615694D01*
X119339358Y-128548136D01*
X119335646Y-128524696D01*
X119278050Y-128411658D01*
X119188342Y-128321950D01*
X119143169Y-128298933D01*
X119075305Y-128264354D01*
X119059673Y-128261878D01*
X118981519Y-128249500D01*
X118981514Y-128249500D01*
X118911209Y-128249500D01*
X118836709Y-128229538D01*
X118782171Y-128175000D01*
X118762209Y-128100500D01*
X118782171Y-128026000D01*
X118823628Y-127979957D01*
X118832919Y-127973206D01*
X118914646Y-127913828D01*
X119053828Y-127774646D01*
X119169524Y-127615405D01*
X119258884Y-127440025D01*
X119319709Y-127252826D01*
X119350500Y-127058417D01*
X119350500Y-126861583D01*
X119319709Y-126667174D01*
X119258884Y-126479975D01*
X119169524Y-126304595D01*
X119053828Y-126145354D01*
X118914646Y-126006172D01*
X118755405Y-125890476D01*
X118622503Y-125822759D01*
X118565186Y-125771152D01*
X118541352Y-125697799D01*
X118557388Y-125622356D01*
X118608996Y-125565038D01*
X118622504Y-125557240D01*
X118755405Y-125489524D01*
X118914646Y-125373828D01*
X119053828Y-125234646D01*
X119169524Y-125075405D01*
X119258884Y-124900025D01*
X119319709Y-124712826D01*
X119350500Y-124518417D01*
X119350500Y-124321583D01*
X119319709Y-124127174D01*
X119258884Y-123939975D01*
X119169524Y-123764595D01*
X119053828Y-123605354D01*
X118914646Y-123466172D01*
X118755405Y-123350476D01*
X118622503Y-123282759D01*
X118565186Y-123231152D01*
X118541352Y-123157799D01*
X118557388Y-123082356D01*
X118608996Y-123025038D01*
X118622504Y-123017240D01*
X118755405Y-122949524D01*
X118914646Y-122833828D01*
X119053828Y-122694646D01*
X119169524Y-122535405D01*
X119258884Y-122360025D01*
X119319709Y-122172826D01*
X119350500Y-121978417D01*
X119350500Y-121781583D01*
X119319709Y-121587174D01*
X119258884Y-121399975D01*
X119169524Y-121224595D01*
X119053828Y-121065354D01*
X118914646Y-120926172D01*
X118755405Y-120810476D01*
X118622503Y-120742759D01*
X118565186Y-120691152D01*
X118541352Y-120617799D01*
X118557388Y-120542356D01*
X118608996Y-120485038D01*
X118622504Y-120477240D01*
X118755405Y-120409524D01*
X118914646Y-120293828D01*
X119053828Y-120154646D01*
X119169524Y-119995405D01*
X119258884Y-119820025D01*
X119319709Y-119632826D01*
X119350500Y-119438417D01*
X119350500Y-119241583D01*
X119319709Y-119047174D01*
X119258884Y-118859975D01*
X119169524Y-118684595D01*
X119053828Y-118525354D01*
X118914646Y-118386172D01*
X118755406Y-118270476D01*
X118732087Y-118258595D01*
X118674770Y-118206986D01*
X118650936Y-118133632D01*
X118666972Y-118058190D01*
X118718581Y-118000873D01*
X118732087Y-117993075D01*
X118807555Y-117954621D01*
X118807557Y-117954620D01*
X118861716Y-117915270D01*
X118861716Y-117915269D01*
X118229409Y-117282962D01*
X118292993Y-117265925D01*
X118407007Y-117200099D01*
X118500099Y-117107007D01*
X118565925Y-116992993D01*
X118582962Y-116929409D01*
X119215269Y-117561716D01*
X119215270Y-117561716D01*
X119254620Y-117507557D01*
X119254622Y-117507555D01*
X119351093Y-117318220D01*
X119416757Y-117116128D01*
X119450000Y-116906242D01*
X119450000Y-116693757D01*
X119416757Y-116483871D01*
X119351093Y-116281776D01*
X119337922Y-116255928D01*
X119337921Y-116255927D01*
X119254621Y-116092444D01*
X119215270Y-116038282D01*
X118582962Y-116670589D01*
X118565925Y-116607007D01*
X118500099Y-116492993D01*
X118407007Y-116399901D01*
X118292993Y-116334075D01*
X118229408Y-116317037D01*
X118861716Y-115684729D01*
X118861716Y-115684728D01*
X118807555Y-115645378D01*
X118807550Y-115645374D01*
X118732086Y-115606923D01*
X118674769Y-115555314D01*
X118650936Y-115481961D01*
X118666973Y-115406518D01*
X118718582Y-115349201D01*
X118732082Y-115341407D01*
X118755405Y-115329524D01*
X118914646Y-115213828D01*
X118926297Y-115202177D01*
X122750000Y-115202177D01*
X122750000Y-115750000D01*
X123684314Y-115750000D01*
X123679920Y-115754394D01*
X123627259Y-115845606D01*
X123600000Y-115947339D01*
X123600000Y-116052661D01*
X123627259Y-116154394D01*
X123679920Y-116245606D01*
X123684314Y-116250000D01*
X122750000Y-116250000D01*
X122750000Y-116797822D01*
X122750001Y-116797842D01*
X122756401Y-116857377D01*
X122806645Y-116992084D01*
X122806650Y-116992094D01*
X122892809Y-117107187D01*
X122892812Y-117107190D01*
X123007905Y-117193349D01*
X123007915Y-117193354D01*
X123142623Y-117243598D01*
X123142621Y-117243598D01*
X123202157Y-117249998D01*
X123202177Y-117250000D01*
X123750000Y-117250000D01*
X123750000Y-116315686D01*
X123754394Y-116320080D01*
X123845606Y-116372741D01*
X123947339Y-116400000D01*
X124052661Y-116400000D01*
X124154394Y-116372741D01*
X124245606Y-116320080D01*
X124250000Y-116315686D01*
X124250000Y-117250000D01*
X124797823Y-117250000D01*
X124797842Y-117249998D01*
X124857377Y-117243598D01*
X124992084Y-117193354D01*
X124992094Y-117193349D01*
X125107187Y-117107190D01*
X125107190Y-117107187D01*
X125193349Y-116992094D01*
X125193354Y-116992084D01*
X125243598Y-116857377D01*
X125249998Y-116797842D01*
X125250000Y-116797822D01*
X125250000Y-116623057D01*
X125269962Y-116548557D01*
X125324500Y-116494019D01*
X125399000Y-116474057D01*
X125473500Y-116494019D01*
X125528038Y-116548557D01*
X125531760Y-116555412D01*
X125556005Y-116602995D01*
X125556005Y-116602996D01*
X125598719Y-116661787D01*
X125662447Y-116749501D01*
X125790499Y-116877553D01*
X125937006Y-116983996D01*
X126098361Y-117066211D01*
X126270591Y-117122171D01*
X126449454Y-117150500D01*
X126449458Y-117150500D01*
X126630542Y-117150500D01*
X126630546Y-117150500D01*
X126809409Y-117122171D01*
X126981639Y-117066211D01*
X127142994Y-116983996D01*
X127289501Y-116877553D01*
X127417553Y-116749501D01*
X127523996Y-116602994D01*
X127606211Y-116441639D01*
X127662171Y-116269409D01*
X127662834Y-116265223D01*
X127694204Y-116194762D01*
X127756602Y-116149427D01*
X127833307Y-116141364D01*
X127903768Y-116172734D01*
X127949103Y-116235132D01*
X127957166Y-116265223D01*
X127957828Y-116269408D01*
X127991403Y-116372741D01*
X128013789Y-116441639D01*
X128050066Y-116512837D01*
X128096005Y-116602995D01*
X128096005Y-116602996D01*
X128138719Y-116661787D01*
X128202447Y-116749501D01*
X128330499Y-116877553D01*
X128477006Y-116983996D01*
X128477011Y-116983999D01*
X128481987Y-116987048D01*
X128480818Y-116988955D01*
X128530419Y-117033570D01*
X128554292Y-117106911D01*
X128554500Y-117114787D01*
X128554500Y-127881671D01*
X128554499Y-127881689D01*
X128554499Y-128029183D01*
X128578959Y-128120467D01*
X128590310Y-128162831D01*
X128590311Y-128162834D01*
X128659495Y-128282665D01*
X128765825Y-128388995D01*
X128765831Y-128389000D01*
X129420460Y-129043629D01*
X129459024Y-129110424D01*
X129459024Y-129187552D01*
X129456810Y-129195028D01*
X129449060Y-129218880D01*
X129449060Y-129218882D01*
X129419500Y-129405519D01*
X129419500Y-129594481D01*
X129449060Y-129781118D01*
X129507453Y-129960832D01*
X129593240Y-130129199D01*
X129704310Y-130282073D01*
X129837927Y-130415690D01*
X129990801Y-130526760D01*
X130159168Y-130612547D01*
X130338882Y-130670940D01*
X130525519Y-130700500D01*
X130525524Y-130700500D01*
X130714476Y-130700500D01*
X130714481Y-130700500D01*
X130901118Y-130670940D01*
X131080832Y-130612547D01*
X131249199Y-130526760D01*
X131402073Y-130415690D01*
X131535690Y-130282073D01*
X131646760Y-130129199D01*
X131732547Y-129960832D01*
X131790940Y-129781118D01*
X131820500Y-129594481D01*
X131820500Y-129405519D01*
X131790940Y-129218882D01*
X131732547Y-129039168D01*
X131646760Y-128870801D01*
X131535690Y-128717927D01*
X131402073Y-128584310D01*
X131249199Y-128473240D01*
X131083868Y-128389000D01*
X131080842Y-128387458D01*
X131080841Y-128387457D01*
X131080832Y-128387453D01*
X130901118Y-128329060D01*
X130714481Y-128299500D01*
X130525519Y-128299500D01*
X130395580Y-128320080D01*
X130338880Y-128329060D01*
X130315028Y-128336810D01*
X130238006Y-128340844D01*
X130169285Y-128305827D01*
X130163629Y-128300460D01*
X129649141Y-127785972D01*
X129610577Y-127719177D01*
X129605500Y-127680613D01*
X129605500Y-117114787D01*
X129625462Y-117040287D01*
X129678274Y-116987474D01*
X129678013Y-116987048D01*
X129679789Y-116985959D01*
X129680000Y-116985749D01*
X129681165Y-116985116D01*
X129682982Y-116984002D01*
X129682994Y-116983996D01*
X129829501Y-116877553D01*
X129957553Y-116749501D01*
X130063996Y-116602994D01*
X130109935Y-116512832D01*
X130161541Y-116455519D01*
X130234894Y-116431684D01*
X130310336Y-116447719D01*
X130348052Y-116475121D01*
X132030859Y-118157928D01*
X132069423Y-118224723D01*
X132074500Y-118263287D01*
X132074500Y-122989095D01*
X132054538Y-123063595D01*
X132000000Y-123118133D01*
X131993146Y-123121854D01*
X131970804Y-123133237D01*
X131970799Y-123133241D01*
X131817936Y-123244303D01*
X131817925Y-123244312D01*
X131684312Y-123377925D01*
X131684303Y-123377936D01*
X131573241Y-123530799D01*
X131573238Y-123530804D01*
X131487458Y-123699157D01*
X131487455Y-123699163D01*
X131487453Y-123699168D01*
X131429060Y-123878882D01*
X131399500Y-124065519D01*
X131399500Y-124254481D01*
X131429060Y-124441118D01*
X131487453Y-124620832D01*
X131573240Y-124789199D01*
X131684310Y-124942073D01*
X131817927Y-125075690D01*
X131970801Y-125186760D01*
X132139168Y-125272547D01*
X132318882Y-125330940D01*
X132505519Y-125360500D01*
X132505524Y-125360500D01*
X132694476Y-125360500D01*
X132694481Y-125360500D01*
X132881118Y-125330940D01*
X133060832Y-125272547D01*
X133229199Y-125186760D01*
X133382073Y-125075690D01*
X133515690Y-124942073D01*
X133626760Y-124789199D01*
X133712547Y-124620832D01*
X133770940Y-124441118D01*
X133800500Y-124254481D01*
X133800500Y-124065519D01*
X133799260Y-124057692D01*
X135900000Y-124057692D01*
X135900000Y-124262307D01*
X135932010Y-124464416D01*
X135995241Y-124659020D01*
X135995246Y-124659032D01*
X136088141Y-124841349D01*
X136088141Y-124841350D01*
X136120524Y-124885921D01*
X136800000Y-124206445D01*
X136800000Y-124212661D01*
X136827259Y-124314394D01*
X136879920Y-124405606D01*
X136954394Y-124480080D01*
X137045606Y-124532741D01*
X137147339Y-124560000D01*
X137153553Y-124560000D01*
X136474077Y-125239474D01*
X136474077Y-125239475D01*
X136518645Y-125271856D01*
X136700967Y-125364753D01*
X136700979Y-125364758D01*
X136895583Y-125427989D01*
X137097693Y-125460000D01*
X137302307Y-125460000D01*
X137504416Y-125427989D01*
X137699020Y-125364758D01*
X137699038Y-125364751D01*
X137881345Y-125271861D01*
X137881352Y-125271857D01*
X137925921Y-125239475D01*
X137925921Y-125239474D01*
X137246447Y-124560000D01*
X137252661Y-124560000D01*
X137354394Y-124532741D01*
X137445606Y-124480080D01*
X137520080Y-124405606D01*
X137572741Y-124314394D01*
X137600000Y-124212661D01*
X137600000Y-124206447D01*
X138279474Y-124885921D01*
X138279475Y-124885921D01*
X138311857Y-124841352D01*
X138311861Y-124841345D01*
X138404751Y-124659038D01*
X138404758Y-124659020D01*
X138467989Y-124464416D01*
X138500000Y-124262307D01*
X138500000Y-124057692D01*
X138467989Y-123855583D01*
X138404758Y-123660979D01*
X138404753Y-123660967D01*
X138311856Y-123478645D01*
X138279474Y-123434077D01*
X137600000Y-124113551D01*
X137600000Y-124107339D01*
X137572741Y-124005606D01*
X137520080Y-123914394D01*
X137445606Y-123839920D01*
X137354394Y-123787259D01*
X137252661Y-123760000D01*
X137246446Y-123760000D01*
X137925921Y-123080524D01*
X137881350Y-123048141D01*
X137699032Y-122955246D01*
X137699020Y-122955241D01*
X137504416Y-122892010D01*
X137302307Y-122860000D01*
X137097693Y-122860000D01*
X136895583Y-122892010D01*
X136700979Y-122955241D01*
X136700961Y-122955248D01*
X136518664Y-123048132D01*
X136518651Y-123048140D01*
X136474077Y-123080523D01*
X137153554Y-123760000D01*
X137147339Y-123760000D01*
X137045606Y-123787259D01*
X136954394Y-123839920D01*
X136879920Y-123914394D01*
X136827259Y-124005606D01*
X136800000Y-124107339D01*
X136800000Y-124113554D01*
X136120523Y-123434077D01*
X136088140Y-123478651D01*
X136088132Y-123478664D01*
X135995248Y-123660961D01*
X135995241Y-123660979D01*
X135932010Y-123855583D01*
X135900000Y-124057692D01*
X133799260Y-124057692D01*
X133770940Y-123878882D01*
X133712547Y-123699168D01*
X133626760Y-123530801D01*
X133515690Y-123377927D01*
X133382073Y-123244310D01*
X133229199Y-123133240D01*
X133197514Y-123117095D01*
X133188933Y-123111076D01*
X133170669Y-123089272D01*
X133149537Y-123070244D01*
X133146245Y-123060114D01*
X133139407Y-123051950D01*
X133134492Y-123023940D01*
X133125704Y-122996891D01*
X133125500Y-122989095D01*
X133125500Y-118658401D01*
X133145462Y-118583901D01*
X133200000Y-118529363D01*
X133274500Y-118509401D01*
X133285280Y-118509401D01*
X133285283Y-118509401D01*
X133394588Y-118480112D01*
X133418936Y-118473588D01*
X133538765Y-118404405D01*
X133636605Y-118306565D01*
X133636605Y-118306563D01*
X133648867Y-118294302D01*
X133648871Y-118294297D01*
X136743630Y-115199537D01*
X136810423Y-115160975D01*
X136887551Y-115160975D01*
X136895031Y-115163191D01*
X136918876Y-115170939D01*
X136918881Y-115170939D01*
X136918882Y-115170940D01*
X137105519Y-115200500D01*
X137105524Y-115200500D01*
X137294476Y-115200500D01*
X137294481Y-115200500D01*
X137481118Y-115170940D01*
X137660832Y-115112547D01*
X137829199Y-115026760D01*
X137982073Y-114915690D01*
X138115690Y-114782073D01*
X138226760Y-114629199D01*
X138312547Y-114460832D01*
X138370940Y-114281118D01*
X138400500Y-114094481D01*
X138400500Y-113905519D01*
X138370940Y-113718882D01*
X138312547Y-113539168D01*
X138226760Y-113370801D01*
X138115690Y-113217927D01*
X137982073Y-113084310D01*
X137829199Y-112973240D01*
X137781094Y-112948729D01*
X137660842Y-112887458D01*
X137660841Y-112887457D01*
X137660832Y-112887453D01*
X137481118Y-112829060D01*
X137294481Y-112799500D01*
X137105519Y-112799500D01*
X136918882Y-112829060D01*
X136739168Y-112887453D01*
X136739163Y-112887455D01*
X136739157Y-112887458D01*
X136570804Y-112973238D01*
X136570799Y-112973241D01*
X136417936Y-113084303D01*
X136417925Y-113084312D01*
X136284312Y-113217925D01*
X136284303Y-113217936D01*
X136173241Y-113370799D01*
X136173238Y-113370804D01*
X136087458Y-113539157D01*
X136087455Y-113539163D01*
X136087453Y-113539168D01*
X136029060Y-113718882D01*
X135999500Y-113905519D01*
X135999500Y-114094481D01*
X136029060Y-114281117D01*
X136029060Y-114281118D01*
X136036809Y-114304967D01*
X136040845Y-114381990D01*
X136005829Y-114450711D01*
X136000460Y-114456369D01*
X133042072Y-117414759D01*
X132975277Y-117453323D01*
X132936713Y-117458400D01*
X132879387Y-117458400D01*
X132804887Y-117438438D01*
X132774028Y-117414759D01*
X129921900Y-114562631D01*
X129921898Y-114562628D01*
X129815565Y-114456295D01*
X129695734Y-114387111D01*
X129667492Y-114379543D01*
X129667491Y-114379543D01*
X129562083Y-114351299D01*
X129423717Y-114351299D01*
X129414588Y-114351299D01*
X129414572Y-114351300D01*
X127741529Y-114351300D01*
X127741513Y-114351299D01*
X127732384Y-114351299D01*
X127594017Y-114351299D01*
X127460361Y-114387112D01*
X127340537Y-114456293D01*
X127340534Y-114456295D01*
X126956688Y-114840140D01*
X126889893Y-114878704D01*
X126815222Y-114878704D01*
X126815104Y-114879196D01*
X126813054Y-114878704D01*
X126812765Y-114878704D01*
X126811524Y-114878336D01*
X126809413Y-114877829D01*
X126719977Y-114863664D01*
X126630546Y-114849500D01*
X126449454Y-114849500D01*
X126270591Y-114877829D01*
X126098360Y-114933789D01*
X125937004Y-115016005D01*
X125937003Y-115016005D01*
X125790500Y-115122446D01*
X125790497Y-115122448D01*
X125662448Y-115250497D01*
X125662446Y-115250500D01*
X125556005Y-115397003D01*
X125556001Y-115397009D01*
X125531759Y-115444588D01*
X125480150Y-115501905D01*
X125406797Y-115525738D01*
X125331354Y-115509701D01*
X125274037Y-115458092D01*
X125250204Y-115384739D01*
X125250000Y-115376942D01*
X125250000Y-115202177D01*
X125249998Y-115202157D01*
X125243598Y-115142622D01*
X125193354Y-115007915D01*
X125193349Y-115007905D01*
X125107190Y-114892812D01*
X125107187Y-114892809D01*
X124992094Y-114806650D01*
X124992084Y-114806645D01*
X124857376Y-114756401D01*
X124857378Y-114756401D01*
X124797842Y-114750001D01*
X124797823Y-114750000D01*
X124250000Y-114750000D01*
X124250000Y-115684314D01*
X124245606Y-115679920D01*
X124154394Y-115627259D01*
X124052661Y-115600000D01*
X123947339Y-115600000D01*
X123845606Y-115627259D01*
X123754394Y-115679920D01*
X123750000Y-115684314D01*
X123750000Y-114750000D01*
X123202177Y-114750000D01*
X123202157Y-114750001D01*
X123142622Y-114756401D01*
X123007915Y-114806645D01*
X123007905Y-114806650D01*
X122892812Y-114892809D01*
X122892809Y-114892812D01*
X122806650Y-115007905D01*
X122806645Y-115007915D01*
X122756401Y-115142622D01*
X122750001Y-115202157D01*
X122750000Y-115202177D01*
X118926297Y-115202177D01*
X119053828Y-115074646D01*
X119169524Y-114915405D01*
X119258884Y-114740025D01*
X119319709Y-114552826D01*
X119350500Y-114358417D01*
X119350500Y-114161583D01*
X119319709Y-113967174D01*
X119299676Y-113905519D01*
X131399500Y-113905519D01*
X131399500Y-114094481D01*
X131429060Y-114281118D01*
X131487453Y-114460832D01*
X131573240Y-114629199D01*
X131684310Y-114782073D01*
X131817927Y-114915690D01*
X131970801Y-115026760D01*
X132139168Y-115112547D01*
X132318882Y-115170940D01*
X132505519Y-115200500D01*
X132505524Y-115200500D01*
X132694476Y-115200500D01*
X132694481Y-115200500D01*
X132881118Y-115170940D01*
X133060832Y-115112547D01*
X133229199Y-115026760D01*
X133382073Y-114915690D01*
X133515690Y-114782073D01*
X133626760Y-114629199D01*
X133712547Y-114460832D01*
X133770940Y-114281118D01*
X133800500Y-114094481D01*
X133800500Y-113905519D01*
X133770940Y-113718882D01*
X133712547Y-113539168D01*
X133626760Y-113370801D01*
X133515690Y-113217927D01*
X133382073Y-113084310D01*
X133229199Y-112973240D01*
X133181094Y-112948729D01*
X133060842Y-112887458D01*
X133060841Y-112887457D01*
X133060832Y-112887453D01*
X132881118Y-112829060D01*
X132694481Y-112799500D01*
X132505519Y-112799500D01*
X132318882Y-112829060D01*
X132139168Y-112887453D01*
X132139163Y-112887455D01*
X132139157Y-112887458D01*
X131970804Y-112973238D01*
X131970799Y-112973241D01*
X131817936Y-113084303D01*
X131817925Y-113084312D01*
X131684312Y-113217925D01*
X131684303Y-113217936D01*
X131573241Y-113370799D01*
X131573238Y-113370804D01*
X131487458Y-113539157D01*
X131487455Y-113539163D01*
X131487453Y-113539168D01*
X131429060Y-113718882D01*
X131399500Y-113905519D01*
X119299676Y-113905519D01*
X119258884Y-113779975D01*
X119169524Y-113604595D01*
X119053828Y-113445354D01*
X118914646Y-113306172D01*
X118755405Y-113190476D01*
X118622503Y-113122759D01*
X118565186Y-113071152D01*
X118541352Y-112997799D01*
X118557388Y-112922356D01*
X118608996Y-112865038D01*
X118622504Y-112857240D01*
X118755405Y-112789524D01*
X118914646Y-112673828D01*
X119053828Y-112534646D01*
X119169524Y-112375405D01*
X119258884Y-112200025D01*
X119319709Y-112012826D01*
X119350500Y-111818417D01*
X119350500Y-111621583D01*
X119319709Y-111427174D01*
X119258884Y-111239975D01*
X119169524Y-111064595D01*
X119070057Y-110927691D01*
X119042416Y-110855686D01*
X119041600Y-110840111D01*
X119041600Y-109849500D01*
X119061562Y-109775000D01*
X119116100Y-109720462D01*
X119190600Y-109700500D01*
X121549124Y-109700500D01*
X121623624Y-109720462D01*
X121669667Y-109761919D01*
X121684310Y-109782073D01*
X121817927Y-109915690D01*
X121970801Y-110026760D01*
X122038792Y-110061403D01*
X122038794Y-110061404D01*
X122096111Y-110113013D01*
X122119945Y-110186366D01*
X122103909Y-110261809D01*
X122052300Y-110319126D01*
X122038794Y-110326924D01*
X121918659Y-110388135D01*
X121918651Y-110388140D01*
X121874077Y-110420523D01*
X122553554Y-111100000D01*
X122547339Y-111100000D01*
X122445606Y-111127259D01*
X122354394Y-111179920D01*
X122279920Y-111254394D01*
X122227259Y-111345606D01*
X122200000Y-111447339D01*
X122200000Y-111453554D01*
X121520523Y-110774077D01*
X121488140Y-110818651D01*
X121488132Y-110818664D01*
X121395248Y-111000961D01*
X121395241Y-111000979D01*
X121332010Y-111195583D01*
X121300000Y-111397692D01*
X121300000Y-111602307D01*
X121332010Y-111804416D01*
X121395241Y-111999020D01*
X121395246Y-111999032D01*
X121488141Y-112181349D01*
X121488141Y-112181350D01*
X121520524Y-112225921D01*
X122200000Y-111546445D01*
X122200000Y-111552661D01*
X122227259Y-111654394D01*
X122279920Y-111745606D01*
X122354394Y-111820080D01*
X122445606Y-111872741D01*
X122547339Y-111900000D01*
X122553553Y-111900000D01*
X121874077Y-112579474D01*
X121874077Y-112579475D01*
X121918645Y-112611856D01*
X122100967Y-112704753D01*
X122100979Y-112704758D01*
X122295583Y-112767989D01*
X122497693Y-112800000D01*
X122702307Y-112800000D01*
X122904416Y-112767989D01*
X123099020Y-112704758D01*
X123099038Y-112704751D01*
X123281345Y-112611861D01*
X123281352Y-112611857D01*
X123325921Y-112579475D01*
X123325921Y-112579474D01*
X122646447Y-111900000D01*
X122652661Y-111900000D01*
X122754394Y-111872741D01*
X122845606Y-111820080D01*
X122920080Y-111745606D01*
X122972741Y-111654394D01*
X123000000Y-111552661D01*
X123000000Y-111546447D01*
X123679474Y-112225921D01*
X123679475Y-112225921D01*
X123711857Y-112181352D01*
X123711861Y-112181345D01*
X123804751Y-111999038D01*
X123804758Y-111999020D01*
X123867989Y-111804416D01*
X123900000Y-111602307D01*
X123900000Y-111397692D01*
X123867989Y-111195583D01*
X123804758Y-111000979D01*
X123804753Y-111000967D01*
X123711856Y-110818645D01*
X123679474Y-110774077D01*
X123000000Y-111453551D01*
X123000000Y-111447339D01*
X122972741Y-111345606D01*
X122920080Y-111254394D01*
X122845606Y-111179920D01*
X122754394Y-111127259D01*
X122652661Y-111100000D01*
X122646446Y-111100000D01*
X123325921Y-110420524D01*
X123281350Y-110388141D01*
X123281344Y-110388138D01*
X123161205Y-110326924D01*
X123103887Y-110275315D01*
X123080053Y-110201962D01*
X123096089Y-110126520D01*
X123147698Y-110069202D01*
X123161190Y-110061411D01*
X123229199Y-110026760D01*
X123382073Y-109915690D01*
X123515690Y-109782073D01*
X123626760Y-109629199D01*
X123712547Y-109460832D01*
X123770940Y-109281118D01*
X123800500Y-109094481D01*
X123800500Y-108905519D01*
X123770940Y-108718882D01*
X123712547Y-108539168D01*
X123626760Y-108370801D01*
X123515690Y-108217927D01*
X123382073Y-108084310D01*
X123229199Y-107973240D01*
X123060832Y-107887453D01*
X122881118Y-107829060D01*
X122694481Y-107799500D01*
X122505519Y-107799500D01*
X122318882Y-107829060D01*
X122139168Y-107887453D01*
X122139163Y-107887455D01*
X122139157Y-107887458D01*
X121970804Y-107973238D01*
X121970799Y-107973241D01*
X121817936Y-108084303D01*
X121817931Y-108084306D01*
X121817927Y-108084310D01*
X121817925Y-108084312D01*
X121817924Y-108084313D01*
X121684312Y-108217924D01*
X121684307Y-108217930D01*
X121669667Y-108238081D01*
X121609726Y-108286619D01*
X121549124Y-108299500D01*
X119190600Y-108299500D01*
X119116100Y-108279538D01*
X119061562Y-108225000D01*
X119041600Y-108150500D01*
X119041600Y-104968481D01*
X125299500Y-104968481D01*
X125299500Y-104968482D01*
X125299500Y-104968485D01*
X125299500Y-107031518D01*
X125314354Y-107125304D01*
X125371950Y-107238342D01*
X125461658Y-107328050D01*
X125574696Y-107385646D01*
X125668481Y-107400500D01*
X127731518Y-107400499D01*
X127825304Y-107385646D01*
X127938342Y-107328050D01*
X128028050Y-107238342D01*
X128085646Y-107125304D01*
X128100500Y-107031519D01*
X128100499Y-105889778D01*
X132899500Y-105889778D01*
X132899500Y-106110222D01*
X132914826Y-106206990D01*
X132933985Y-106327956D01*
X133002105Y-106537606D01*
X133102185Y-106734023D01*
X133102186Y-106734024D01*
X133148075Y-106797185D01*
X133231758Y-106912365D01*
X133387635Y-107068242D01*
X133530625Y-107172129D01*
X133565975Y-107197813D01*
X133565976Y-107197814D01*
X133565978Y-107197815D01*
X133762394Y-107297895D01*
X133849512Y-107326201D01*
X133972043Y-107366014D01*
X133972048Y-107366014D01*
X133972049Y-107366015D01*
X134189778Y-107400500D01*
X134189782Y-107400500D01*
X134410218Y-107400500D01*
X134410222Y-107400500D01*
X134627951Y-107366015D01*
X134627952Y-107366014D01*
X134627956Y-107366014D01*
X134708556Y-107339825D01*
X134837606Y-107297895D01*
X135034022Y-107197815D01*
X135212365Y-107068242D01*
X135368242Y-106912365D01*
X135497815Y-106734022D01*
X135597895Y-106537606D01*
X135639825Y-106408556D01*
X135666014Y-106327956D01*
X135666015Y-106327951D01*
X135700500Y-106110222D01*
X135700500Y-105889778D01*
X135666015Y-105672049D01*
X135666014Y-105672048D01*
X135666014Y-105672043D01*
X135626201Y-105549512D01*
X135597895Y-105462394D01*
X135497815Y-105265978D01*
X135368242Y-105087635D01*
X135212365Y-104931758D01*
X135096008Y-104847220D01*
X135034024Y-104802186D01*
X135034023Y-104802185D01*
X134837606Y-104702105D01*
X134627956Y-104633985D01*
X134504006Y-104614354D01*
X134410222Y-104599500D01*
X134189778Y-104599500D01*
X134102686Y-104613294D01*
X133972043Y-104633985D01*
X133762393Y-104702105D01*
X133565976Y-104802185D01*
X133565975Y-104802186D01*
X133387636Y-104931757D01*
X133387633Y-104931759D01*
X133231763Y-105087630D01*
X133231757Y-105087636D01*
X133102186Y-105265975D01*
X133102185Y-105265976D01*
X133002105Y-105462393D01*
X132933985Y-105672043D01*
X132910995Y-105817201D01*
X132899500Y-105889778D01*
X128100499Y-105889778D01*
X128100499Y-104968482D01*
X128085646Y-104874696D01*
X128028050Y-104761658D01*
X127938342Y-104671950D01*
X127863832Y-104633985D01*
X127825305Y-104614354D01*
X127809673Y-104611878D01*
X127731519Y-104599500D01*
X127731514Y-104599500D01*
X127549500Y-104599500D01*
X127475000Y-104579538D01*
X127420462Y-104525000D01*
X127400500Y-104450500D01*
X127400500Y-94310974D01*
X127420462Y-94236474D01*
X127444137Y-94205619D01*
X127851050Y-93798706D01*
X134149500Y-93798706D01*
X134149500Y-94041293D01*
X134181160Y-94281781D01*
X134181161Y-94281787D01*
X134181162Y-94281789D01*
X134243946Y-94516100D01*
X134336776Y-94740212D01*
X134458064Y-94950289D01*
X134605735Y-95142738D01*
X134777262Y-95314265D01*
X134969711Y-95461936D01*
X135179788Y-95583224D01*
X135403900Y-95676054D01*
X135638211Y-95738838D01*
X135638217Y-95738838D01*
X135638218Y-95738839D01*
X135703600Y-95747446D01*
X135878712Y-95770500D01*
X136121288Y-95770500D01*
X136361789Y-95738838D01*
X136596100Y-95676054D01*
X136820212Y-95583224D01*
X137030289Y-95461936D01*
X137222738Y-95314265D01*
X137394265Y-95142738D01*
X137541936Y-94950289D01*
X137663224Y-94740212D01*
X137756054Y-94516100D01*
X137818838Y-94281789D01*
X137850500Y-94041288D01*
X137850500Y-93798712D01*
X137818838Y-93558211D01*
X137756054Y-93323900D01*
X137663224Y-93099788D01*
X137541936Y-92889711D01*
X137394265Y-92697262D01*
X137222738Y-92525735D01*
X137030289Y-92378064D01*
X136960263Y-92337634D01*
X136820216Y-92256778D01*
X136820214Y-92256777D01*
X136820212Y-92256776D01*
X136688932Y-92202398D01*
X136596103Y-92163947D01*
X136596101Y-92163946D01*
X136596100Y-92163946D01*
X136361789Y-92101162D01*
X136361787Y-92101161D01*
X136361781Y-92101160D01*
X136121293Y-92069500D01*
X136121288Y-92069500D01*
X135878712Y-92069500D01*
X135878706Y-92069500D01*
X135638218Y-92101160D01*
X135403896Y-92163947D01*
X135179783Y-92256778D01*
X134969712Y-92378063D01*
X134969711Y-92378064D01*
X134777262Y-92525735D01*
X134777260Y-92525736D01*
X134777256Y-92525740D01*
X134605740Y-92697256D01*
X134458063Y-92889712D01*
X134336778Y-93099783D01*
X134243947Y-93323896D01*
X134181160Y-93558218D01*
X134149500Y-93798706D01*
X127851050Y-93798706D01*
X131101453Y-90548303D01*
X131168244Y-90509742D01*
X131245372Y-90509742D01*
X131312167Y-90548306D01*
X131339568Y-90586020D01*
X131388141Y-90681349D01*
X131388141Y-90681350D01*
X131420524Y-90725921D01*
X132100000Y-90046445D01*
X132100000Y-90052661D01*
X132127259Y-90154394D01*
X132179920Y-90245606D01*
X132254394Y-90320080D01*
X132345606Y-90372741D01*
X132447339Y-90400000D01*
X132453553Y-90400000D01*
X131774077Y-91079474D01*
X131774077Y-91079475D01*
X131818645Y-91111856D01*
X132000967Y-91204753D01*
X132000979Y-91204758D01*
X132195583Y-91267989D01*
X132397693Y-91300000D01*
X132602307Y-91300000D01*
X132804416Y-91267989D01*
X132999020Y-91204758D01*
X132999038Y-91204751D01*
X133181345Y-91111861D01*
X133181352Y-91111857D01*
X133225921Y-91079475D01*
X133225921Y-91079474D01*
X132546447Y-90400000D01*
X132552661Y-90400000D01*
X132654394Y-90372741D01*
X132745606Y-90320080D01*
X132820080Y-90245606D01*
X132872741Y-90154394D01*
X132900000Y-90052661D01*
X132900000Y-90046447D01*
X133579474Y-90725921D01*
X133579475Y-90725921D01*
X133611857Y-90681352D01*
X133611861Y-90681345D01*
X133704751Y-90499038D01*
X133704758Y-90499020D01*
X133767989Y-90304416D01*
X133800000Y-90102307D01*
X133800000Y-89897692D01*
X133767989Y-89695583D01*
X133704758Y-89500979D01*
X133704751Y-89500961D01*
X133649039Y-89391619D01*
X133633003Y-89316177D01*
X133656837Y-89242823D01*
X133676435Y-89218621D01*
X135931921Y-86963134D01*
X135998714Y-86924572D01*
X136060584Y-86921330D01*
X136118481Y-86930500D01*
X137881518Y-86930499D01*
X137975304Y-86915646D01*
X138088342Y-86858050D01*
X138178050Y-86768342D01*
X138235646Y-86655304D01*
X138250500Y-86561519D01*
X138250499Y-84798482D01*
X138235646Y-84704696D01*
X138178050Y-84591658D01*
X138088342Y-84501950D01*
X137975305Y-84444354D01*
X137958750Y-84441732D01*
X137885685Y-84430159D01*
X137815228Y-84398790D01*
X137769893Y-84336392D01*
X137760455Y-84271305D01*
X137761716Y-84255269D01*
X137129409Y-83622962D01*
X137192993Y-83605925D01*
X137307007Y-83540099D01*
X137400099Y-83447007D01*
X137465925Y-83332993D01*
X137482962Y-83269409D01*
X138115269Y-83901716D01*
X138115270Y-83901716D01*
X138154620Y-83847557D01*
X138154622Y-83847555D01*
X138251093Y-83658220D01*
X138316757Y-83456128D01*
X138350000Y-83246242D01*
X138350000Y-83033757D01*
X138316757Y-82823871D01*
X138251093Y-82621779D01*
X138154621Y-82432444D01*
X138115270Y-82378282D01*
X137482962Y-83010589D01*
X137465925Y-82947007D01*
X137400099Y-82832993D01*
X137307007Y-82739901D01*
X137192993Y-82674075D01*
X137129407Y-82657037D01*
X137761716Y-82024729D01*
X137761716Y-82024728D01*
X137707555Y-81985378D01*
X137707550Y-81985374D01*
X137632086Y-81946923D01*
X137574769Y-81895314D01*
X137550936Y-81821961D01*
X137566973Y-81746518D01*
X137618582Y-81689201D01*
X137632082Y-81681407D01*
X137655405Y-81669524D01*
X137814646Y-81553828D01*
X137953828Y-81414646D01*
X138069524Y-81255405D01*
X138158884Y-81080025D01*
X138219709Y-80892826D01*
X138250500Y-80698417D01*
X138250500Y-80501583D01*
X138219709Y-80307174D01*
X138158884Y-80119975D01*
X138069524Y-79944595D01*
X137953828Y-79785354D01*
X137814646Y-79646172D01*
X137655405Y-79530476D01*
X137522503Y-79462759D01*
X137465186Y-79411152D01*
X137441352Y-79337799D01*
X137457388Y-79262356D01*
X137508996Y-79205038D01*
X137522504Y-79197240D01*
X137655405Y-79129524D01*
X137814646Y-79013828D01*
X137953828Y-78874646D01*
X138069524Y-78715405D01*
X138158884Y-78540025D01*
X138219709Y-78352826D01*
X138250500Y-78158417D01*
X138250500Y-77961583D01*
X138219709Y-77767174D01*
X138158884Y-77579975D01*
X138069524Y-77404595D01*
X137953828Y-77245354D01*
X137814646Y-77106172D01*
X137655405Y-76990476D01*
X137522503Y-76922759D01*
X137465186Y-76871152D01*
X137441352Y-76797799D01*
X137457388Y-76722356D01*
X137508996Y-76665038D01*
X137522504Y-76657240D01*
X137655405Y-76589524D01*
X137814646Y-76473828D01*
X137953828Y-76334646D01*
X138069524Y-76175405D01*
X138158884Y-76000025D01*
X138219709Y-75812826D01*
X138250500Y-75618417D01*
X138250500Y-75421583D01*
X138219709Y-75227174D01*
X138158884Y-75039975D01*
X138069524Y-74864595D01*
X137953828Y-74705354D01*
X137814646Y-74566172D01*
X137655405Y-74450476D01*
X137522503Y-74382759D01*
X137465186Y-74331152D01*
X137441352Y-74257799D01*
X137457388Y-74182356D01*
X137508996Y-74125038D01*
X137522504Y-74117240D01*
X137655405Y-74049524D01*
X137814646Y-73933828D01*
X137953828Y-73794646D01*
X138069524Y-73635405D01*
X138158884Y-73460025D01*
X138219709Y-73272826D01*
X138250500Y-73078417D01*
X138250500Y-72881583D01*
X138219709Y-72687174D01*
X138158884Y-72499975D01*
X138069524Y-72324595D01*
X137953828Y-72165354D01*
X137814646Y-72026172D01*
X137655405Y-71910476D01*
X137522503Y-71842759D01*
X137465186Y-71791152D01*
X137441352Y-71717799D01*
X137457388Y-71642356D01*
X137508996Y-71585038D01*
X137522504Y-71577240D01*
X137655405Y-71509524D01*
X137814646Y-71393828D01*
X137953828Y-71254646D01*
X138069524Y-71095405D01*
X138158884Y-70920025D01*
X138219709Y-70732826D01*
X138250500Y-70538417D01*
X138250500Y-70341583D01*
X138219709Y-70147174D01*
X138158884Y-69959975D01*
X138069524Y-69784595D01*
X137953828Y-69625354D01*
X137814646Y-69486172D01*
X137655405Y-69370476D01*
X137522503Y-69302759D01*
X137465186Y-69251152D01*
X137441352Y-69177799D01*
X137457388Y-69102356D01*
X137508996Y-69045038D01*
X137522504Y-69037240D01*
X137655405Y-68969524D01*
X137814646Y-68853828D01*
X137953828Y-68714646D01*
X138069524Y-68555405D01*
X138158884Y-68380025D01*
X138219709Y-68192826D01*
X138250500Y-67998417D01*
X138250500Y-67801583D01*
X138219709Y-67607174D01*
X138158884Y-67419975D01*
X138069524Y-67244595D01*
X137953828Y-67085354D01*
X137814646Y-66946172D01*
X137655405Y-66830476D01*
X137522503Y-66762759D01*
X137465186Y-66711152D01*
X137441352Y-66637799D01*
X137457388Y-66562356D01*
X137508996Y-66505038D01*
X137522504Y-66497240D01*
X137655405Y-66429524D01*
X137814646Y-66313828D01*
X137953828Y-66174646D01*
X138069524Y-66015405D01*
X138158884Y-65840025D01*
X138219709Y-65652826D01*
X138250500Y-65458417D01*
X138250500Y-65261583D01*
X138219709Y-65067174D01*
X138158884Y-64879975D01*
X138069524Y-64704595D01*
X137953828Y-64545354D01*
X137814646Y-64406172D01*
X137655405Y-64290476D01*
X137522503Y-64222759D01*
X137465186Y-64171152D01*
X137441352Y-64097799D01*
X137457388Y-64022356D01*
X137508996Y-63965038D01*
X137522504Y-63957240D01*
X137655405Y-63889524D01*
X137814646Y-63773828D01*
X137953828Y-63634646D01*
X138069524Y-63475405D01*
X138158884Y-63300025D01*
X138219709Y-63112826D01*
X138250500Y-62918417D01*
X138250500Y-62721583D01*
X138219709Y-62527174D01*
X138158884Y-62339975D01*
X138069524Y-62164595D01*
X137953828Y-62005354D01*
X137814646Y-61866172D01*
X137655405Y-61750476D01*
X137522503Y-61682759D01*
X137465186Y-61631152D01*
X137441352Y-61557799D01*
X137457388Y-61482356D01*
X137508996Y-61425038D01*
X137522504Y-61417240D01*
X137655405Y-61349524D01*
X137814646Y-61233828D01*
X137953828Y-61094646D01*
X138069524Y-60935405D01*
X138158884Y-60760025D01*
X138219709Y-60572826D01*
X138250500Y-60378417D01*
X138250500Y-60181583D01*
X138219709Y-59987174D01*
X138158884Y-59799975D01*
X138069524Y-59624595D01*
X137953828Y-59465354D01*
X137814646Y-59326172D01*
X137655405Y-59210476D01*
X137522503Y-59142759D01*
X137465186Y-59091152D01*
X137441352Y-59017799D01*
X137457388Y-58942356D01*
X137508996Y-58885038D01*
X137522504Y-58877240D01*
X137655405Y-58809524D01*
X137814646Y-58693828D01*
X137953828Y-58554646D01*
X138069524Y-58395405D01*
X138158884Y-58220025D01*
X138219709Y-58032826D01*
X138250500Y-57838417D01*
X138250500Y-57641583D01*
X138219709Y-57447174D01*
X138158884Y-57259975D01*
X138155750Y-57253825D01*
X138118906Y-57181514D01*
X138069524Y-57084595D01*
X137953828Y-56925354D01*
X137814646Y-56786172D01*
X137655405Y-56670476D01*
X137522503Y-56602759D01*
X137465186Y-56551152D01*
X137441352Y-56477799D01*
X137457388Y-56402356D01*
X137508996Y-56345038D01*
X137522504Y-56337240D01*
X137655405Y-56269524D01*
X137814646Y-56153828D01*
X137953828Y-56014646D01*
X138069524Y-55855405D01*
X138158884Y-55680025D01*
X138219709Y-55492826D01*
X138250500Y-55298417D01*
X138250500Y-55101583D01*
X138219709Y-54907174D01*
X138158884Y-54719975D01*
X138069524Y-54544595D01*
X137953828Y-54385354D01*
X137814646Y-54246172D01*
X137655405Y-54130476D01*
X137522503Y-54062759D01*
X137465186Y-54011152D01*
X137441352Y-53937799D01*
X137457388Y-53862356D01*
X137508996Y-53805038D01*
X137522504Y-53797240D01*
X137655405Y-53729524D01*
X137814646Y-53613828D01*
X137953828Y-53474646D01*
X138069524Y-53315405D01*
X138158884Y-53140025D01*
X138219709Y-52952826D01*
X138250500Y-52758417D01*
X138250500Y-52561583D01*
X138219709Y-52367174D01*
X138158884Y-52179975D01*
X138069524Y-52004595D01*
X137953828Y-51845354D01*
X137814646Y-51706172D01*
X137655405Y-51590476D01*
X137645010Y-51585179D01*
X137480036Y-51501121D01*
X137480030Y-51501119D01*
X137480025Y-51501116D01*
X137292826Y-51440291D01*
X137098417Y-51409500D01*
X136901583Y-51409500D01*
X136707174Y-51440291D01*
X136519975Y-51501116D01*
X136519972Y-51501117D01*
X136519963Y-51501121D01*
X136344598Y-51590474D01*
X136344593Y-51590477D01*
X136185363Y-51706165D01*
X136185352Y-51706174D01*
X136046174Y-51845352D01*
X136046165Y-51845363D01*
X135930477Y-52004593D01*
X135930474Y-52004598D01*
X135841121Y-52179963D01*
X135841117Y-52179972D01*
X135841116Y-52179975D01*
X135780291Y-52367174D01*
X135749500Y-52561583D01*
X135749500Y-52758417D01*
X135780291Y-52952826D01*
X135841116Y-53140025D01*
X135841119Y-53140030D01*
X135841121Y-53140036D01*
X135925179Y-53305010D01*
X135930476Y-53315405D01*
X136046172Y-53474646D01*
X136185354Y-53613828D01*
X136344595Y-53729524D01*
X136412744Y-53764247D01*
X136477495Y-53797240D01*
X136534813Y-53848849D01*
X136558647Y-53922202D01*
X136542611Y-53997644D01*
X136491002Y-54054962D01*
X136477495Y-54062760D01*
X136344598Y-54130474D01*
X136344593Y-54130477D01*
X136185363Y-54246165D01*
X136185352Y-54246174D01*
X136046174Y-54385352D01*
X136046165Y-54385363D01*
X135930477Y-54544593D01*
X135930474Y-54544598D01*
X135841121Y-54719963D01*
X135841117Y-54719972D01*
X135841116Y-54719975D01*
X135780291Y-54907174D01*
X135749500Y-55101583D01*
X135749500Y-55298417D01*
X135780291Y-55492826D01*
X135841116Y-55680025D01*
X135841119Y-55680030D01*
X135841121Y-55680036D01*
X135912424Y-55819975D01*
X135930476Y-55855405D01*
X136046172Y-56014646D01*
X136185354Y-56153828D01*
X136344595Y-56269524D01*
X136404406Y-56299999D01*
X136477495Y-56337240D01*
X136534813Y-56388849D01*
X136558647Y-56462202D01*
X136542611Y-56537644D01*
X136491002Y-56594962D01*
X136477495Y-56602760D01*
X136344598Y-56670474D01*
X136344593Y-56670477D01*
X136185363Y-56786165D01*
X136185352Y-56786174D01*
X136046174Y-56925352D01*
X136046165Y-56925363D01*
X135930477Y-57084593D01*
X135930474Y-57084598D01*
X135841121Y-57259963D01*
X135841117Y-57259972D01*
X135841116Y-57259975D01*
X135780291Y-57447174D01*
X135749500Y-57641583D01*
X135749500Y-57838417D01*
X135780291Y-58032826D01*
X135841116Y-58220025D01*
X135841119Y-58220030D01*
X135841121Y-58220036D01*
X135925179Y-58385010D01*
X135930476Y-58395405D01*
X136046172Y-58554646D01*
X136185354Y-58693828D01*
X136344595Y-58809524D01*
X136412744Y-58844247D01*
X136477495Y-58877240D01*
X136534813Y-58928849D01*
X136558647Y-59002202D01*
X136542611Y-59077644D01*
X136491002Y-59134962D01*
X136477495Y-59142760D01*
X136344598Y-59210474D01*
X136344593Y-59210477D01*
X136185363Y-59326165D01*
X136185352Y-59326174D01*
X136046174Y-59465352D01*
X136046165Y-59465363D01*
X135930477Y-59624593D01*
X135930474Y-59624598D01*
X135841121Y-59799963D01*
X135841117Y-59799972D01*
X135841116Y-59799975D01*
X135780291Y-59987174D01*
X135749500Y-60181583D01*
X135749500Y-60378417D01*
X135780291Y-60572826D01*
X135841116Y-60760025D01*
X135841119Y-60760030D01*
X135841121Y-60760036D01*
X135925179Y-60925010D01*
X135930476Y-60935405D01*
X136046172Y-61094646D01*
X136185354Y-61233828D01*
X136344595Y-61349524D01*
X136412744Y-61384247D01*
X136477495Y-61417240D01*
X136534813Y-61468849D01*
X136558647Y-61542202D01*
X136542611Y-61617644D01*
X136491002Y-61674962D01*
X136477495Y-61682760D01*
X136344598Y-61750474D01*
X136344593Y-61750477D01*
X136185363Y-61866165D01*
X136185352Y-61866174D01*
X136046174Y-62005352D01*
X136046165Y-62005363D01*
X135930477Y-62164593D01*
X135930474Y-62164598D01*
X135841121Y-62339963D01*
X135841117Y-62339972D01*
X135841116Y-62339975D01*
X135780291Y-62527174D01*
X135749500Y-62721583D01*
X135749500Y-62918417D01*
X135780291Y-63112826D01*
X135841116Y-63300025D01*
X135841119Y-63300030D01*
X135841121Y-63300036D01*
X135925179Y-63465010D01*
X135930476Y-63475405D01*
X136046172Y-63634646D01*
X136185354Y-63773828D01*
X136344595Y-63889524D01*
X136412744Y-63924247D01*
X136477495Y-63957240D01*
X136534813Y-64008849D01*
X136558647Y-64082202D01*
X136542611Y-64157644D01*
X136491002Y-64214962D01*
X136477495Y-64222760D01*
X136344598Y-64290474D01*
X136344593Y-64290477D01*
X136185363Y-64406165D01*
X136185352Y-64406174D01*
X136046174Y-64545352D01*
X136046165Y-64545363D01*
X135930477Y-64704593D01*
X135930474Y-64704598D01*
X135841121Y-64879963D01*
X135841117Y-64879972D01*
X135841116Y-64879975D01*
X135780291Y-65067174D01*
X135749500Y-65261583D01*
X135749500Y-65458417D01*
X135780291Y-65652826D01*
X135841116Y-65840025D01*
X135841119Y-65840030D01*
X135841121Y-65840036D01*
X135925179Y-66005010D01*
X135930476Y-66015405D01*
X136046172Y-66174646D01*
X136185354Y-66313828D01*
X136344595Y-66429524D01*
X136412744Y-66464247D01*
X136477495Y-66497240D01*
X136534813Y-66548849D01*
X136558647Y-66622202D01*
X136542611Y-66697644D01*
X136491002Y-66754962D01*
X136477495Y-66762760D01*
X136344598Y-66830474D01*
X136344593Y-66830477D01*
X136185363Y-66946165D01*
X136185352Y-66946174D01*
X136046174Y-67085352D01*
X136046165Y-67085363D01*
X135930477Y-67244593D01*
X135930474Y-67244598D01*
X135841121Y-67419963D01*
X135841117Y-67419972D01*
X135841116Y-67419975D01*
X135780291Y-67607174D01*
X135749500Y-67801583D01*
X135749500Y-67998417D01*
X135780291Y-68192826D01*
X135841116Y-68380025D01*
X135841119Y-68380030D01*
X135841121Y-68380036D01*
X135925179Y-68545010D01*
X135930476Y-68555405D01*
X136046172Y-68714646D01*
X136185354Y-68853828D01*
X136344595Y-68969524D01*
X136412744Y-69004247D01*
X136477495Y-69037240D01*
X136534813Y-69088849D01*
X136558647Y-69162202D01*
X136542611Y-69237644D01*
X136491002Y-69294962D01*
X136477495Y-69302760D01*
X136344598Y-69370474D01*
X136344593Y-69370477D01*
X136185363Y-69486165D01*
X136185352Y-69486174D01*
X136046174Y-69625352D01*
X136046165Y-69625363D01*
X135930477Y-69784593D01*
X135930474Y-69784598D01*
X135841121Y-69959963D01*
X135841117Y-69959972D01*
X135841116Y-69959975D01*
X135780291Y-70147174D01*
X135749500Y-70341583D01*
X135749500Y-70538417D01*
X135780291Y-70732826D01*
X135841116Y-70920025D01*
X135841119Y-70920030D01*
X135841121Y-70920036D01*
X135925179Y-71085010D01*
X135930476Y-71095405D01*
X136046172Y-71254646D01*
X136185354Y-71393828D01*
X136344595Y-71509524D01*
X136412744Y-71544247D01*
X136477495Y-71577240D01*
X136534813Y-71628849D01*
X136558647Y-71702202D01*
X136542611Y-71777644D01*
X136491002Y-71834962D01*
X136477495Y-71842760D01*
X136344598Y-71910474D01*
X136344593Y-71910477D01*
X136185363Y-72026165D01*
X136185352Y-72026174D01*
X136046174Y-72165352D01*
X136046165Y-72165363D01*
X135930477Y-72324593D01*
X135930474Y-72324598D01*
X135841121Y-72499963D01*
X135841117Y-72499972D01*
X135841116Y-72499975D01*
X135780291Y-72687174D01*
X135749500Y-72881583D01*
X135749500Y-73078417D01*
X135757101Y-73126409D01*
X135762056Y-73157696D01*
X135753993Y-73234402D01*
X135708657Y-73296799D01*
X135638197Y-73328169D01*
X135561491Y-73320106D01*
X135509531Y-73286362D01*
X129851441Y-67628272D01*
X129812877Y-67561477D01*
X129807800Y-67522913D01*
X129807800Y-52589985D01*
X129827762Y-52515485D01*
X129851441Y-52484626D01*
X129865251Y-52470816D01*
X129947384Y-52347895D01*
X130003958Y-52211313D01*
X130032800Y-52066318D01*
X130032800Y-51918482D01*
X130003958Y-51773487D01*
X129947384Y-51636905D01*
X129947383Y-51636902D01*
X129898059Y-51563085D01*
X129865251Y-51513984D01*
X129760716Y-51409449D01*
X129735997Y-51392932D01*
X129637797Y-51327316D01*
X129532152Y-51283557D01*
X129501213Y-51270742D01*
X129501211Y-51270741D01*
X129501212Y-51270741D01*
X129356221Y-51241900D01*
X129356218Y-51241900D01*
X129208382Y-51241900D01*
X129208378Y-51241900D01*
X129063388Y-51270741D01*
X128926802Y-51327316D01*
X128803885Y-51409448D01*
X128803880Y-51409452D01*
X128699352Y-51513980D01*
X128699348Y-51513985D01*
X128617216Y-51636902D01*
X128560641Y-51773488D01*
X128531800Y-51918478D01*
X128531800Y-52066321D01*
X128560641Y-52211311D01*
X128617216Y-52347897D01*
X128682832Y-52446097D01*
X128699349Y-52470816D01*
X128699352Y-52470819D01*
X128713159Y-52484626D01*
X128751723Y-52551421D01*
X128756800Y-52589985D01*
X128756800Y-67723971D01*
X128756799Y-67723989D01*
X128756799Y-67871483D01*
X128785043Y-67976890D01*
X128792611Y-68005134D01*
X128861795Y-68124965D01*
X128968125Y-68231295D01*
X128968131Y-68231300D01*
X135760780Y-75023949D01*
X135799344Y-75090744D01*
X135799344Y-75167872D01*
X135797129Y-75175350D01*
X135780291Y-75227172D01*
X135780291Y-75227174D01*
X135749500Y-75421583D01*
X135749500Y-75618417D01*
X135780291Y-75812826D01*
X135841116Y-76000025D01*
X135841119Y-76000030D01*
X135841121Y-76000036D01*
X135925179Y-76165010D01*
X135930476Y-76175405D01*
X136046172Y-76334646D01*
X136185354Y-76473828D01*
X136344595Y-76589524D01*
X136412744Y-76624247D01*
X136477495Y-76657240D01*
X136534813Y-76708849D01*
X136558647Y-76782202D01*
X136542611Y-76857644D01*
X136491002Y-76914962D01*
X136477495Y-76922760D01*
X136344598Y-76990474D01*
X136344593Y-76990477D01*
X136185363Y-77106165D01*
X136185352Y-77106174D01*
X136046174Y-77245352D01*
X136046165Y-77245363D01*
X135930477Y-77404593D01*
X135930474Y-77404598D01*
X135841121Y-77579963D01*
X135841117Y-77579972D01*
X135841116Y-77579975D01*
X135780291Y-77767174D01*
X135749500Y-77961583D01*
X135749500Y-78158417D01*
X135780291Y-78352826D01*
X135841116Y-78540025D01*
X135841119Y-78540030D01*
X135841121Y-78540036D01*
X135925179Y-78705010D01*
X135930476Y-78715405D01*
X136046172Y-78874646D01*
X136185354Y-79013828D01*
X136344595Y-79129524D01*
X136398493Y-79156986D01*
X136477495Y-79197240D01*
X136534813Y-79248849D01*
X136558647Y-79322202D01*
X136542611Y-79397644D01*
X136491002Y-79454962D01*
X136477495Y-79462760D01*
X136344598Y-79530474D01*
X136344593Y-79530477D01*
X136185363Y-79646165D01*
X136185352Y-79646174D01*
X136046174Y-79785352D01*
X136046165Y-79785363D01*
X135930477Y-79944593D01*
X135930474Y-79944598D01*
X135841121Y-80119963D01*
X135841117Y-80119972D01*
X135841116Y-80119975D01*
X135780291Y-80307174D01*
X135749500Y-80501583D01*
X135749500Y-80698417D01*
X135780291Y-80892826D01*
X135841116Y-81080025D01*
X135841119Y-81080030D01*
X135841121Y-81080036D01*
X135912424Y-81219975D01*
X135930476Y-81255405D01*
X136046172Y-81414646D01*
X136185354Y-81553828D01*
X136344595Y-81669524D01*
X136367913Y-81681405D01*
X136425228Y-81733012D01*
X136449063Y-81806365D01*
X136433028Y-81881808D01*
X136381419Y-81939125D01*
X136367914Y-81946923D01*
X136292444Y-81985378D01*
X136238282Y-82024728D01*
X136238282Y-82024729D01*
X136870590Y-82657037D01*
X136807007Y-82674075D01*
X136692993Y-82739901D01*
X136599901Y-82832993D01*
X136534075Y-82947007D01*
X136517037Y-83010590D01*
X135884729Y-82378282D01*
X135884728Y-82378282D01*
X135845378Y-82432444D01*
X135748906Y-82621779D01*
X135683242Y-82823871D01*
X135650000Y-83033757D01*
X135650000Y-83246242D01*
X135683242Y-83456128D01*
X135748906Y-83658220D01*
X135845378Y-83847555D01*
X135884728Y-83901716D01*
X135884729Y-83901716D01*
X136517037Y-83269408D01*
X136534075Y-83332993D01*
X136599901Y-83447007D01*
X136692993Y-83540099D01*
X136807007Y-83605925D01*
X136870590Y-83622962D01*
X136238281Y-84255270D01*
X136239543Y-84271307D01*
X136225486Y-84347143D01*
X136175395Y-84405791D01*
X136114311Y-84430161D01*
X136024694Y-84444354D01*
X136024693Y-84444355D01*
X135911657Y-84501950D01*
X135821950Y-84591657D01*
X135764354Y-84704694D01*
X135764354Y-84704696D01*
X135749500Y-84798481D01*
X135749500Y-84798482D01*
X135749500Y-84798485D01*
X135749500Y-84830500D01*
X135729538Y-84905000D01*
X135675000Y-84959538D01*
X135600500Y-84979500D01*
X135579307Y-84979500D01*
X135443974Y-85006419D01*
X135443970Y-85006420D01*
X135316490Y-85059224D01*
X135316484Y-85059227D01*
X135201761Y-85135883D01*
X135201754Y-85135889D01*
X135104189Y-85233454D01*
X135104183Y-85233461D01*
X135027527Y-85348184D01*
X135027524Y-85348190D01*
X134974720Y-85475670D01*
X134974719Y-85475674D01*
X134947800Y-85611006D01*
X134947800Y-85904224D01*
X134927838Y-85978724D01*
X134904159Y-86009583D01*
X133846005Y-87067736D01*
X133779210Y-87106300D01*
X133702082Y-87106300D01*
X133635287Y-87067736D01*
X133607886Y-87030021D01*
X133526760Y-86870801D01*
X133415690Y-86717927D01*
X133282073Y-86584310D01*
X133129199Y-86473240D01*
X132960832Y-86387453D01*
X132781118Y-86329060D01*
X132594481Y-86299500D01*
X132405519Y-86299500D01*
X132218882Y-86329060D01*
X132039168Y-86387453D01*
X132039163Y-86387455D01*
X132039157Y-86387458D01*
X131870804Y-86473238D01*
X131870799Y-86473241D01*
X131717936Y-86584303D01*
X131717925Y-86584312D01*
X131584312Y-86717925D01*
X131584303Y-86717936D01*
X131473241Y-86870799D01*
X131473238Y-86870804D01*
X131387458Y-87039157D01*
X131387455Y-87039163D01*
X131387453Y-87039168D01*
X131329060Y-87218882D01*
X131299500Y-87405519D01*
X131299500Y-87594481D01*
X131329060Y-87781117D01*
X131387451Y-87960825D01*
X131387455Y-87960837D01*
X131412896Y-88010768D01*
X131446372Y-88076468D01*
X131462408Y-88151909D01*
X131438574Y-88225262D01*
X131418971Y-88249470D01*
X126155889Y-93512553D01*
X126155885Y-93512558D01*
X126079228Y-93627284D01*
X126079220Y-93627297D01*
X126026420Y-93754770D01*
X126026419Y-93754774D01*
X125999500Y-93890106D01*
X125999500Y-104450500D01*
X125979538Y-104525000D01*
X125925000Y-104579538D01*
X125850501Y-104599500D01*
X125668486Y-104599500D01*
X125574695Y-104614354D01*
X125574693Y-104614355D01*
X125461657Y-104671950D01*
X125371950Y-104761657D01*
X125314354Y-104874694D01*
X125314354Y-104874696D01*
X125299500Y-104968481D01*
X119041600Y-104968481D01*
X119041600Y-79202185D01*
X119061562Y-79127685D01*
X119066711Y-79119405D01*
X119094803Y-79077363D01*
X119158916Y-78922582D01*
X119191600Y-78758267D01*
X119191600Y-78590733D01*
X119158916Y-78426418D01*
X119094803Y-78271637D01*
X119001726Y-78132338D01*
X118883262Y-78013874D01*
X118883258Y-78013871D01*
X118743970Y-77920801D01*
X118743958Y-77920794D01*
X118621236Y-77869961D01*
X118589182Y-77856684D01*
X118589180Y-77856683D01*
X118589179Y-77856683D01*
X118424867Y-77824000D01*
X118257333Y-77824000D01*
X118093020Y-77856683D01*
X117938241Y-77920794D01*
X117938229Y-77920801D01*
X117798941Y-78013871D01*
X117798934Y-78013877D01*
X117680477Y-78132334D01*
X117680471Y-78132341D01*
X117587401Y-78271629D01*
X117587394Y-78271641D01*
X117523283Y-78426420D01*
X117500686Y-78540025D01*
X117490600Y-78590733D01*
X117490600Y-78758267D01*
X117523284Y-78922582D01*
X117587397Y-79077363D01*
X117615489Y-79119405D01*
X117640281Y-79192440D01*
X117640600Y-79202185D01*
X117640600Y-110459300D01*
X117620638Y-110533800D01*
X117566100Y-110588338D01*
X117559242Y-110592061D01*
X117492722Y-110625953D01*
X117417279Y-110641988D01*
X117343926Y-110618152D01*
X117319721Y-110598551D01*
X102758800Y-96037631D01*
X102758798Y-96037628D01*
X102652465Y-95931295D01*
X102532634Y-95862111D01*
X102504392Y-95854543D01*
X102504391Y-95854543D01*
X102398983Y-95826299D01*
X102260617Y-95826299D01*
X102251488Y-95826299D01*
X102251472Y-95826300D01*
X85651187Y-95826300D01*
X85576687Y-95806338D01*
X85545828Y-95782659D01*
X72953637Y-83190468D01*
X72915073Y-83123673D01*
X72915073Y-83046545D01*
X72953637Y-82979750D01*
X73020432Y-82941186D01*
X73082301Y-82937943D01*
X73161583Y-82950500D01*
X73161588Y-82950500D01*
X73358412Y-82950500D01*
X73358417Y-82950500D01*
X73552826Y-82919709D01*
X73740025Y-82858884D01*
X73915405Y-82769524D01*
X74074646Y-82653828D01*
X74213828Y-82514646D01*
X74329524Y-82355405D01*
X74397240Y-82222503D01*
X74448848Y-82165186D01*
X74522201Y-82141352D01*
X74597644Y-82157388D01*
X74654962Y-82208996D01*
X74662759Y-82222503D01*
X74730476Y-82355405D01*
X74846172Y-82514646D01*
X74985354Y-82653828D01*
X75144595Y-82769524D01*
X75319975Y-82858884D01*
X75507174Y-82919709D01*
X75701583Y-82950500D01*
X75701588Y-82950500D01*
X75898412Y-82950500D01*
X75898417Y-82950500D01*
X76092826Y-82919709D01*
X76280025Y-82858884D01*
X76455405Y-82769524D01*
X76614646Y-82653828D01*
X76753828Y-82514646D01*
X76869524Y-82355405D01*
X76937240Y-82222503D01*
X76988848Y-82165186D01*
X77062201Y-82141352D01*
X77137644Y-82157388D01*
X77194962Y-82208996D01*
X77202759Y-82222503D01*
X77270476Y-82355405D01*
X77386172Y-82514646D01*
X77525354Y-82653828D01*
X77684595Y-82769524D01*
X77859975Y-82858884D01*
X78047174Y-82919709D01*
X78241583Y-82950500D01*
X78241588Y-82950500D01*
X78438412Y-82950500D01*
X78438417Y-82950500D01*
X78632826Y-82919709D01*
X78820025Y-82858884D01*
X78995405Y-82769524D01*
X79154646Y-82653828D01*
X79293828Y-82514646D01*
X79409524Y-82355405D01*
X79477240Y-82222503D01*
X79528848Y-82165186D01*
X79602201Y-82141352D01*
X79677644Y-82157388D01*
X79734962Y-82208996D01*
X79742759Y-82222503D01*
X79810476Y-82355405D01*
X79926172Y-82514646D01*
X80065354Y-82653828D01*
X80224595Y-82769524D01*
X80399975Y-82858884D01*
X80587174Y-82919709D01*
X80781583Y-82950500D01*
X80781588Y-82950500D01*
X80978412Y-82950500D01*
X80978417Y-82950500D01*
X81172826Y-82919709D01*
X81360025Y-82858884D01*
X81535405Y-82769524D01*
X81694646Y-82653828D01*
X81833828Y-82514646D01*
X81949524Y-82355405D01*
X82017240Y-82222503D01*
X82068848Y-82165186D01*
X82142201Y-82141352D01*
X82217644Y-82157388D01*
X82274962Y-82208996D01*
X82282759Y-82222503D01*
X82350476Y-82355405D01*
X82466172Y-82514646D01*
X82605354Y-82653828D01*
X82764595Y-82769524D01*
X82939975Y-82858884D01*
X83127174Y-82919709D01*
X83321583Y-82950500D01*
X83321588Y-82950500D01*
X83518412Y-82950500D01*
X83518417Y-82950500D01*
X83712826Y-82919709D01*
X83900025Y-82858884D01*
X84075405Y-82769524D01*
X84234646Y-82653828D01*
X84373828Y-82514646D01*
X84439959Y-82423623D01*
X84499895Y-82375088D01*
X84576074Y-82363022D01*
X84648079Y-82390662D01*
X84696618Y-82450601D01*
X84709500Y-82511204D01*
X84709500Y-82581518D01*
X84720841Y-82653123D01*
X84724354Y-82675304D01*
X84781950Y-82788342D01*
X84871658Y-82878050D01*
X84984696Y-82935646D01*
X85078481Y-82950500D01*
X86841518Y-82950499D01*
X86935304Y-82935646D01*
X87048342Y-82878050D01*
X87138050Y-82788342D01*
X87195646Y-82675304D01*
X87210500Y-82581519D01*
X87210499Y-80818482D01*
X87195646Y-80724696D01*
X87138050Y-80611658D01*
X87048342Y-80521950D01*
X87008370Y-80501583D01*
X86935305Y-80464354D01*
X86915226Y-80461174D01*
X86841519Y-80449500D01*
X86841514Y-80449500D01*
X85078481Y-80449500D01*
X84984695Y-80464354D01*
X84984693Y-80464355D01*
X84871657Y-80521950D01*
X84781950Y-80611657D01*
X84724354Y-80724694D01*
X84720952Y-80746174D01*
X84709500Y-80818481D01*
X84709500Y-80818482D01*
X84709500Y-80818485D01*
X84709500Y-80888792D01*
X84689538Y-80963292D01*
X84635000Y-81017830D01*
X84560500Y-81037792D01*
X84486000Y-81017830D01*
X84439958Y-80976374D01*
X84373828Y-80885354D01*
X84234646Y-80746172D01*
X84075405Y-80630476D01*
X84065010Y-80625179D01*
X83900036Y-80541121D01*
X83900030Y-80541119D01*
X83900025Y-80541116D01*
X83712826Y-80480291D01*
X83518417Y-80449500D01*
X83321583Y-80449500D01*
X83127174Y-80480291D01*
X82998962Y-80521950D01*
X82939975Y-80541116D01*
X82939972Y-80541117D01*
X82939963Y-80541121D01*
X82764598Y-80630474D01*
X82764593Y-80630477D01*
X82605363Y-80746165D01*
X82605352Y-80746174D01*
X82466174Y-80885352D01*
X82466165Y-80885363D01*
X82350477Y-81044593D01*
X82350474Y-81044598D01*
X82282760Y-81177495D01*
X82231151Y-81234813D01*
X82157798Y-81258647D01*
X82082356Y-81242611D01*
X82025038Y-81191002D01*
X82017240Y-81177495D01*
X81967573Y-81080018D01*
X81949524Y-81044595D01*
X81833828Y-80885354D01*
X81694646Y-80746172D01*
X81535405Y-80630476D01*
X81525010Y-80625179D01*
X81360036Y-80541121D01*
X81360030Y-80541119D01*
X81360025Y-80541116D01*
X81172826Y-80480291D01*
X80978417Y-80449500D01*
X80781583Y-80449500D01*
X80587174Y-80480291D01*
X80458962Y-80521950D01*
X80399975Y-80541116D01*
X80399972Y-80541117D01*
X80399963Y-80541121D01*
X80224598Y-80630474D01*
X80224593Y-80630477D01*
X80065363Y-80746165D01*
X80065352Y-80746174D01*
X79926174Y-80885352D01*
X79926165Y-80885363D01*
X79810477Y-81044593D01*
X79810474Y-81044598D01*
X79742760Y-81177495D01*
X79691151Y-81234813D01*
X79617798Y-81258647D01*
X79542356Y-81242611D01*
X79485038Y-81191002D01*
X79477240Y-81177495D01*
X79427573Y-81080018D01*
X79409524Y-81044595D01*
X79293828Y-80885354D01*
X79154646Y-80746172D01*
X78995405Y-80630476D01*
X78985010Y-80625179D01*
X78820036Y-80541121D01*
X78820030Y-80541119D01*
X78820025Y-80541116D01*
X78632826Y-80480291D01*
X78438417Y-80449500D01*
X78241583Y-80449500D01*
X78047174Y-80480291D01*
X77918962Y-80521950D01*
X77859975Y-80541116D01*
X77859972Y-80541117D01*
X77859963Y-80541121D01*
X77684598Y-80630474D01*
X77684593Y-80630477D01*
X77525363Y-80746165D01*
X77525352Y-80746174D01*
X77386174Y-80885352D01*
X77386165Y-80885363D01*
X77270477Y-81044593D01*
X77270474Y-81044598D01*
X77202760Y-81177495D01*
X77151151Y-81234813D01*
X77077798Y-81258647D01*
X77002356Y-81242611D01*
X76945038Y-81191002D01*
X76937240Y-81177495D01*
X76887573Y-81080018D01*
X76869524Y-81044595D01*
X76753828Y-80885354D01*
X76614646Y-80746172D01*
X76455405Y-80630476D01*
X76445010Y-80625179D01*
X76280036Y-80541121D01*
X76280030Y-80541119D01*
X76280025Y-80541116D01*
X76092826Y-80480291D01*
X75898417Y-80449500D01*
X75701583Y-80449500D01*
X75507174Y-80480291D01*
X75378962Y-80521950D01*
X75319975Y-80541116D01*
X75319972Y-80541117D01*
X75319963Y-80541121D01*
X75144598Y-80630474D01*
X75144593Y-80630477D01*
X74985363Y-80746165D01*
X74985352Y-80746174D01*
X74846174Y-80885352D01*
X74846165Y-80885363D01*
X74730477Y-81044593D01*
X74730474Y-81044598D01*
X74662760Y-81177495D01*
X74611151Y-81234813D01*
X74537798Y-81258647D01*
X74462356Y-81242611D01*
X74405038Y-81191002D01*
X74397240Y-81177495D01*
X74347573Y-81080018D01*
X74329524Y-81044595D01*
X74213828Y-80885354D01*
X74074646Y-80746172D01*
X73915405Y-80630476D01*
X73905010Y-80625179D01*
X73740036Y-80541121D01*
X73740030Y-80541119D01*
X73740025Y-80541116D01*
X73552826Y-80480291D01*
X73358417Y-80449500D01*
X73161583Y-80449500D01*
X73115007Y-80456876D01*
X73036962Y-80469237D01*
X72960256Y-80461174D01*
X72897859Y-80415838D01*
X72875998Y-80379092D01*
X72863784Y-80349605D01*
X72863783Y-80349603D01*
X72863782Y-80349601D01*
X72806472Y-80263831D01*
X72781651Y-80226684D01*
X72677116Y-80122149D01*
X72652397Y-80105632D01*
X72554197Y-80040016D01*
X72448552Y-79996257D01*
X72417613Y-79983442D01*
X72417611Y-79983441D01*
X72417612Y-79983441D01*
X72272621Y-79954600D01*
X72272618Y-79954600D01*
X72253087Y-79954600D01*
X72178587Y-79934638D01*
X72147728Y-79910959D01*
X70236769Y-78000000D01*
X87160000Y-78000000D01*
X93500000Y-78000000D01*
X93500000Y-60000000D01*
X87160000Y-60000000D01*
X87160000Y-78000000D01*
X70236769Y-78000000D01*
X66209141Y-73972372D01*
X66170577Y-73905577D01*
X66165500Y-73867013D01*
X66165500Y-57527020D01*
X66185462Y-57452520D01*
X66240000Y-57397982D01*
X66246823Y-57394276D01*
X66295405Y-57369524D01*
X66454646Y-57253828D01*
X66593828Y-57114646D01*
X66709524Y-56955405D01*
X66777240Y-56822503D01*
X66828848Y-56765186D01*
X66902201Y-56741352D01*
X66977644Y-56757388D01*
X67034962Y-56808996D01*
X67042759Y-56822503D01*
X67110476Y-56955405D01*
X67226172Y-57114646D01*
X67365354Y-57253828D01*
X67524595Y-57369524D01*
X67699975Y-57458884D01*
X67887174Y-57519709D01*
X68081583Y-57550500D01*
X68081588Y-57550500D01*
X68278412Y-57550500D01*
X68278417Y-57550500D01*
X68472826Y-57519709D01*
X68660025Y-57458884D01*
X68835405Y-57369524D01*
X68994646Y-57253828D01*
X69133828Y-57114646D01*
X69249524Y-56955405D01*
X69317240Y-56822503D01*
X69368848Y-56765186D01*
X69442201Y-56741352D01*
X69517644Y-56757388D01*
X69574962Y-56808996D01*
X69582759Y-56822503D01*
X69650476Y-56955405D01*
X69766172Y-57114646D01*
X69905354Y-57253828D01*
X70064595Y-57369524D01*
X70239975Y-57458884D01*
X70427174Y-57519709D01*
X70621583Y-57550500D01*
X70621588Y-57550500D01*
X70818412Y-57550500D01*
X70818417Y-57550500D01*
X71012826Y-57519709D01*
X71064648Y-57502870D01*
X71141665Y-57498832D01*
X71210388Y-57533846D01*
X71216049Y-57539218D01*
X72830193Y-59153362D01*
X72830193Y-59153363D01*
X72928031Y-59251202D01*
X72928033Y-59251203D01*
X72928035Y-59251205D01*
X73047864Y-59320388D01*
X73114690Y-59338294D01*
X73181516Y-59356200D01*
X73181517Y-59356200D01*
X90210772Y-59356200D01*
X90210788Y-59356201D01*
X90219917Y-59356201D01*
X90358280Y-59356201D01*
X90358283Y-59356201D01*
X90463691Y-59327956D01*
X90491936Y-59320388D01*
X90611765Y-59251205D01*
X90709605Y-59153365D01*
X90709605Y-59153363D01*
X90721867Y-59141102D01*
X90721871Y-59141097D01*
X91328814Y-58534153D01*
X91377148Y-58501857D01*
X91426095Y-58481584D01*
X91549016Y-58399451D01*
X91653551Y-58294916D01*
X91735684Y-58171995D01*
X91792258Y-58035413D01*
X91821100Y-57890418D01*
X91821100Y-57742582D01*
X91792258Y-57597587D01*
X91735684Y-57461005D01*
X91735683Y-57461002D01*
X91686359Y-57387185D01*
X91653551Y-57338084D01*
X91549016Y-57233549D01*
X91524297Y-57217032D01*
X91426097Y-57151416D01*
X91320452Y-57107657D01*
X91289513Y-57094842D01*
X91289511Y-57094841D01*
X91289512Y-57094841D01*
X91144521Y-57066000D01*
X91144518Y-57066000D01*
X90996682Y-57066000D01*
X90996678Y-57066000D01*
X90851688Y-57094841D01*
X90715102Y-57151416D01*
X90592185Y-57233548D01*
X90592180Y-57233552D01*
X90487652Y-57338080D01*
X90487646Y-57338087D01*
X90448421Y-57396792D01*
X90390433Y-57447646D01*
X90314787Y-57462692D01*
X90267515Y-57451669D01*
X90220613Y-57432242D01*
X90220611Y-57432241D01*
X90220612Y-57432241D01*
X90075621Y-57403400D01*
X90075618Y-57403400D01*
X90056088Y-57403400D01*
X89981588Y-57383438D01*
X89950729Y-57359759D01*
X88576800Y-55985831D01*
X88576798Y-55985828D01*
X88470465Y-55879495D01*
X88350634Y-55810311D01*
X88322392Y-55802743D01*
X88322391Y-55802743D01*
X88216983Y-55774499D01*
X88078617Y-55774499D01*
X88069488Y-55774499D01*
X88069472Y-55774500D01*
X87359499Y-55774500D01*
X87284999Y-55754538D01*
X87230461Y-55700000D01*
X87210499Y-55625500D01*
X87210499Y-55418481D01*
X87199047Y-55346172D01*
X87195646Y-55324696D01*
X87138050Y-55211658D01*
X87048342Y-55121950D01*
X87008370Y-55101583D01*
X86935305Y-55064354D01*
X86919673Y-55061878D01*
X86841519Y-55049500D01*
X86841514Y-55049500D01*
X85078481Y-55049500D01*
X84984695Y-55064354D01*
X84984693Y-55064355D01*
X84871657Y-55121950D01*
X84781950Y-55211657D01*
X84724354Y-55324694D01*
X84720952Y-55346174D01*
X84709500Y-55418481D01*
X84709500Y-55418482D01*
X84709500Y-55418485D01*
X84709500Y-55488792D01*
X84689538Y-55563292D01*
X84635000Y-55617830D01*
X84560500Y-55637792D01*
X84486000Y-55617830D01*
X84439958Y-55576374D01*
X84373828Y-55485354D01*
X84234646Y-55346172D01*
X84075405Y-55230476D01*
X84065010Y-55225179D01*
X83900036Y-55141121D01*
X83900030Y-55141119D01*
X83900025Y-55141116D01*
X83712826Y-55080291D01*
X83518417Y-55049500D01*
X83321583Y-55049500D01*
X83127174Y-55080291D01*
X82998962Y-55121950D01*
X82939975Y-55141116D01*
X82939972Y-55141117D01*
X82939963Y-55141121D01*
X82764598Y-55230474D01*
X82764593Y-55230477D01*
X82605363Y-55346165D01*
X82605352Y-55346174D01*
X82466174Y-55485352D01*
X82466165Y-55485363D01*
X82350477Y-55644593D01*
X82350474Y-55644598D01*
X82282760Y-55777495D01*
X82231151Y-55834813D01*
X82157798Y-55858647D01*
X82082356Y-55842611D01*
X82025038Y-55791002D01*
X82017240Y-55777495D01*
X81967573Y-55680018D01*
X81949524Y-55644595D01*
X81833828Y-55485354D01*
X81694646Y-55346172D01*
X81535405Y-55230476D01*
X81525010Y-55225179D01*
X81360036Y-55141121D01*
X81360030Y-55141119D01*
X81360025Y-55141116D01*
X81172826Y-55080291D01*
X80978417Y-55049500D01*
X80781583Y-55049500D01*
X80587174Y-55080291D01*
X80458962Y-55121950D01*
X80399975Y-55141116D01*
X80399972Y-55141117D01*
X80399963Y-55141121D01*
X80224598Y-55230474D01*
X80224593Y-55230477D01*
X80065363Y-55346165D01*
X80065352Y-55346174D01*
X79926174Y-55485352D01*
X79926165Y-55485363D01*
X79810477Y-55644593D01*
X79810474Y-55644598D01*
X79742760Y-55777495D01*
X79691151Y-55834813D01*
X79617798Y-55858647D01*
X79542356Y-55842611D01*
X79485038Y-55791002D01*
X79477240Y-55777495D01*
X79427573Y-55680018D01*
X79409524Y-55644595D01*
X79293828Y-55485354D01*
X79154646Y-55346172D01*
X78995405Y-55230476D01*
X78985010Y-55225179D01*
X78820036Y-55141121D01*
X78820030Y-55141119D01*
X78820025Y-55141116D01*
X78632826Y-55080291D01*
X78438417Y-55049500D01*
X78241583Y-55049500D01*
X78047174Y-55080291D01*
X77918962Y-55121950D01*
X77859975Y-55141116D01*
X77859972Y-55141117D01*
X77859963Y-55141121D01*
X77684598Y-55230474D01*
X77684593Y-55230477D01*
X77525363Y-55346165D01*
X77525352Y-55346174D01*
X77386174Y-55485352D01*
X77386165Y-55485363D01*
X77270477Y-55644593D01*
X77270474Y-55644598D01*
X77202760Y-55777495D01*
X77151151Y-55834813D01*
X77077798Y-55858647D01*
X77002356Y-55842611D01*
X76945038Y-55791002D01*
X76937240Y-55777495D01*
X76887573Y-55680018D01*
X76869524Y-55644595D01*
X76753828Y-55485354D01*
X76614646Y-55346172D01*
X76455405Y-55230476D01*
X76445010Y-55225179D01*
X76280036Y-55141121D01*
X76280030Y-55141119D01*
X76280025Y-55141116D01*
X76092826Y-55080291D01*
X75898417Y-55049500D01*
X75701583Y-55049500D01*
X75507174Y-55080291D01*
X75378962Y-55121950D01*
X75319975Y-55141116D01*
X75319972Y-55141117D01*
X75319963Y-55141121D01*
X75144598Y-55230474D01*
X75144593Y-55230477D01*
X74985363Y-55346165D01*
X74985352Y-55346174D01*
X74846174Y-55485352D01*
X74846165Y-55485363D01*
X74730477Y-55644593D01*
X74730474Y-55644598D01*
X74662760Y-55777495D01*
X74611151Y-55834813D01*
X74537798Y-55858647D01*
X74462356Y-55842611D01*
X74405038Y-55791002D01*
X74397240Y-55777495D01*
X74347573Y-55680018D01*
X74329524Y-55644595D01*
X74213828Y-55485354D01*
X74074646Y-55346172D01*
X73915405Y-55230476D01*
X73905010Y-55225179D01*
X73740036Y-55141121D01*
X73740030Y-55141119D01*
X73740025Y-55141116D01*
X73552826Y-55080291D01*
X73358417Y-55049500D01*
X73161583Y-55049500D01*
X72967174Y-55080291D01*
X72838962Y-55121950D01*
X72779975Y-55141116D01*
X72779972Y-55141117D01*
X72779963Y-55141121D01*
X72604598Y-55230474D01*
X72604593Y-55230477D01*
X72445363Y-55346165D01*
X72445352Y-55346174D01*
X72306174Y-55485352D01*
X72306165Y-55485363D01*
X72190477Y-55644593D01*
X72190474Y-55644598D01*
X72122760Y-55777495D01*
X72071151Y-55834813D01*
X71997798Y-55858647D01*
X71922356Y-55842611D01*
X71865038Y-55791002D01*
X71857240Y-55777495D01*
X71807573Y-55680018D01*
X71789524Y-55644595D01*
X71673828Y-55485354D01*
X71534646Y-55346172D01*
X71375405Y-55230476D01*
X71365010Y-55225179D01*
X71200036Y-55141121D01*
X71200030Y-55141119D01*
X71200025Y-55141116D01*
X71012826Y-55080291D01*
X70818417Y-55049500D01*
X70621583Y-55049500D01*
X70427174Y-55080291D01*
X70298962Y-55121950D01*
X70239975Y-55141116D01*
X70239972Y-55141117D01*
X70239963Y-55141121D01*
X70064598Y-55230474D01*
X70064593Y-55230477D01*
X69905363Y-55346165D01*
X69905352Y-55346174D01*
X69766174Y-55485352D01*
X69766165Y-55485363D01*
X69650477Y-55644593D01*
X69650474Y-55644598D01*
X69582760Y-55777495D01*
X69531151Y-55834813D01*
X69457798Y-55858647D01*
X69382356Y-55842611D01*
X69325038Y-55791002D01*
X69317240Y-55777495D01*
X69267573Y-55680018D01*
X69249524Y-55644595D01*
X69133828Y-55485354D01*
X68994646Y-55346172D01*
X68835405Y-55230476D01*
X68825010Y-55225179D01*
X68660036Y-55141121D01*
X68660030Y-55141119D01*
X68660025Y-55141116D01*
X68472826Y-55080291D01*
X68278417Y-55049500D01*
X68081583Y-55049500D01*
X67887174Y-55080291D01*
X67758962Y-55121950D01*
X67699975Y-55141116D01*
X67699972Y-55141117D01*
X67699963Y-55141121D01*
X67524598Y-55230474D01*
X67524593Y-55230477D01*
X67365363Y-55346165D01*
X67365352Y-55346174D01*
X67226174Y-55485352D01*
X67226165Y-55485363D01*
X67110477Y-55644593D01*
X67110474Y-55644598D01*
X67042760Y-55777495D01*
X66991151Y-55834813D01*
X66917798Y-55858647D01*
X66842356Y-55842611D01*
X66785038Y-55791002D01*
X66777240Y-55777495D01*
X66727573Y-55680018D01*
X66709524Y-55644595D01*
X66593828Y-55485354D01*
X66454646Y-55346172D01*
X66295405Y-55230476D01*
X66285010Y-55225179D01*
X66120036Y-55141121D01*
X66120030Y-55141119D01*
X66120025Y-55141116D01*
X65932826Y-55080291D01*
X65738417Y-55049500D01*
X65541583Y-55049500D01*
X65347174Y-55080291D01*
X65218962Y-55121950D01*
X65159975Y-55141116D01*
X65159972Y-55141117D01*
X65159963Y-55141121D01*
X64984598Y-55230474D01*
X64984593Y-55230477D01*
X64825363Y-55346165D01*
X64825352Y-55346174D01*
X64686174Y-55485352D01*
X64686165Y-55485363D01*
X64570477Y-55644593D01*
X64570474Y-55644598D01*
X64502760Y-55777495D01*
X64451151Y-55834813D01*
X64377798Y-55858647D01*
X64302356Y-55842611D01*
X64245038Y-55791002D01*
X64237240Y-55777495D01*
X64187573Y-55680018D01*
X64169524Y-55644595D01*
X64053828Y-55485354D01*
X63914646Y-55346172D01*
X63755405Y-55230476D01*
X63755404Y-55230475D01*
X63755401Y-55230473D01*
X63706854Y-55205737D01*
X63649537Y-55154128D01*
X63625704Y-55080774D01*
X63625500Y-55072978D01*
X63625500Y-52589985D01*
X63645462Y-52515485D01*
X63669141Y-52484626D01*
X63682951Y-52470816D01*
X63765084Y-52347895D01*
X63821658Y-52211313D01*
X63850500Y-52066318D01*
X63850500Y-51918482D01*
X63821658Y-51773487D01*
X63765084Y-51636905D01*
X63765083Y-51636902D01*
X63715759Y-51563085D01*
X63682951Y-51513984D01*
X63578416Y-51409449D01*
X63553697Y-51392932D01*
X63455497Y-51327316D01*
X63349852Y-51283557D01*
X63318913Y-51270742D01*
X63318911Y-51270741D01*
X63318912Y-51270741D01*
X63173921Y-51241900D01*
X63173918Y-51241900D01*
X63026082Y-51241900D01*
X63026078Y-51241900D01*
X62881088Y-51270741D01*
X62744502Y-51327316D01*
X62621585Y-51409448D01*
X62621580Y-51409452D01*
X62517052Y-51513980D01*
X62517048Y-51513985D01*
X62434916Y-51636902D01*
X62378341Y-51773488D01*
X62349500Y-51918478D01*
X62349500Y-52066321D01*
X62378341Y-52211311D01*
X62434916Y-52347897D01*
X62500532Y-52446097D01*
X62517049Y-52470816D01*
X62517052Y-52470819D01*
X62530859Y-52484626D01*
X62569423Y-52551421D01*
X62574500Y-52589985D01*
X62574500Y-55072978D01*
X62554538Y-55147478D01*
X62500000Y-55202016D01*
X62493146Y-55205737D01*
X62444598Y-55230473D01*
X62444593Y-55230477D01*
X62285363Y-55346165D01*
X62285352Y-55346174D01*
X62146174Y-55485352D01*
X62146165Y-55485363D01*
X62030477Y-55644593D01*
X62030474Y-55644598D01*
X61962760Y-55777495D01*
X61911151Y-55834813D01*
X61837798Y-55858647D01*
X61762356Y-55842611D01*
X61705038Y-55791002D01*
X61697240Y-55777495D01*
X61647573Y-55680018D01*
X61629524Y-55644595D01*
X61513828Y-55485354D01*
X61374646Y-55346172D01*
X61215405Y-55230476D01*
X61205010Y-55225179D01*
X61040036Y-55141121D01*
X61040030Y-55141119D01*
X61040025Y-55141116D01*
X60852826Y-55080291D01*
X60658417Y-55049500D01*
X60461583Y-55049500D01*
X60267174Y-55080291D01*
X60138962Y-55121950D01*
X60079975Y-55141116D01*
X60079972Y-55141117D01*
X60079963Y-55141121D01*
X59904598Y-55230474D01*
X59904593Y-55230477D01*
X59745363Y-55346165D01*
X59745352Y-55346174D01*
X59606174Y-55485352D01*
X59606165Y-55485363D01*
X59490477Y-55644593D01*
X59490474Y-55644598D01*
X59422760Y-55777495D01*
X59371151Y-55834813D01*
X59297798Y-55858647D01*
X59222356Y-55842611D01*
X59165038Y-55791002D01*
X59157240Y-55777495D01*
X59107573Y-55680018D01*
X59089524Y-55644595D01*
X58973828Y-55485354D01*
X58834646Y-55346172D01*
X58675405Y-55230476D01*
X58675404Y-55230475D01*
X58675401Y-55230473D01*
X58626854Y-55205737D01*
X58569537Y-55154128D01*
X58545704Y-55080774D01*
X58545500Y-55072978D01*
X58545500Y-52101201D01*
X58545501Y-52101188D01*
X58545501Y-51950817D01*
X58545500Y-51950815D01*
X58509689Y-51817165D01*
X58484471Y-51773487D01*
X58440507Y-51697338D01*
X58440506Y-51697337D01*
X58440505Y-51697335D01*
X55199539Y-48456369D01*
X55160975Y-48389574D01*
X55160975Y-48312446D01*
X55163191Y-48304966D01*
X55163370Y-48304416D01*
X55170940Y-48281118D01*
X55200500Y-48094481D01*
X55200500Y-47905519D01*
X55199260Y-47897692D01*
X62860000Y-47897692D01*
X62860000Y-48102307D01*
X62892010Y-48304416D01*
X62955241Y-48499020D01*
X62955246Y-48499032D01*
X63048141Y-48681349D01*
X63048141Y-48681350D01*
X63080524Y-48725921D01*
X63760000Y-48046445D01*
X63760000Y-48052661D01*
X63787259Y-48154394D01*
X63839920Y-48245606D01*
X63914394Y-48320080D01*
X64005606Y-48372741D01*
X64107339Y-48400000D01*
X64113553Y-48400000D01*
X63434077Y-49079474D01*
X63434077Y-49079475D01*
X63478645Y-49111856D01*
X63660967Y-49204753D01*
X63660979Y-49204758D01*
X63855583Y-49267989D01*
X64057693Y-49300000D01*
X64262307Y-49300000D01*
X64464416Y-49267989D01*
X64659020Y-49204758D01*
X64659038Y-49204751D01*
X64841345Y-49111861D01*
X64841352Y-49111857D01*
X64885921Y-49079475D01*
X64885921Y-49079474D01*
X64206447Y-48400000D01*
X64212661Y-48400000D01*
X64314394Y-48372741D01*
X64405606Y-48320080D01*
X64480080Y-48245606D01*
X64532741Y-48154394D01*
X64560000Y-48052661D01*
X64560000Y-48046447D01*
X65239474Y-48725921D01*
X65239475Y-48725921D01*
X65271857Y-48681352D01*
X65271861Y-48681345D01*
X65364751Y-48499038D01*
X65364758Y-48499020D01*
X65427989Y-48304416D01*
X65460000Y-48102307D01*
X65460000Y-47897692D01*
X65427989Y-47695583D01*
X65364758Y-47500979D01*
X65364753Y-47500967D01*
X65271856Y-47318645D01*
X65239474Y-47274077D01*
X64560000Y-47953551D01*
X64560000Y-47947339D01*
X64532741Y-47845606D01*
X64480080Y-47754394D01*
X64405606Y-47679920D01*
X64314394Y-47627259D01*
X64212661Y-47600000D01*
X64206446Y-47600000D01*
X64885921Y-46920524D01*
X64841350Y-46888141D01*
X64659032Y-46795246D01*
X64659020Y-46795241D01*
X64464416Y-46732010D01*
X64262307Y-46700000D01*
X64057693Y-46700000D01*
X63855583Y-46732010D01*
X63660979Y-46795241D01*
X63660961Y-46795248D01*
X63478664Y-46888132D01*
X63478651Y-46888140D01*
X63434077Y-46920523D01*
X64113554Y-47600000D01*
X64107339Y-47600000D01*
X64005606Y-47627259D01*
X63914394Y-47679920D01*
X63839920Y-47754394D01*
X63787259Y-47845606D01*
X63760000Y-47947339D01*
X63760000Y-47953554D01*
X63080523Y-47274077D01*
X63048140Y-47318651D01*
X63048132Y-47318664D01*
X62955248Y-47500961D01*
X62955241Y-47500979D01*
X62892010Y-47695583D01*
X62860000Y-47897692D01*
X55199260Y-47897692D01*
X55170940Y-47718882D01*
X55112547Y-47539168D01*
X55026760Y-47370801D01*
X54915690Y-47217927D01*
X54782073Y-47084310D01*
X54629199Y-46973240D01*
X54462182Y-46888141D01*
X54460842Y-46887458D01*
X54460841Y-46887457D01*
X54460832Y-46887453D01*
X54281118Y-46829060D01*
X54094481Y-46799500D01*
X53905519Y-46799500D01*
X53718882Y-46829060D01*
X53539168Y-46887453D01*
X53539163Y-46887455D01*
X53539157Y-46887458D01*
X53370804Y-46973238D01*
X53370799Y-46973241D01*
X53217936Y-47084303D01*
X53217925Y-47084312D01*
X53084312Y-47217925D01*
X53084303Y-47217936D01*
X52973241Y-47370799D01*
X52973238Y-47370804D01*
X52887458Y-47539157D01*
X52887455Y-47539163D01*
X52887453Y-47539168D01*
X52829060Y-47718882D01*
X52799500Y-47905519D01*
X52799500Y-48094481D01*
X52829060Y-48281118D01*
X52887453Y-48460832D01*
X52973240Y-48629199D01*
X53084310Y-48782073D01*
X53217927Y-48915690D01*
X53370801Y-49026760D01*
X53539168Y-49112547D01*
X53718882Y-49170940D01*
X53905519Y-49200500D01*
X53905524Y-49200500D01*
X54094476Y-49200500D01*
X54094481Y-49200500D01*
X54281118Y-49170940D01*
X54304966Y-49163190D01*
X54381988Y-49159154D01*
X54450710Y-49194169D01*
X54456369Y-49199539D01*
X57450859Y-52194028D01*
X57489423Y-52260823D01*
X57494500Y-52299387D01*
X57494500Y-55072978D01*
X57474538Y-55147478D01*
X57420000Y-55202016D01*
X57413146Y-55205737D01*
X57364598Y-55230473D01*
X57364593Y-55230477D01*
X57205363Y-55346165D01*
X57205352Y-55346174D01*
X57066174Y-55485352D01*
X57066165Y-55485363D01*
X56950477Y-55644593D01*
X56950474Y-55644598D01*
X56882760Y-55777495D01*
X56831151Y-55834813D01*
X56757798Y-55858647D01*
X56682356Y-55842611D01*
X56625038Y-55791002D01*
X56617240Y-55777495D01*
X56567573Y-55680018D01*
X56549524Y-55644595D01*
X56433828Y-55485354D01*
X56294646Y-55346172D01*
X56135405Y-55230476D01*
X56125010Y-55225179D01*
X55960036Y-55141121D01*
X55960030Y-55141119D01*
X55960025Y-55141116D01*
X55772826Y-55080291D01*
X55578417Y-55049500D01*
X55381583Y-55049500D01*
X55187174Y-55080291D01*
X55058962Y-55121950D01*
X54999975Y-55141116D01*
X54999972Y-55141117D01*
X54999963Y-55141121D01*
X54824598Y-55230474D01*
X54824593Y-55230477D01*
X54665363Y-55346165D01*
X54665352Y-55346174D01*
X54526174Y-55485352D01*
X54526165Y-55485363D01*
X54410477Y-55644593D01*
X54410476Y-55644594D01*
X54398594Y-55667914D01*
X54346984Y-55725231D01*
X54273630Y-55749063D01*
X54198188Y-55733026D01*
X54140871Y-55681416D01*
X54133075Y-55667912D01*
X54094621Y-55592444D01*
X54055270Y-55538282D01*
X53422962Y-56170589D01*
X53405925Y-56107007D01*
X53340099Y-55992993D01*
X53247007Y-55899901D01*
X53132993Y-55834075D01*
X53069407Y-55817037D01*
X53701716Y-55184729D01*
X53701716Y-55184728D01*
X53647555Y-55145378D01*
X53647555Y-55145377D01*
X53458220Y-55048906D01*
X53256128Y-54983242D01*
X53046242Y-54950000D01*
X52833758Y-54950000D01*
X52623871Y-54983242D01*
X52421779Y-55048906D01*
X52232444Y-55145378D01*
X52178282Y-55184728D01*
X52178282Y-55184729D01*
X52810590Y-55817037D01*
X52747007Y-55834075D01*
X52632993Y-55899901D01*
X52539901Y-55992993D01*
X52474075Y-56107007D01*
X52457037Y-56170590D01*
X51824729Y-55538282D01*
X51824728Y-55538282D01*
X51785378Y-55592444D01*
X51746923Y-55667914D01*
X51695313Y-55725230D01*
X51621960Y-55749063D01*
X51546517Y-55733026D01*
X51489201Y-55681416D01*
X51481411Y-55667926D01*
X51469524Y-55644595D01*
X51353828Y-55485354D01*
X51214646Y-55346172D01*
X51055405Y-55230476D01*
X51045010Y-55225179D01*
X50880036Y-55141121D01*
X50880030Y-55141119D01*
X50880025Y-55141116D01*
X50692826Y-55080291D01*
X50498417Y-55049500D01*
X50301583Y-55049500D01*
X50107174Y-55080291D01*
X49978962Y-55121950D01*
X49919975Y-55141116D01*
X49919972Y-55141117D01*
X49919963Y-55141121D01*
X49744598Y-55230474D01*
X49744593Y-55230477D01*
X49585363Y-55346165D01*
X49585352Y-55346174D01*
X49446174Y-55485352D01*
X49446165Y-55485363D01*
X49330477Y-55644593D01*
X49330474Y-55644598D01*
X49241121Y-55819963D01*
X49241117Y-55819972D01*
X49241116Y-55819975D01*
X49180291Y-56007174D01*
X49149500Y-56201583D01*
X49149500Y-56398417D01*
X49157749Y-56450500D01*
X49159695Y-56462788D01*
X49151632Y-56539494D01*
X49117888Y-56591454D01*
X46055689Y-59653653D01*
X46055685Y-59653658D01*
X45979028Y-59768384D01*
X45979020Y-59768397D01*
X45926221Y-59895868D01*
X45926219Y-59895874D01*
X45902061Y-60017329D01*
X45902059Y-60017338D01*
X45899300Y-60031201D01*
X45899300Y-92952607D01*
X45879338Y-93027107D01*
X45824800Y-93081645D01*
X45750300Y-93101607D01*
X45675800Y-93081645D01*
X45621262Y-93027107D01*
X45578249Y-92952607D01*
X45541936Y-92889711D01*
X45394265Y-92697262D01*
X45222738Y-92525735D01*
X45030289Y-92378064D01*
X44960263Y-92337634D01*
X44820216Y-92256778D01*
X44820214Y-92256777D01*
X44820212Y-92256776D01*
X44688932Y-92202398D01*
X44596103Y-92163947D01*
X44596101Y-92163946D01*
X44596100Y-92163946D01*
X44361789Y-92101162D01*
X44361787Y-92101161D01*
X44361781Y-92101160D01*
X44121293Y-92069500D01*
X44121288Y-92069500D01*
X43878712Y-92069500D01*
X43878706Y-92069500D01*
X43638218Y-92101160D01*
X43403896Y-92163947D01*
X43179783Y-92256778D01*
X42969712Y-92378063D01*
X42969711Y-92378064D01*
X42777262Y-92525735D01*
X42777260Y-92525736D01*
X42777256Y-92525740D01*
X42605740Y-92697256D01*
X42458063Y-92889712D01*
X42336778Y-93099783D01*
X42243947Y-93323896D01*
X42181160Y-93558218D01*
X42149500Y-93798706D01*
X42149500Y-94041293D01*
X42181160Y-94281781D01*
X42181161Y-94281787D01*
X42181162Y-94281789D01*
X42243946Y-94516100D01*
X42336776Y-94740212D01*
X42458064Y-94950289D01*
X42605735Y-95142738D01*
X42777262Y-95314265D01*
X42969711Y-95461936D01*
X43179788Y-95583224D01*
X43403900Y-95676054D01*
X43638211Y-95738838D01*
X43638217Y-95738838D01*
X43638218Y-95738839D01*
X43703600Y-95747446D01*
X43878712Y-95770500D01*
X44121288Y-95770500D01*
X44361789Y-95738838D01*
X44596100Y-95676054D01*
X44820212Y-95583224D01*
X45030289Y-95461936D01*
X45222738Y-95314265D01*
X45394265Y-95142738D01*
X45541936Y-94950289D01*
X45621262Y-94812891D01*
X45675800Y-94758354D01*
X45750300Y-94738392D01*
X45824800Y-94758354D01*
X45879338Y-94812892D01*
X45899300Y-94887392D01*
X45899300Y-98458325D01*
X45879338Y-98532825D01*
X45855659Y-98563684D01*
X44042189Y-100377153D01*
X44042185Y-100377158D01*
X43966976Y-100489717D01*
X43965526Y-100491887D01*
X43912719Y-100619374D01*
X43885800Y-100754706D01*
X43885800Y-107044197D01*
X43912719Y-107179527D01*
X43912720Y-107179529D01*
X43965520Y-107307002D01*
X43965523Y-107307008D01*
X43965525Y-107307011D01*
X44042186Y-107421743D01*
X44042189Y-107421746D01*
X45165584Y-108545141D01*
X45204148Y-108611936D01*
X45204148Y-108689064D01*
X45165584Y-108755859D01*
X45098789Y-108794423D01*
X45060225Y-108799500D01*
X44905519Y-108799500D01*
X44718882Y-108829060D01*
X44539168Y-108887453D01*
X44539163Y-108887455D01*
X44539157Y-108887458D01*
X44370804Y-108973238D01*
X44370799Y-108973241D01*
X44217936Y-109084303D01*
X44217925Y-109084312D01*
X44084312Y-109217925D01*
X44084303Y-109217936D01*
X43973241Y-109370799D01*
X43973238Y-109370804D01*
X43887458Y-109539157D01*
X43887455Y-109539163D01*
X43887453Y-109539168D01*
X43829060Y-109718882D01*
X43799500Y-109905519D01*
X43799500Y-110094481D01*
X43829060Y-110281118D01*
X43887453Y-110460832D01*
X43973240Y-110629199D01*
X44084310Y-110782073D01*
X44217927Y-110915690D01*
X44370801Y-111026760D01*
X44539168Y-111112547D01*
X44718882Y-111170940D01*
X44905519Y-111200500D01*
X44905524Y-111200500D01*
X45094476Y-111200500D01*
X45094481Y-111200500D01*
X45281118Y-111170940D01*
X45460832Y-111112547D01*
X45629199Y-111026760D01*
X45782073Y-110915690D01*
X45915690Y-110782073D01*
X46026760Y-110629199D01*
X46112547Y-110460832D01*
X46170940Y-110281118D01*
X46200500Y-110094481D01*
X46200500Y-109939775D01*
X46220462Y-109865275D01*
X46275000Y-109810737D01*
X46349500Y-109790775D01*
X46424000Y-109810737D01*
X46454859Y-109834416D01*
X46504459Y-109884016D01*
X46543023Y-109950811D01*
X46548100Y-109989375D01*
X46548100Y-127067597D01*
X46575019Y-127202927D01*
X46575020Y-127202929D01*
X46627820Y-127330402D01*
X46627823Y-127330408D01*
X46627825Y-127330411D01*
X46704486Y-127445143D01*
X46874749Y-127615406D01*
X47005859Y-127746515D01*
X47044423Y-127813310D01*
X47049500Y-127851874D01*
X47049500Y-128615694D01*
X47049720Y-128618485D01*
X47052402Y-128652571D01*
X47060764Y-128681352D01*
X47098256Y-128810398D01*
X47181919Y-128951865D01*
X47298135Y-129068081D01*
X47439602Y-129151744D01*
X47597428Y-129197597D01*
X47597427Y-129197597D01*
X47597431Y-129197598D01*
X47634306Y-129200500D01*
X47634313Y-129200500D01*
X48865687Y-129200500D01*
X48865694Y-129200500D01*
X48902569Y-129197598D01*
X49060398Y-129151744D01*
X49201865Y-129068081D01*
X49318081Y-128951865D01*
X49401744Y-128810398D01*
X49447598Y-128652569D01*
X49450500Y-128615694D01*
X49450500Y-127897692D01*
X50450000Y-127897692D01*
X50450000Y-128102307D01*
X50482010Y-128304416D01*
X50545241Y-128499020D01*
X50545246Y-128499032D01*
X50638141Y-128681349D01*
X50638141Y-128681350D01*
X50670524Y-128725921D01*
X51350000Y-128046445D01*
X51350000Y-128052661D01*
X51377259Y-128154394D01*
X51429920Y-128245606D01*
X51504394Y-128320080D01*
X51595606Y-128372741D01*
X51697339Y-128400000D01*
X51703553Y-128400000D01*
X51024077Y-129079474D01*
X51024077Y-129079475D01*
X51068645Y-129111856D01*
X51250967Y-129204753D01*
X51250979Y-129204758D01*
X51445583Y-129267989D01*
X51647693Y-129300000D01*
X51852307Y-129300000D01*
X52054416Y-129267989D01*
X52249020Y-129204758D01*
X52249038Y-129204751D01*
X52431345Y-129111861D01*
X52431352Y-129111857D01*
X52475921Y-129079475D01*
X52475921Y-129079474D01*
X51796447Y-128400000D01*
X51802661Y-128400000D01*
X51904394Y-128372741D01*
X51995606Y-128320080D01*
X52070080Y-128245606D01*
X52122741Y-128154394D01*
X52150000Y-128052661D01*
X52150000Y-128046447D01*
X52829474Y-128725921D01*
X52829475Y-128725921D01*
X52861857Y-128681352D01*
X52861861Y-128681345D01*
X52954751Y-128499038D01*
X52954758Y-128499020D01*
X53017989Y-128304416D01*
X53050000Y-128102307D01*
X53050000Y-127897692D01*
X53017989Y-127695583D01*
X52954758Y-127500979D01*
X52954753Y-127500967D01*
X52861856Y-127318645D01*
X52829474Y-127274077D01*
X52150000Y-127953551D01*
X52150000Y-127947339D01*
X52122741Y-127845606D01*
X52070080Y-127754394D01*
X51995606Y-127679920D01*
X51904394Y-127627259D01*
X51802661Y-127600000D01*
X51796446Y-127600000D01*
X52475921Y-126920524D01*
X52431350Y-126888141D01*
X52249032Y-126795246D01*
X52249020Y-126795241D01*
X52054416Y-126732010D01*
X51852307Y-126700000D01*
X51647693Y-126700000D01*
X51445583Y-126732010D01*
X51250979Y-126795241D01*
X51250961Y-126795248D01*
X51068664Y-126888132D01*
X51068651Y-126888140D01*
X51024077Y-126920523D01*
X51703554Y-127600000D01*
X51697339Y-127600000D01*
X51595606Y-127627259D01*
X51504394Y-127679920D01*
X51429920Y-127754394D01*
X51377259Y-127845606D01*
X51350000Y-127947339D01*
X51350000Y-127953554D01*
X50670523Y-127274077D01*
X50638140Y-127318651D01*
X50638132Y-127318664D01*
X50545248Y-127500961D01*
X50545241Y-127500979D01*
X50482010Y-127695583D01*
X50450000Y-127897692D01*
X49450500Y-127897692D01*
X49450500Y-127384306D01*
X49447598Y-127347431D01*
X49401744Y-127189602D01*
X49318081Y-127048135D01*
X49201865Y-126931919D01*
X49060398Y-126848256D01*
X48994279Y-126829046D01*
X48902571Y-126802402D01*
X48902572Y-126802402D01*
X48891506Y-126801531D01*
X48865694Y-126799500D01*
X48865687Y-126799500D01*
X48101875Y-126799500D01*
X48027375Y-126779538D01*
X47996516Y-126755859D01*
X47992741Y-126752084D01*
X47954177Y-126685289D01*
X47949100Y-126646725D01*
X47949100Y-109568506D01*
X47927682Y-109460832D01*
X47922180Y-109433172D01*
X47869375Y-109305689D01*
X47818977Y-109230263D01*
X47818976Y-109230261D01*
X47792718Y-109190962D01*
X47792713Y-109190956D01*
X45330441Y-106728684D01*
X45291877Y-106661889D01*
X45286800Y-106623325D01*
X45286800Y-105449499D01*
X45306762Y-105374999D01*
X45361300Y-105320461D01*
X45435800Y-105300499D01*
X46931519Y-105300499D01*
X46944341Y-105298468D01*
X47025304Y-105285646D01*
X47138342Y-105228050D01*
X47186846Y-105179545D01*
X47253639Y-105140982D01*
X47330767Y-105140982D01*
X47379785Y-105164362D01*
X47425235Y-105197384D01*
X47425238Y-105197385D01*
X47621581Y-105297428D01*
X47621593Y-105297432D01*
X47831160Y-105365525D01*
X47831159Y-105365525D01*
X48048823Y-105400000D01*
X48269177Y-105400000D01*
X48486840Y-105365525D01*
X48696406Y-105297432D01*
X48696418Y-105297428D01*
X48892761Y-105197385D01*
X48956512Y-105151067D01*
X48956513Y-105151067D01*
X48247584Y-104442138D01*
X48332694Y-104419333D01*
X48435306Y-104360090D01*
X48519090Y-104276306D01*
X48578333Y-104173694D01*
X48601138Y-104088584D01*
X49228102Y-104715548D01*
X49243287Y-104733327D01*
X49310966Y-104826480D01*
X49326033Y-104847217D01*
X49326035Y-104847220D01*
X49470779Y-104991964D01*
X49470787Y-104991971D01*
X49636387Y-105112285D01*
X49636390Y-105112287D01*
X49818781Y-105205220D01*
X50013466Y-105268477D01*
X50039007Y-105272522D01*
X50109467Y-105303892D01*
X50154803Y-105366289D01*
X50164700Y-105419688D01*
X50164700Y-108748903D01*
X50144738Y-108823403D01*
X50090200Y-108877941D01*
X50015700Y-108897903D01*
X49966752Y-108888173D01*
X49966399Y-108889262D01*
X49960832Y-108887453D01*
X49781118Y-108829060D01*
X49594481Y-108799500D01*
X49405519Y-108799500D01*
X49218882Y-108829060D01*
X49039168Y-108887453D01*
X49039163Y-108887455D01*
X49039157Y-108887458D01*
X48870804Y-108973238D01*
X48870799Y-108973241D01*
X48717936Y-109084303D01*
X48717925Y-109084312D01*
X48584312Y-109217925D01*
X48584303Y-109217936D01*
X48473241Y-109370799D01*
X48473238Y-109370804D01*
X48387458Y-109539157D01*
X48387455Y-109539163D01*
X48387453Y-109539168D01*
X48329060Y-109718882D01*
X48299500Y-109905519D01*
X48299500Y-110094481D01*
X48329060Y-110281118D01*
X48387453Y-110460832D01*
X48473240Y-110629199D01*
X48584310Y-110782073D01*
X48717927Y-110915690D01*
X48870801Y-111026760D01*
X49039168Y-111112547D01*
X49218882Y-111170940D01*
X49405519Y-111200500D01*
X49405524Y-111200500D01*
X49594476Y-111200500D01*
X49594481Y-111200500D01*
X49781118Y-111170940D01*
X49960832Y-111112547D01*
X49960833Y-111112546D01*
X49966399Y-111110738D01*
X49966923Y-111112352D01*
X50035152Y-111103371D01*
X50106408Y-111132889D01*
X50153359Y-111194080D01*
X50164700Y-111251096D01*
X50164700Y-118690412D01*
X50144738Y-118764912D01*
X50121059Y-118795771D01*
X49956369Y-118960460D01*
X49889574Y-118999024D01*
X49812446Y-118999024D01*
X49804971Y-118996810D01*
X49781118Y-118989060D01*
X49594481Y-118959500D01*
X49405519Y-118959500D01*
X49218882Y-118989060D01*
X49039168Y-119047453D01*
X49039163Y-119047455D01*
X49039157Y-119047458D01*
X48870804Y-119133238D01*
X48870799Y-119133241D01*
X48717936Y-119244303D01*
X48717925Y-119244312D01*
X48584312Y-119377925D01*
X48584303Y-119377936D01*
X48473241Y-119530799D01*
X48473238Y-119530804D01*
X48387458Y-119699157D01*
X48387451Y-119699174D01*
X48384165Y-119709287D01*
X48329060Y-119878882D01*
X48299500Y-120065519D01*
X48299500Y-120254481D01*
X48329060Y-120441118D01*
X48387453Y-120620832D01*
X48387457Y-120620841D01*
X48387458Y-120620842D01*
X48407558Y-120660291D01*
X48473240Y-120789199D01*
X48584310Y-120942073D01*
X48717927Y-121075690D01*
X48870801Y-121186760D01*
X49039168Y-121272547D01*
X49218882Y-121330940D01*
X49405519Y-121360500D01*
X49405524Y-121360500D01*
X49594476Y-121360500D01*
X49594481Y-121360500D01*
X49781118Y-121330940D01*
X49960832Y-121272547D01*
X50129199Y-121186760D01*
X50282073Y-121075690D01*
X50415690Y-120942073D01*
X50526760Y-120789199D01*
X50612547Y-120620832D01*
X50670940Y-120441118D01*
X50700500Y-120254481D01*
X50700500Y-120065519D01*
X50670940Y-119878882D01*
X50670939Y-119878881D01*
X50670939Y-119878876D01*
X50663191Y-119855031D01*
X50659154Y-119778009D01*
X50694169Y-119709287D01*
X50699520Y-119703647D01*
X51000597Y-119402571D01*
X51000602Y-119402567D01*
X51012863Y-119390305D01*
X51012865Y-119390305D01*
X51110705Y-119292465D01*
X51179888Y-119172636D01*
X51186332Y-119148585D01*
X51192201Y-119126687D01*
X51202132Y-119089619D01*
X51215701Y-119038983D01*
X51215701Y-118900617D01*
X51215701Y-118891489D01*
X51215700Y-118891471D01*
X51215700Y-105003203D01*
X51235662Y-104928703D01*
X51259341Y-104897844D01*
X51292141Y-104865044D01*
X51358936Y-104826480D01*
X51436064Y-104826480D01*
X51502859Y-104865044D01*
X51629779Y-104991964D01*
X51629787Y-104991971D01*
X51795390Y-105112287D01*
X51870144Y-105150376D01*
X51927462Y-105201984D01*
X51951296Y-105275338D01*
X51951500Y-105283136D01*
X51951500Y-118558671D01*
X51951499Y-118558689D01*
X51951499Y-118706183D01*
X51967518Y-118765965D01*
X51987312Y-118839836D01*
X52056495Y-118959665D01*
X52162825Y-119065995D01*
X52162831Y-119066000D01*
X52800460Y-119703629D01*
X52839024Y-119770424D01*
X52839024Y-119847552D01*
X52836810Y-119855028D01*
X52829060Y-119878880D01*
X52829060Y-119878882D01*
X52799500Y-120065519D01*
X52799500Y-120254481D01*
X52829060Y-120441118D01*
X52887453Y-120620832D01*
X52887457Y-120620841D01*
X52887458Y-120620842D01*
X52907558Y-120660291D01*
X52973240Y-120789199D01*
X53084310Y-120942073D01*
X53217927Y-121075690D01*
X53370801Y-121186760D01*
X53539168Y-121272547D01*
X53718882Y-121330940D01*
X53905519Y-121360500D01*
X53905524Y-121360500D01*
X54094476Y-121360500D01*
X54094481Y-121360500D01*
X54281118Y-121330940D01*
X54460832Y-121272547D01*
X54629199Y-121186760D01*
X54782073Y-121075690D01*
X54915690Y-120942073D01*
X55026760Y-120789199D01*
X55112547Y-120620832D01*
X55170940Y-120441118D01*
X55200500Y-120254481D01*
X55200500Y-120065519D01*
X55170940Y-119878882D01*
X55112547Y-119699168D01*
X55026760Y-119530801D01*
X54915690Y-119377927D01*
X54782073Y-119244310D01*
X54629199Y-119133240D01*
X54460832Y-119047453D01*
X54281118Y-118989060D01*
X54094481Y-118959500D01*
X53905519Y-118959500D01*
X53772206Y-118980614D01*
X53718880Y-118989060D01*
X53695028Y-118996810D01*
X53618006Y-119000844D01*
X53549285Y-118965827D01*
X53543629Y-118960460D01*
X53046141Y-118462972D01*
X53007577Y-118396177D01*
X53002500Y-118357613D01*
X53002500Y-111051601D01*
X53022462Y-110977101D01*
X53077000Y-110922563D01*
X53151500Y-110902601D01*
X53226000Y-110922563D01*
X53239063Y-110931046D01*
X53335317Y-111000979D01*
X53370804Y-111026762D01*
X53445062Y-111064598D01*
X53539168Y-111112547D01*
X53718882Y-111170940D01*
X53905519Y-111200500D01*
X53905524Y-111200500D01*
X54094476Y-111200500D01*
X54094481Y-111200500D01*
X54281118Y-111170940D01*
X54460832Y-111112547D01*
X54629199Y-111026760D01*
X54782073Y-110915690D01*
X54915690Y-110782073D01*
X55026760Y-110629199D01*
X55112547Y-110460832D01*
X55170940Y-110281118D01*
X55200500Y-110094481D01*
X55200500Y-109905519D01*
X55170940Y-109718882D01*
X55112547Y-109539168D01*
X55026760Y-109370801D01*
X54915690Y-109217927D01*
X54782073Y-109084310D01*
X54629199Y-108973240D01*
X54629198Y-108973239D01*
X54629195Y-108973237D01*
X54606854Y-108961854D01*
X54549537Y-108910244D01*
X54525704Y-108836891D01*
X54525500Y-108829095D01*
X54525500Y-91079386D01*
X54545462Y-91004886D01*
X54569137Y-90974031D01*
X62603951Y-82939216D01*
X62670744Y-82900654D01*
X62747872Y-82900654D01*
X62755310Y-82902857D01*
X62807174Y-82919709D01*
X63001583Y-82950500D01*
X63001588Y-82950500D01*
X63198411Y-82950500D01*
X63198417Y-82950500D01*
X63277696Y-82937943D01*
X63354398Y-82946005D01*
X63416796Y-82991340D01*
X63448167Y-83061800D01*
X63440105Y-83138506D01*
X63406360Y-83190468D01*
X55377837Y-91218993D01*
X55279995Y-91316834D01*
X55210812Y-91436664D01*
X55174999Y-91570316D01*
X55174999Y-91720687D01*
X55175000Y-91720700D01*
X55175000Y-106678015D01*
X55155038Y-106752515D01*
X55131359Y-106783374D01*
X55117552Y-106797180D01*
X55117548Y-106797185D01*
X55035416Y-106920102D01*
X54978841Y-107056688D01*
X54950000Y-107201678D01*
X54950000Y-107349521D01*
X54978841Y-107494511D01*
X55035416Y-107631097D01*
X55101032Y-107729297D01*
X55117549Y-107754016D01*
X55222084Y-107858551D01*
X55271185Y-107891359D01*
X55345002Y-107940683D01*
X55375944Y-107953499D01*
X55481587Y-107997258D01*
X55626582Y-108026100D01*
X55626586Y-108026100D01*
X55774414Y-108026100D01*
X55774418Y-108026100D01*
X55919413Y-107997258D01*
X56055995Y-107940684D01*
X56055995Y-107940683D01*
X56055997Y-107940683D01*
X56080713Y-107924167D01*
X56178916Y-107858551D01*
X56283451Y-107754016D01*
X56365584Y-107631095D01*
X56422158Y-107494513D01*
X56451000Y-107349518D01*
X56451000Y-107201682D01*
X56422158Y-107056687D01*
X56365584Y-106920105D01*
X56365583Y-106920102D01*
X56316259Y-106846285D01*
X56283451Y-106797184D01*
X56269641Y-106783374D01*
X56231077Y-106716579D01*
X56226000Y-106678015D01*
X56226000Y-91918887D01*
X56245962Y-91844387D01*
X56269641Y-91813528D01*
X60677650Y-87405519D01*
X65143952Y-82939216D01*
X65210745Y-82900654D01*
X65287873Y-82900654D01*
X65295294Y-82902851D01*
X65347174Y-82919709D01*
X65541583Y-82950500D01*
X65541588Y-82950500D01*
X65738412Y-82950500D01*
X65738417Y-82950500D01*
X65932826Y-82919709D01*
X66120025Y-82858884D01*
X66295405Y-82769524D01*
X66454646Y-82653828D01*
X66593828Y-82514646D01*
X66709524Y-82355405D01*
X66777240Y-82222503D01*
X66828848Y-82165186D01*
X66902201Y-82141352D01*
X66977644Y-82157388D01*
X67034962Y-82208996D01*
X67042759Y-82222503D01*
X67110476Y-82355405D01*
X67226172Y-82514646D01*
X67365354Y-82653828D01*
X67524595Y-82769524D01*
X67699975Y-82858884D01*
X67887174Y-82919709D01*
X68081583Y-82950500D01*
X68081588Y-82950500D01*
X68278412Y-82950500D01*
X68278417Y-82950500D01*
X68472826Y-82919709D01*
X68660025Y-82858884D01*
X68835405Y-82769524D01*
X68994646Y-82653828D01*
X69133828Y-82514646D01*
X69249524Y-82355405D01*
X69317240Y-82222503D01*
X69368848Y-82165186D01*
X69442201Y-82141352D01*
X69517644Y-82157388D01*
X69574962Y-82208996D01*
X69582759Y-82222503D01*
X69650476Y-82355405D01*
X69766172Y-82514646D01*
X69905354Y-82653828D01*
X70064595Y-82769524D01*
X70239975Y-82858884D01*
X70427174Y-82919709D01*
X70621583Y-82950500D01*
X70621588Y-82950500D01*
X70818412Y-82950500D01*
X70818417Y-82950500D01*
X71012826Y-82919709D01*
X71064648Y-82902870D01*
X71141665Y-82898832D01*
X71210388Y-82933846D01*
X71216049Y-82939218D01*
X84951293Y-96674462D01*
X84951293Y-96674463D01*
X85049131Y-96772302D01*
X85049133Y-96772303D01*
X85049135Y-96772305D01*
X85168964Y-96841488D01*
X85235790Y-96859394D01*
X85302616Y-96877300D01*
X85302617Y-96877300D01*
X102050413Y-96877300D01*
X102124913Y-96897262D01*
X102155772Y-96920941D01*
X104659608Y-99424777D01*
X104698172Y-99491572D01*
X104698172Y-99568700D01*
X104659608Y-99635495D01*
X104592813Y-99674059D01*
X104534801Y-99677861D01*
X104471293Y-99669500D01*
X104471288Y-99669500D01*
X104228712Y-99669500D01*
X104228706Y-99669500D01*
X103988218Y-99701160D01*
X103753896Y-99763947D01*
X103529783Y-99856778D01*
X103319712Y-99978063D01*
X103319711Y-99978064D01*
X103127262Y-100125735D01*
X103127260Y-100125736D01*
X103127256Y-100125740D01*
X102955740Y-100297256D01*
X102808061Y-100489714D01*
X102778037Y-100541718D01*
X102723499Y-100596255D01*
X102648999Y-100616217D01*
X102574499Y-100596254D01*
X102519962Y-100541716D01*
X102500000Y-100467217D01*
X102500000Y-98500000D01*
X59000000Y-98500000D01*
X59000000Y-139350500D01*
X58980038Y-139425000D01*
X58925500Y-139479538D01*
X58851000Y-139499500D01*
X40649500Y-139499500D01*
X40575000Y-139479538D01*
X40520462Y-139425000D01*
X40500500Y-139350500D01*
X40500500Y-135878706D01*
X42149500Y-135878706D01*
X42149500Y-136121293D01*
X42181160Y-136361781D01*
X42243947Y-136596103D01*
X42264236Y-136645085D01*
X42336776Y-136820212D01*
X42458064Y-137030289D01*
X42605735Y-137222738D01*
X42777262Y-137394265D01*
X42969711Y-137541936D01*
X43179788Y-137663224D01*
X43403900Y-137756054D01*
X43638211Y-137818838D01*
X43638217Y-137818838D01*
X43638218Y-137818839D01*
X43703600Y-137827446D01*
X43878712Y-137850500D01*
X44121288Y-137850500D01*
X44361789Y-137818838D01*
X44596100Y-137756054D01*
X44820212Y-137663224D01*
X45030289Y-137541936D01*
X45222738Y-137394265D01*
X45394265Y-137222738D01*
X45541936Y-137030289D01*
X45663224Y-136820212D01*
X45756054Y-136596100D01*
X45818838Y-136361789D01*
X45850500Y-136121288D01*
X45850500Y-135878712D01*
X45818838Y-135638211D01*
X45756054Y-135403900D01*
X45663224Y-135179788D01*
X45541936Y-134969711D01*
X45394265Y-134777262D01*
X45222738Y-134605735D01*
X45030289Y-134458064D01*
X44960263Y-134417634D01*
X44820216Y-134336778D01*
X44820214Y-134336777D01*
X44820212Y-134336776D01*
X44688932Y-134282398D01*
X44596103Y-134243947D01*
X44596101Y-134243946D01*
X44596100Y-134243946D01*
X44361789Y-134181162D01*
X44361787Y-134181161D01*
X44361781Y-134181160D01*
X44121293Y-134149500D01*
X44121288Y-134149500D01*
X43878712Y-134149500D01*
X43878706Y-134149500D01*
X43638218Y-134181160D01*
X43403896Y-134243947D01*
X43179783Y-134336778D01*
X42969712Y-134458063D01*
X42969711Y-134458064D01*
X42777262Y-134605735D01*
X42777260Y-134605736D01*
X42777256Y-134605740D01*
X42605740Y-134777256D01*
X42458063Y-134969712D01*
X42336778Y-135179783D01*
X42243947Y-135403896D01*
X42181160Y-135638218D01*
X42149500Y-135878706D01*
X40500500Y-135878706D01*
X40500500Y-120065519D01*
X43799500Y-120065519D01*
X43799500Y-120254481D01*
X43829060Y-120441118D01*
X43887453Y-120620832D01*
X43887457Y-120620841D01*
X43887458Y-120620842D01*
X43907558Y-120660291D01*
X43973240Y-120789199D01*
X44084310Y-120942073D01*
X44217927Y-121075690D01*
X44370801Y-121186760D01*
X44539168Y-121272547D01*
X44718882Y-121330940D01*
X44905519Y-121360500D01*
X44905524Y-121360500D01*
X45094476Y-121360500D01*
X45094481Y-121360500D01*
X45281118Y-121330940D01*
X45460832Y-121272547D01*
X45629199Y-121186760D01*
X45782073Y-121075690D01*
X45915690Y-120942073D01*
X46026760Y-120789199D01*
X46112547Y-120620832D01*
X46170940Y-120441118D01*
X46200500Y-120254481D01*
X46200500Y-120065519D01*
X46170940Y-119878882D01*
X46112547Y-119699168D01*
X46026760Y-119530801D01*
X45915690Y-119377927D01*
X45782073Y-119244310D01*
X45629199Y-119133240D01*
X45460832Y-119047453D01*
X45281118Y-118989060D01*
X45094481Y-118959500D01*
X44905519Y-118959500D01*
X44718882Y-118989060D01*
X44539168Y-119047453D01*
X44539163Y-119047455D01*
X44539157Y-119047458D01*
X44370804Y-119133238D01*
X44370799Y-119133241D01*
X44217936Y-119244303D01*
X44217925Y-119244312D01*
X44084312Y-119377925D01*
X44084303Y-119377936D01*
X43973241Y-119530799D01*
X43973238Y-119530804D01*
X43887458Y-119699157D01*
X43887451Y-119699174D01*
X43884165Y-119709287D01*
X43829060Y-119878882D01*
X43799500Y-120065519D01*
X40500500Y-120065519D01*
X40500500Y-44298706D01*
X42149500Y-44298706D01*
X42149500Y-44541293D01*
X42181160Y-44781781D01*
X42181161Y-44781787D01*
X42181162Y-44781789D01*
X42243946Y-45016100D01*
X42336776Y-45240212D01*
X42458064Y-45450289D01*
X42605735Y-45642738D01*
X42777262Y-45814265D01*
X42969711Y-45961936D01*
X43179788Y-46083224D01*
X43403900Y-46176054D01*
X43638211Y-46238838D01*
X43638217Y-46238838D01*
X43638218Y-46238839D01*
X43703600Y-46247446D01*
X43878712Y-46270500D01*
X44121288Y-46270500D01*
X44361789Y-46238838D01*
X44596100Y-46176054D01*
X44820212Y-46083224D01*
X45030289Y-45961936D01*
X45222738Y-45814265D01*
X45394265Y-45642738D01*
X45541936Y-45450289D01*
X45663224Y-45240212D01*
X45756054Y-45016100D01*
X45818838Y-44781789D01*
X45850500Y-44541288D01*
X45850500Y-44298712D01*
X45850499Y-44298706D01*
X134149500Y-44298706D01*
X134149500Y-44541293D01*
X134181160Y-44781781D01*
X134181161Y-44781787D01*
X134181162Y-44781789D01*
X134243946Y-45016100D01*
X134336776Y-45240212D01*
X134458064Y-45450289D01*
X134605735Y-45642738D01*
X134777262Y-45814265D01*
X134969711Y-45961936D01*
X135179788Y-46083224D01*
X135403900Y-46176054D01*
X135638211Y-46238838D01*
X135638217Y-46238838D01*
X135638218Y-46238839D01*
X135703600Y-46247446D01*
X135878712Y-46270500D01*
X136121288Y-46270500D01*
X136361789Y-46238838D01*
X136596100Y-46176054D01*
X136820212Y-46083224D01*
X137030289Y-45961936D01*
X137222738Y-45814265D01*
X137394265Y-45642738D01*
X137541936Y-45450289D01*
X137663224Y-45240212D01*
X137756054Y-45016100D01*
X137818838Y-44781789D01*
X137850500Y-44541288D01*
X137850500Y-44298712D01*
X137818838Y-44058211D01*
X137756054Y-43823900D01*
X137663224Y-43599788D01*
X137541936Y-43389711D01*
X137394265Y-43197262D01*
X137222738Y-43025735D01*
X137030289Y-42878064D01*
X136960263Y-42837634D01*
X136820216Y-42756778D01*
X136820214Y-42756777D01*
X136820212Y-42756776D01*
X136688932Y-42702398D01*
X136596103Y-42663947D01*
X136596101Y-42663946D01*
X136596100Y-42663946D01*
X136361789Y-42601162D01*
X136361787Y-42601161D01*
X136361781Y-42601160D01*
X136121293Y-42569500D01*
X136121288Y-42569500D01*
X135878712Y-42569500D01*
X135878706Y-42569500D01*
X135638218Y-42601160D01*
X135403896Y-42663947D01*
X135179783Y-42756778D01*
X134969712Y-42878063D01*
X134969711Y-42878064D01*
X134777262Y-43025735D01*
X134777260Y-43025736D01*
X134777256Y-43025740D01*
X134605740Y-43197256D01*
X134458063Y-43389712D01*
X134336778Y-43599783D01*
X134243947Y-43823896D01*
X134181160Y-44058218D01*
X134149500Y-44298706D01*
X45850499Y-44298706D01*
X45818838Y-44058211D01*
X45756054Y-43823900D01*
X45663224Y-43599788D01*
X45541936Y-43389711D01*
X45394265Y-43197262D01*
X45222738Y-43025735D01*
X45030289Y-42878064D01*
X44960263Y-42837634D01*
X44820216Y-42756778D01*
X44820214Y-42756777D01*
X44820212Y-42756776D01*
X44688932Y-42702398D01*
X44596103Y-42663947D01*
X44596101Y-42663946D01*
X44596100Y-42663946D01*
X44361789Y-42601162D01*
X44361787Y-42601161D01*
X44361781Y-42601160D01*
X44121293Y-42569500D01*
X44121288Y-42569500D01*
X43878712Y-42569500D01*
X43878706Y-42569500D01*
X43638218Y-42601160D01*
X43403896Y-42663947D01*
X43179783Y-42756778D01*
X42969712Y-42878063D01*
X42969711Y-42878064D01*
X42777262Y-43025735D01*
X42777260Y-43025736D01*
X42777256Y-43025740D01*
X42605740Y-43197256D01*
X42458063Y-43389712D01*
X42336778Y-43599783D01*
X42243947Y-43823896D01*
X42181160Y-44058218D01*
X42149500Y-44298706D01*
X40500500Y-44298706D01*
X40500500Y-40649500D01*
X40520462Y-40575000D01*
X40575000Y-40520462D01*
X40649500Y-40500500D01*
X139350500Y-40500500D01*
X139425000Y-40520462D01*
G37*
%TD.AperFunction*%
%TA.AperFunction,Conductor*%
G36*
X52474075Y-56492993D02*
G01*
X52539901Y-56607007D01*
X52632993Y-56700099D01*
X52747007Y-56765925D01*
X52810590Y-56782962D01*
X52178282Y-57415270D01*
X52232444Y-57454621D01*
X52232444Y-57454622D01*
X52421779Y-57551093D01*
X52623871Y-57616757D01*
X52833758Y-57650000D01*
X53046242Y-57650000D01*
X53256128Y-57616757D01*
X53458220Y-57551093D01*
X53647555Y-57454622D01*
X53647557Y-57454620D01*
X53701716Y-57415270D01*
X53701716Y-57415269D01*
X53069409Y-56782962D01*
X53132993Y-56765925D01*
X53247007Y-56700099D01*
X53340099Y-56607007D01*
X53405925Y-56492993D01*
X53422962Y-56429409D01*
X54055269Y-57061716D01*
X54055270Y-57061716D01*
X54094620Y-57007557D01*
X54094621Y-57007555D01*
X54133075Y-56932087D01*
X54184684Y-56874770D01*
X54258037Y-56850936D01*
X54333480Y-56866972D01*
X54390797Y-56918581D01*
X54398594Y-56932086D01*
X54410476Y-56955405D01*
X54526172Y-57114646D01*
X54665354Y-57253828D01*
X54824595Y-57369524D01*
X54999975Y-57458884D01*
X55187174Y-57519709D01*
X55381583Y-57550500D01*
X55381588Y-57550500D01*
X55578412Y-57550500D01*
X55578417Y-57550500D01*
X55772826Y-57519709D01*
X55960025Y-57458884D01*
X56135405Y-57369524D01*
X56294646Y-57253828D01*
X56433828Y-57114646D01*
X56549524Y-56955405D01*
X56617240Y-56822503D01*
X56668848Y-56765186D01*
X56742201Y-56741352D01*
X56817644Y-56757388D01*
X56874962Y-56808996D01*
X56882759Y-56822503D01*
X56950476Y-56955405D01*
X57066172Y-57114646D01*
X57205354Y-57253828D01*
X57364595Y-57369524D01*
X57539975Y-57458884D01*
X57727174Y-57519709D01*
X57921583Y-57550500D01*
X57921588Y-57550500D01*
X58118412Y-57550500D01*
X58118417Y-57550500D01*
X58312826Y-57519709D01*
X58500025Y-57458884D01*
X58675405Y-57369524D01*
X58834646Y-57253828D01*
X58973828Y-57114646D01*
X59089524Y-56955405D01*
X59157240Y-56822503D01*
X59208848Y-56765186D01*
X59282201Y-56741352D01*
X59357644Y-56757388D01*
X59414962Y-56808996D01*
X59422759Y-56822503D01*
X59490476Y-56955405D01*
X59606172Y-57114646D01*
X59745354Y-57253828D01*
X59904595Y-57369524D01*
X60079975Y-57458884D01*
X60267174Y-57519709D01*
X60461583Y-57550500D01*
X60461588Y-57550500D01*
X60658412Y-57550500D01*
X60658417Y-57550500D01*
X60852826Y-57519709D01*
X61040025Y-57458884D01*
X61215405Y-57369524D01*
X61374646Y-57253828D01*
X61513828Y-57114646D01*
X61629524Y-56955405D01*
X61697240Y-56822503D01*
X61748848Y-56765186D01*
X61822201Y-56741352D01*
X61897644Y-56757388D01*
X61954962Y-56808996D01*
X61962759Y-56822503D01*
X62030476Y-56955405D01*
X62146172Y-57114646D01*
X62285354Y-57253828D01*
X62444595Y-57369524D01*
X62619975Y-57458884D01*
X62807174Y-57519709D01*
X63001583Y-57550500D01*
X63001588Y-57550500D01*
X63198412Y-57550500D01*
X63198417Y-57550500D01*
X63392826Y-57519709D01*
X63580025Y-57458884D01*
X63755405Y-57369524D01*
X63914646Y-57253828D01*
X64053828Y-57114646D01*
X64169524Y-56955405D01*
X64237240Y-56822503D01*
X64288848Y-56765186D01*
X64362201Y-56741352D01*
X64437644Y-56757388D01*
X64494962Y-56808996D01*
X64502759Y-56822503D01*
X64570476Y-56955405D01*
X64686172Y-57114646D01*
X64825354Y-57253828D01*
X64939381Y-57336674D01*
X64971154Y-57359759D01*
X64984595Y-57369524D01*
X65033145Y-57394261D01*
X65090461Y-57445868D01*
X65114296Y-57519221D01*
X65114500Y-57527020D01*
X65114500Y-74068071D01*
X65114499Y-74068089D01*
X65114499Y-74215583D01*
X65137196Y-74300290D01*
X65137197Y-74300290D01*
X65150312Y-74349237D01*
X65219495Y-74469065D01*
X65325825Y-74575395D01*
X65325831Y-74575400D01*
X70947467Y-80197036D01*
X70986031Y-80263831D01*
X70986031Y-80340959D01*
X70947467Y-80407754D01*
X70880672Y-80446318D01*
X70824301Y-80449274D01*
X70824248Y-80449959D01*
X70819047Y-80449549D01*
X70818810Y-80449562D01*
X70818418Y-80449500D01*
X70818417Y-80449500D01*
X70621583Y-80449500D01*
X70427174Y-80480291D01*
X70298962Y-80521950D01*
X70239975Y-80541116D01*
X70239972Y-80541117D01*
X70239963Y-80541121D01*
X70064598Y-80630474D01*
X70064593Y-80630477D01*
X69905363Y-80746165D01*
X69905352Y-80746174D01*
X69766174Y-80885352D01*
X69766165Y-80885363D01*
X69650477Y-81044593D01*
X69650474Y-81044598D01*
X69582760Y-81177495D01*
X69531151Y-81234813D01*
X69457798Y-81258647D01*
X69382356Y-81242611D01*
X69325038Y-81191002D01*
X69317240Y-81177495D01*
X69267573Y-81080018D01*
X69249524Y-81044595D01*
X69133828Y-80885354D01*
X68994646Y-80746172D01*
X68835405Y-80630476D01*
X68825010Y-80625179D01*
X68660036Y-80541121D01*
X68660030Y-80541119D01*
X68660025Y-80541116D01*
X68472826Y-80480291D01*
X68278417Y-80449500D01*
X68081583Y-80449500D01*
X67887174Y-80480291D01*
X67758962Y-80521950D01*
X67699975Y-80541116D01*
X67699972Y-80541117D01*
X67699963Y-80541121D01*
X67524598Y-80630474D01*
X67524593Y-80630477D01*
X67365363Y-80746165D01*
X67365352Y-80746174D01*
X67226174Y-80885352D01*
X67226165Y-80885363D01*
X67110477Y-81044593D01*
X67110474Y-81044598D01*
X67042760Y-81177495D01*
X66991151Y-81234813D01*
X66917798Y-81258647D01*
X66842356Y-81242611D01*
X66785038Y-81191002D01*
X66777240Y-81177495D01*
X66727573Y-81080018D01*
X66709524Y-81044595D01*
X66593828Y-80885354D01*
X66454646Y-80746172D01*
X66295405Y-80630476D01*
X66285010Y-80625179D01*
X66120036Y-80541121D01*
X66120030Y-80541119D01*
X66120025Y-80541116D01*
X65932826Y-80480291D01*
X65738417Y-80449500D01*
X65541583Y-80449500D01*
X65347174Y-80480291D01*
X65218962Y-80521950D01*
X65159975Y-80541116D01*
X65159972Y-80541117D01*
X65159963Y-80541121D01*
X64984598Y-80630474D01*
X64984593Y-80630477D01*
X64825363Y-80746165D01*
X64825352Y-80746174D01*
X64686174Y-80885352D01*
X64686165Y-80885363D01*
X64570477Y-81044593D01*
X64570474Y-81044598D01*
X64502760Y-81177495D01*
X64451151Y-81234813D01*
X64377798Y-81258647D01*
X64302356Y-81242611D01*
X64245038Y-81191002D01*
X64237240Y-81177495D01*
X64187573Y-81080018D01*
X64169524Y-81044595D01*
X64053828Y-80885354D01*
X63914646Y-80746172D01*
X63755405Y-80630476D01*
X63745010Y-80625179D01*
X63580036Y-80541121D01*
X63580030Y-80541119D01*
X63580025Y-80541116D01*
X63392826Y-80480291D01*
X63198417Y-80449500D01*
X63001583Y-80449500D01*
X62807174Y-80480291D01*
X62678962Y-80521950D01*
X62619975Y-80541116D01*
X62619972Y-80541117D01*
X62619963Y-80541121D01*
X62444598Y-80630474D01*
X62444593Y-80630477D01*
X62285363Y-80746165D01*
X62285352Y-80746174D01*
X62146174Y-80885352D01*
X62146165Y-80885363D01*
X62030477Y-81044593D01*
X62030474Y-81044598D01*
X61962760Y-81177495D01*
X61911151Y-81234813D01*
X61837798Y-81258647D01*
X61762356Y-81242611D01*
X61705038Y-81191002D01*
X61697240Y-81177495D01*
X61647573Y-81080018D01*
X61629524Y-81044595D01*
X61513828Y-80885354D01*
X61374646Y-80746172D01*
X61215405Y-80630476D01*
X61205010Y-80625179D01*
X61040036Y-80541121D01*
X61040030Y-80541119D01*
X61040025Y-80541116D01*
X60852826Y-80480291D01*
X60658417Y-80449500D01*
X60461583Y-80449500D01*
X60267174Y-80480291D01*
X60138962Y-80521950D01*
X60079975Y-80541116D01*
X60079972Y-80541117D01*
X60079963Y-80541121D01*
X59904598Y-80630474D01*
X59904593Y-80630477D01*
X59745363Y-80746165D01*
X59745352Y-80746174D01*
X59606174Y-80885352D01*
X59606165Y-80885363D01*
X59490477Y-81044593D01*
X59490474Y-81044598D01*
X59422760Y-81177495D01*
X59371151Y-81234813D01*
X59297798Y-81258647D01*
X59222356Y-81242611D01*
X59165038Y-81191002D01*
X59157240Y-81177495D01*
X59107573Y-81080018D01*
X59089524Y-81044595D01*
X58973828Y-80885354D01*
X58834646Y-80746172D01*
X58675405Y-80630476D01*
X58665010Y-80625179D01*
X58500036Y-80541121D01*
X58500030Y-80541119D01*
X58500025Y-80541116D01*
X58312826Y-80480291D01*
X58118417Y-80449500D01*
X57921583Y-80449500D01*
X57727174Y-80480291D01*
X57598962Y-80521950D01*
X57539975Y-80541116D01*
X57539972Y-80541117D01*
X57539963Y-80541121D01*
X57364598Y-80630474D01*
X57364593Y-80630477D01*
X57205363Y-80746165D01*
X57205352Y-80746174D01*
X57066174Y-80885352D01*
X57066165Y-80885363D01*
X56950477Y-81044593D01*
X56950474Y-81044598D01*
X56882760Y-81177495D01*
X56831151Y-81234813D01*
X56757798Y-81258647D01*
X56682356Y-81242611D01*
X56625038Y-81191002D01*
X56617240Y-81177495D01*
X56567573Y-81080018D01*
X56549524Y-81044595D01*
X56433828Y-80885354D01*
X56294646Y-80746172D01*
X56135405Y-80630476D01*
X56125010Y-80625179D01*
X55960036Y-80541121D01*
X55960030Y-80541119D01*
X55960025Y-80541116D01*
X55772826Y-80480291D01*
X55578417Y-80449500D01*
X55381583Y-80449500D01*
X55187174Y-80480291D01*
X55058962Y-80521950D01*
X54999975Y-80541116D01*
X54999972Y-80541117D01*
X54999963Y-80541121D01*
X54824598Y-80630474D01*
X54824593Y-80630477D01*
X54665363Y-80746165D01*
X54665352Y-80746174D01*
X54526174Y-80885352D01*
X54526165Y-80885363D01*
X54410477Y-81044593D01*
X54410476Y-81044594D01*
X54398594Y-81067914D01*
X54346984Y-81125231D01*
X54273630Y-81149063D01*
X54198188Y-81133026D01*
X54140871Y-81081416D01*
X54133075Y-81067912D01*
X54094621Y-80992444D01*
X54055270Y-80938282D01*
X53422962Y-81570589D01*
X53405925Y-81507007D01*
X53340099Y-81392993D01*
X53247007Y-81299901D01*
X53132993Y-81234075D01*
X53069407Y-81217037D01*
X53701716Y-80584729D01*
X53701716Y-80584728D01*
X53647555Y-80545378D01*
X53647555Y-80545377D01*
X53458220Y-80448906D01*
X53256128Y-80383242D01*
X53046242Y-80350000D01*
X52833758Y-80350000D01*
X52623871Y-80383242D01*
X52421779Y-80448906D01*
X52232444Y-80545378D01*
X52178282Y-80584728D01*
X52178282Y-80584729D01*
X52810590Y-81217037D01*
X52747007Y-81234075D01*
X52632993Y-81299901D01*
X52539901Y-81392993D01*
X52474075Y-81507007D01*
X52457037Y-81570590D01*
X51824729Y-80938282D01*
X51824728Y-80938282D01*
X51785378Y-80992444D01*
X51746923Y-81067914D01*
X51695313Y-81125230D01*
X51621960Y-81149063D01*
X51546517Y-81133026D01*
X51489201Y-81081416D01*
X51481411Y-81067926D01*
X51469524Y-81044595D01*
X51353828Y-80885354D01*
X51214646Y-80746172D01*
X51055405Y-80630476D01*
X51045010Y-80625179D01*
X50880036Y-80541121D01*
X50880030Y-80541119D01*
X50880025Y-80541116D01*
X50692826Y-80480291D01*
X50498417Y-80449500D01*
X50301583Y-80449500D01*
X50107174Y-80480291D01*
X49978962Y-80521950D01*
X49919975Y-80541116D01*
X49919972Y-80541117D01*
X49919963Y-80541121D01*
X49744598Y-80630474D01*
X49744593Y-80630477D01*
X49585363Y-80746165D01*
X49585352Y-80746174D01*
X49446174Y-80885352D01*
X49446165Y-80885363D01*
X49330477Y-81044593D01*
X49330474Y-81044598D01*
X49241121Y-81219963D01*
X49241117Y-81219972D01*
X49241116Y-81219975D01*
X49180291Y-81407174D01*
X49149500Y-81601583D01*
X49149500Y-81798417D01*
X49180291Y-81992826D01*
X49241116Y-82180025D01*
X49241119Y-82180030D01*
X49241121Y-82180036D01*
X49311712Y-82318578D01*
X49330476Y-82355405D01*
X49446172Y-82514646D01*
X49585354Y-82653828D01*
X49744595Y-82769524D01*
X49919975Y-82858884D01*
X50107174Y-82919709D01*
X50301583Y-82950500D01*
X50301588Y-82950500D01*
X50498412Y-82950500D01*
X50498417Y-82950500D01*
X50692826Y-82919709D01*
X50880025Y-82858884D01*
X51055405Y-82769524D01*
X51214646Y-82653828D01*
X51353828Y-82514646D01*
X51469524Y-82355405D01*
X51481404Y-82332088D01*
X51533010Y-82274772D01*
X51606363Y-82250936D01*
X51681806Y-82266971D01*
X51739124Y-82318578D01*
X51746923Y-82332086D01*
X51785374Y-82407550D01*
X51785378Y-82407555D01*
X51824728Y-82461716D01*
X51824729Y-82461716D01*
X52457037Y-81829408D01*
X52474075Y-81892993D01*
X52539901Y-82007007D01*
X52632993Y-82100099D01*
X52747007Y-82165925D01*
X52810590Y-82182962D01*
X52178282Y-82815270D01*
X52232444Y-82854621D01*
X52232444Y-82854622D01*
X52421779Y-82951093D01*
X52623871Y-83016757D01*
X52833758Y-83050000D01*
X53046242Y-83050000D01*
X53256128Y-83016757D01*
X53458220Y-82951093D01*
X53647555Y-82854622D01*
X53647557Y-82854620D01*
X53701716Y-82815270D01*
X53701716Y-82815269D01*
X53069409Y-82182962D01*
X53132993Y-82165925D01*
X53247007Y-82100099D01*
X53340099Y-82007007D01*
X53405925Y-81892993D01*
X53422962Y-81829409D01*
X54055269Y-82461716D01*
X54055270Y-82461716D01*
X54094620Y-82407557D01*
X54094621Y-82407555D01*
X54133075Y-82332087D01*
X54184684Y-82274770D01*
X54258037Y-82250936D01*
X54333480Y-82266972D01*
X54390797Y-82318581D01*
X54398594Y-82332086D01*
X54410476Y-82355405D01*
X54526172Y-82514646D01*
X54665354Y-82653828D01*
X54824595Y-82769524D01*
X54999975Y-82858884D01*
X55187174Y-82919709D01*
X55381583Y-82950500D01*
X55381588Y-82950500D01*
X55578412Y-82950500D01*
X55578417Y-82950500D01*
X55772826Y-82919709D01*
X55960025Y-82858884D01*
X56135405Y-82769524D01*
X56294646Y-82653828D01*
X56433828Y-82514646D01*
X56549524Y-82355405D01*
X56617240Y-82222503D01*
X56668848Y-82165186D01*
X56742201Y-82141352D01*
X56817644Y-82157388D01*
X56874962Y-82208996D01*
X56882759Y-82222503D01*
X56950476Y-82355405D01*
X57066172Y-82514646D01*
X57205354Y-82653828D01*
X57364595Y-82769524D01*
X57539975Y-82858884D01*
X57727174Y-82919709D01*
X57921583Y-82950500D01*
X57921588Y-82950500D01*
X58118412Y-82950500D01*
X58118417Y-82950500D01*
X58312826Y-82919709D01*
X58500025Y-82858884D01*
X58675405Y-82769524D01*
X58834646Y-82653828D01*
X58973828Y-82514646D01*
X59089524Y-82355405D01*
X59157240Y-82222503D01*
X59208848Y-82165186D01*
X59282201Y-82141352D01*
X59357644Y-82157388D01*
X59414962Y-82208996D01*
X59422759Y-82222503D01*
X59490476Y-82355405D01*
X59606172Y-82514646D01*
X59745354Y-82653828D01*
X59904595Y-82769524D01*
X60079975Y-82858884D01*
X60267174Y-82919709D01*
X60461583Y-82950500D01*
X60461588Y-82950500D01*
X60658411Y-82950500D01*
X60658417Y-82950500D01*
X60737697Y-82937943D01*
X60814399Y-82946006D01*
X60876797Y-82991340D01*
X60908168Y-83061800D01*
X60900105Y-83138506D01*
X60866361Y-83190468D01*
X53677337Y-90379493D01*
X53579495Y-90477334D01*
X53510312Y-90597164D01*
X53474499Y-90730816D01*
X53474499Y-90881187D01*
X53474500Y-90881200D01*
X53474500Y-102824790D01*
X53454538Y-102899290D01*
X53400000Y-102953828D01*
X53325500Y-102973790D01*
X53251000Y-102953828D01*
X53237922Y-102945335D01*
X53158611Y-102887713D01*
X52976224Y-102794782D01*
X52976220Y-102794780D01*
X52976219Y-102794780D01*
X52781534Y-102731523D01*
X52579352Y-102699500D01*
X52374648Y-102699500D01*
X52206163Y-102726185D01*
X52172465Y-102731523D01*
X51977787Y-102794778D01*
X51977775Y-102794782D01*
X51795387Y-102887714D01*
X51629787Y-103008028D01*
X51629779Y-103008035D01*
X51502859Y-103134956D01*
X51436064Y-103173520D01*
X51358936Y-103173520D01*
X51292141Y-103134956D01*
X51165220Y-103008035D01*
X51165212Y-103008028D01*
X50999612Y-102887714D01*
X50817224Y-102794782D01*
X50817220Y-102794780D01*
X50817219Y-102794780D01*
X50622534Y-102731523D01*
X50420352Y-102699500D01*
X50215648Y-102699500D01*
X50047163Y-102726185D01*
X50013465Y-102731523D01*
X49818787Y-102794778D01*
X49818775Y-102794782D01*
X49636387Y-102887714D01*
X49470787Y-103008028D01*
X49470779Y-103008035D01*
X49326037Y-103152778D01*
X49326031Y-103152784D01*
X49243290Y-103266668D01*
X49228106Y-103284446D01*
X48601138Y-103911414D01*
X48578333Y-103826306D01*
X48519090Y-103723694D01*
X48435306Y-103639910D01*
X48332694Y-103580667D01*
X48247582Y-103557861D01*
X48956512Y-102848932D01*
X48956512Y-102848930D01*
X48892770Y-102802619D01*
X48892761Y-102802614D01*
X48696418Y-102702571D01*
X48696406Y-102702567D01*
X48486839Y-102634474D01*
X48486840Y-102634474D01*
X48269177Y-102600000D01*
X48048823Y-102600000D01*
X47831159Y-102634474D01*
X47621593Y-102702567D01*
X47621581Y-102702571D01*
X47425238Y-102802613D01*
X47379782Y-102835639D01*
X47307776Y-102863278D01*
X47231598Y-102851211D01*
X47186845Y-102820453D01*
X47138342Y-102771950D01*
X47025305Y-102714354D01*
X47009673Y-102711878D01*
X46931519Y-102699500D01*
X46931514Y-102699500D01*
X45435800Y-102699500D01*
X45361300Y-102679538D01*
X45306762Y-102625000D01*
X45286800Y-102550500D01*
X45286800Y-101175575D01*
X45306762Y-101101075D01*
X45330441Y-101070216D01*
X46103401Y-100297256D01*
X47143914Y-99256743D01*
X47220575Y-99142011D01*
X47273380Y-99014528D01*
X47300300Y-98879194D01*
X47300300Y-98741206D01*
X47300300Y-60452073D01*
X47320262Y-60377573D01*
X47343937Y-60346718D01*
X50108545Y-57582109D01*
X50175338Y-57543547D01*
X50237208Y-57540304D01*
X50301583Y-57550500D01*
X50301587Y-57550500D01*
X50498412Y-57550500D01*
X50498417Y-57550500D01*
X50692826Y-57519709D01*
X50880025Y-57458884D01*
X51055405Y-57369524D01*
X51214646Y-57253828D01*
X51353828Y-57114646D01*
X51469524Y-56955405D01*
X51481404Y-56932088D01*
X51533010Y-56874772D01*
X51606363Y-56850936D01*
X51681806Y-56866971D01*
X51739124Y-56918578D01*
X51746923Y-56932086D01*
X51785374Y-57007550D01*
X51785378Y-57007555D01*
X51824728Y-57061716D01*
X51824729Y-57061716D01*
X52457037Y-56429408D01*
X52474075Y-56492993D01*
G37*
%TD.AperFunction*%
%TD*%
M02*
